M48
; DRILL file KiCad 10.0.1 date 2026-05-31T21:53:22
; FORMAT={-:-/ absolute / metric / decimal}
; #@! TF.CreationDate,2026-05-31T21:53:22-07:00
; #@! TF.GenerationSoftware,Kicad,Pcbnew,10.0.1
; #@! TF.FileFunction,Plated,1,2,PTH
FMAT,2
METRIC
; #@! TA.AperFunction,Plated,PTH,ViaDrill
T1C0.300
; #@! TA.AperFunction,Plated,PTH,ComponentDrill
T2C0.950
; #@! TA.AperFunction,Plated,PTH,ComponentDrill
T3C1.700
; #@! TA.AperFunction,Plated,PTH,ComponentDrill
T4C3.000
%
G90
G05
T1
X114.935Y-70.231
X115.824Y-93.98
X116.459Y-66.548
X117.729Y-92.964
X121.031Y-94.869
X121.031Y-96.647
X121.031Y-98.425
X125.095Y-87.63
X125.857Y-77.472
X126.492Y-77.472
X126.746Y-66.802
X127.254Y-77.472
X127.889Y-77.472
X130.048Y-83.566
X130.423Y-82.931
X130.556Y-76.962
X130.81Y-83.566
X132.969Y-77.343
X133.604Y-77.343
X134.366Y-77.343
X135.001Y-77.343
X135.763Y-70.104
X135.763Y-72.009
X135.763Y-84.963
X136.398Y-84.963
X136.525Y-70.993
X137.16Y-84.963
X137.287Y-70.104
X137.287Y-72.009
X137.795Y-84.963
X139.192Y-66.802
X144.399Y-78.867
X144.399Y-80.01
X144.399Y-81.153
X144.399Y-82.169
X145.161Y-78.232
X145.161Y-79.375
X145.161Y-80.518
X145.161Y-81.534
X145.161Y-82.677
X145.288Y-90.551
X145.288Y-91.313
X147.193Y-98.933
X147.828Y-99.314
X147.828Y-100.076
X148.463Y-98.933
X149.098Y-99.314
X149.098Y-100.076
X149.352Y-66.802
X149.733Y-98.933
X152.781Y-93.746
X153.797Y-90.551
X153.797Y-91.313
X155.448Y-84.201
X155.448Y-88.138
X156.972Y-94.107
X156.972Y-95.377
X156.988Y-92.321
X157.149Y-90.766
X157.353Y-77.089
X157.353Y-79.883
X157.607Y-94.742
X158.242Y-94.107
X158.242Y-95.377
X158.623Y-77.089
X158.623Y-79.883
X160.02Y-77.089
X160.02Y-79.883
X160.782Y-66.802
X161.29Y-84.201
X172.212Y-74.93
X172.212Y-85.852
T2
X117.007Y-71.247
X119.507Y-71.247
X122.007Y-71.247
X128.31Y-71.263
X130.81Y-71.263
X133.31Y-71.263
X139.613Y-71.247
X142.113Y-71.247
X144.613Y-71.247
X151.043Y-71.247
X153.543Y-71.247
X156.043Y-71.247
X162.473Y-71.263
X164.973Y-71.263
X167.473Y-71.263
X167.751Y-76.494
X167.751Y-78.994
X167.751Y-81.494
X167.751Y-87.416
X167.751Y-89.916
X167.751Y-92.416
T3
X122.599Y-76.506
X122.599Y-80.466
X122.599Y-85.65
X122.599Y-89.61
T4
X110.753Y-65.104
X110.753Y-98.104
X173.753Y-65.104
X173.753Y-98.104
M30
