%TF.GenerationSoftware,KiCad,Pcbnew,10.0.1*%
%TF.CreationDate,2026-05-31T21:53:17-07:00*%
%TF.ProjectId,A3_Modular_Power_Supply_v2,41335f4d-6f64-4756-9c61-725f506f7765,rev?*%
%TF.SameCoordinates,Original*%
%TF.FileFunction,Copper,L1,Top*%
%TF.FilePolarity,Positive*%
%FSLAX46Y46*%
G04 Gerber Fmt 4.6, Leading zero omitted, Abs format (unit mm)*
G04 Created by KiCad (PCBNEW 10.0.1) date 2026-05-31 21:53:17*
%MOMM*%
%LPD*%
G01*
G04 APERTURE LIST*
G04 Aperture macros list*
%AMRoundRect*
0 Rectangle with rounded corners*
0 $1 Rounding radius*
0 $2 $3 $4 $5 $6 $7 $8 $9 X,Y pos of 4 corners*
0 Add a 4 corners polygon primitive as box body*
4,1,4,$2,$3,$4,$5,$6,$7,$8,$9,$2,$3,0*
0 Add four circle primitives for the rounded corners*
1,1,$1+$1,$2,$3*
1,1,$1+$1,$4,$5*
1,1,$1+$1,$6,$7*
1,1,$1+$1,$8,$9*
0 Add four rect primitives between the rounded corners*
20,1,$1+$1,$2,$3,$4,$5,0*
20,1,$1+$1,$4,$5,$6,$7,0*
20,1,$1+$1,$6,$7,$8,$9,0*
20,1,$1+$1,$8,$9,$2,$3,0*%
G04 Aperture macros list end*
%TA.AperFunction,Conductor*%
%ADD10C,0.000000*%
%TD*%
%TA.AperFunction,ComponentPad*%
%ADD11RoundRect,0.250000X0.600000X0.725000X-0.600000X0.725000X-0.600000X-0.725000X0.600000X-0.725000X0*%
%TD*%
%TA.AperFunction,ComponentPad*%
%ADD12O,1.700000X1.950000*%
%TD*%
%TA.AperFunction,SMDPad,CuDef*%
%ADD13RoundRect,0.062500X-0.062500X0.375000X-0.062500X-0.375000X0.062500X-0.375000X0.062500X0.375000X0*%
%TD*%
%TA.AperFunction,SMDPad,CuDef*%
%ADD14RoundRect,0.062500X-0.375000X0.062500X-0.375000X-0.062500X0.375000X-0.062500X0.375000X0.062500X0*%
%TD*%
%TA.AperFunction,HeatsinkPad*%
%ADD15R,2.000000X2.000000*%
%TD*%
%TA.AperFunction,SMDPad,CuDef*%
%ADD16RoundRect,0.250000X1.100000X-0.325000X1.100000X0.325000X-1.100000X0.325000X-1.100000X-0.325000X0*%
%TD*%
%TA.AperFunction,SMDPad,CuDef*%
%ADD17RoundRect,0.135000X-0.185000X0.135000X-0.185000X-0.135000X0.185000X-0.135000X0.185000X0.135000X0*%
%TD*%
%TA.AperFunction,ComponentPad*%
%ADD18RoundRect,0.250000X0.725000X-0.600000X0.725000X0.600000X-0.725000X0.600000X-0.725000X-0.600000X0*%
%TD*%
%TA.AperFunction,ComponentPad*%
%ADD19O,1.950000X1.700000*%
%TD*%
%TA.AperFunction,SMDPad,CuDef*%
%ADD20RoundRect,0.140000X-0.170000X0.140000X-0.170000X-0.140000X0.170000X-0.140000X0.170000X0.140000X0*%
%TD*%
%TA.AperFunction,SMDPad,CuDef*%
%ADD21RoundRect,0.150000X0.512500X0.150000X-0.512500X0.150000X-0.512500X-0.150000X0.512500X-0.150000X0*%
%TD*%
%TA.AperFunction,SMDPad,CuDef*%
%ADD22RoundRect,0.062500X0.117500X0.062500X-0.117500X0.062500X-0.117500X-0.062500X0.117500X-0.062500X0*%
%TD*%
%TA.AperFunction,SMDPad,CuDef*%
%ADD23RoundRect,0.218750X0.218750X0.256250X-0.218750X0.256250X-0.218750X-0.256250X0.218750X-0.256250X0*%
%TD*%
%TA.AperFunction,ComponentPad*%
%ADD24RoundRect,0.250001X-1.099999X1.099999X-1.099999X-1.099999X1.099999X-1.099999X1.099999X1.099999X0*%
%TD*%
%TA.AperFunction,ComponentPad*%
%ADD25C,2.700000*%
%TD*%
%TA.AperFunction,SMDPad,CuDef*%
%ADD26RoundRect,0.135000X0.135000X0.185000X-0.135000X0.185000X-0.135000X-0.185000X0.135000X-0.185000X0*%
%TD*%
%TA.AperFunction,SMDPad,CuDef*%
%ADD27RoundRect,0.225000X-0.250000X0.225000X-0.250000X-0.225000X0.250000X-0.225000X0.250000X0.225000X0*%
%TD*%
%TA.AperFunction,SMDPad,CuDef*%
%ADD28RoundRect,0.140000X0.170000X-0.140000X0.170000X0.140000X-0.170000X0.140000X-0.170000X-0.140000X0*%
%TD*%
%TA.AperFunction,SMDPad,CuDef*%
%ADD29RoundRect,0.125000X0.125000X-0.300000X0.125000X0.300000X-0.125000X0.300000X-0.125000X-0.300000X0*%
%TD*%
%TA.AperFunction,SMDPad,CuDef*%
%ADD30R,4.410000X4.550000*%
%TD*%
%TA.AperFunction,SMDPad,CuDef*%
%ADD31R,0.300000X0.925000*%
%TD*%
%TA.AperFunction,SMDPad,CuDef*%
%ADD32R,0.675000X0.800000*%
%TD*%
%TA.AperFunction,SMDPad,CuDef*%
%ADD33R,0.625000X0.300000*%
%TD*%
%TA.AperFunction,SMDPad,CuDef*%
%ADD34R,0.300000X0.625000*%
%TD*%
%TA.AperFunction,SMDPad,CuDef*%
%ADD35RoundRect,0.250000X0.325000X1.100000X-0.325000X1.100000X-0.325000X-1.100000X0.325000X-1.100000X0*%
%TD*%
%TA.AperFunction,SMDPad,CuDef*%
%ADD36RoundRect,0.135000X0.185000X-0.135000X0.185000X0.135000X-0.185000X0.135000X-0.185000X-0.135000X0*%
%TD*%
%TA.AperFunction,ComponentPad*%
%ADD37C,6.000000*%
%TD*%
%TA.AperFunction,SMDPad,CuDef*%
%ADD38RoundRect,0.250000X-0.600000X-2.550000X0.600000X-2.550000X0.600000X2.550000X-0.600000X2.550000X0*%
%TD*%
%TA.AperFunction,SMDPad,CuDef*%
%ADD39RoundRect,0.225000X0.250000X-0.225000X0.250000X0.225000X-0.250000X0.225000X-0.250000X-0.225000X0*%
%TD*%
%TA.AperFunction,SMDPad,CuDef*%
%ADD40RoundRect,0.250000X-1.500000X-0.550000X1.500000X-0.550000X1.500000X0.550000X-1.500000X0.550000X0*%
%TD*%
%TA.AperFunction,SMDPad,CuDef*%
%ADD41RoundRect,0.125000X-0.687500X-0.125000X0.687500X-0.125000X0.687500X0.125000X-0.687500X0.125000X0*%
%TD*%
%TA.AperFunction,SMDPad,CuDef*%
%ADD42RoundRect,0.125000X-0.300000X-0.125000X0.300000X-0.125000X0.300000X0.125000X-0.300000X0.125000X0*%
%TD*%
%TA.AperFunction,SMDPad,CuDef*%
%ADD43R,4.550000X4.410000*%
%TD*%
%TA.AperFunction,SMDPad,CuDef*%
%ADD44RoundRect,0.225000X-0.225000X-0.250000X0.225000X-0.250000X0.225000X0.250000X-0.225000X0.250000X0*%
%TD*%
%TA.AperFunction,SMDPad,CuDef*%
%ADD45RoundRect,0.250000X0.550000X-1.500000X0.550000X1.500000X-0.550000X1.500000X-0.550000X-1.500000X0*%
%TD*%
%TA.AperFunction,SMDPad,CuDef*%
%ADD46RoundRect,0.140000X-0.140000X-0.170000X0.140000X-0.170000X0.140000X0.170000X-0.140000X0.170000X0*%
%TD*%
%TA.AperFunction,SMDPad,CuDef*%
%ADD47RoundRect,0.510000X-1.990000X1.190000X-1.990000X-1.190000X1.990000X-1.190000X1.990000X1.190000X0*%
%TD*%
%TA.AperFunction,ViaPad*%
%ADD48C,0.600000*%
%TD*%
%TA.AperFunction,Conductor*%
%ADD49C,0.200000*%
%TD*%
%TA.AperFunction,Conductor*%
%ADD50C,0.400000*%
%TD*%
%TA.AperFunction,Conductor*%
%ADD51C,1.000000*%
%TD*%
%TA.AperFunction,Conductor*%
%ADD52C,2.700000*%
%TD*%
G04 APERTURE END LIST*
D10*
%TA.AperFunction,Conductor*%
%TO.N,GND*%
G36*
X128217000Y-77038000D02*
G01*
X128217000Y-78781000D01*
X125517000Y-78781000D01*
X125517000Y-77050000D01*
X125730000Y-76837000D01*
X128016000Y-76837000D01*
X128217000Y-77038000D01*
G37*
%TD.AperFunction*%
%TA.AperFunction,Conductor*%
G36*
X135329000Y-76909000D02*
G01*
X135329000Y-78652000D01*
X132629000Y-78652000D01*
X132629000Y-76921000D01*
X132842000Y-76708000D01*
X135128000Y-76708000D01*
X135329000Y-76909000D01*
G37*
%TD.AperFunction*%
%TA.AperFunction,Conductor*%
G36*
X138135000Y-85385000D02*
G01*
X137922000Y-85598000D01*
X135636000Y-85598000D01*
X135435000Y-85397000D01*
X135435000Y-83654000D01*
X138135000Y-83654000D01*
X138135000Y-85385000D01*
G37*
%TD.AperFunction*%
%TA.AperFunction,Conductor*%
%TO.N,+5V*%
G36*
X169672000Y-63627000D02*
G01*
X169672000Y-67437000D01*
X168656000Y-68453000D01*
X115951000Y-68453000D01*
X114935000Y-67437000D01*
X114935000Y-63627000D01*
X115951000Y-62611000D01*
X168656000Y-62611000D01*
X169672000Y-63627000D01*
G37*
%TD.AperFunction*%
%TA.AperFunction,Conductor*%
%TO.N,/BATT_IN*%
G36*
X127000000Y-91059000D02*
G01*
X127000000Y-93980000D01*
X126619000Y-94361000D01*
X124079000Y-94361000D01*
X120523000Y-90805000D01*
X120523000Y-88138000D01*
X121031000Y-87630000D01*
X123571000Y-87630000D01*
X127000000Y-91059000D01*
G37*
%TD.AperFunction*%
%TA.AperFunction,Conductor*%
%TO.N,VBAT*%
G36*
X129547999Y-81399063D02*
G01*
X129547999Y-81799063D01*
X129160062Y-82187000D01*
X126867000Y-82187000D01*
X126867000Y-81037000D01*
X128835062Y-81037000D01*
X128872999Y-80999063D01*
X129147999Y-80999063D01*
X129547999Y-81399063D01*
G37*
%TD.AperFunction*%
%TA.AperFunction,Conductor*%
%TO.N,GND*%
G36*
X130573000Y-82550000D02*
G01*
X131318000Y-83312000D01*
X131318000Y-84074000D01*
X129540000Y-84074000D01*
X129540000Y-83312000D01*
X130273000Y-82550000D01*
X130273000Y-81736500D01*
X130573000Y-81736500D01*
X130573000Y-82550000D01*
G37*
%TD.AperFunction*%
%TA.AperFunction,Conductor*%
%TO.N,+3.3V*%
G36*
X132000938Y-81027000D02*
G01*
X133979000Y-81027000D01*
X133979000Y-82177000D01*
X131675938Y-82177000D01*
X131298001Y-81799063D01*
X131298001Y-81399063D01*
X131698001Y-80999063D01*
X131973001Y-80999063D01*
X132000938Y-81027000D01*
G37*
%TD.AperFunction*%
%TA.AperFunction,Conductor*%
%TO.N,GND*%
G36*
X150368000Y-98933000D02*
G01*
X150368000Y-100199000D01*
X149983000Y-100584000D01*
X146939000Y-100584000D01*
X146558000Y-100203000D01*
X146558000Y-98933000D01*
X146939000Y-98552000D01*
X149987000Y-98552000D01*
X150368000Y-98933000D01*
G37*
%TD.AperFunction*%
%TA.AperFunction,Conductor*%
G36*
X160655000Y-76835000D02*
G01*
X160655000Y-80137000D01*
X160274000Y-80518000D01*
X157099000Y-80518000D01*
X156718000Y-80137000D01*
X156718000Y-76835000D01*
X157099000Y-76454000D01*
X160274000Y-76454000D01*
X160655000Y-76835000D01*
G37*
%TD.AperFunction*%
%TA.AperFunction,Conductor*%
%TO.N,+5V*%
G36*
X175085890Y-70053827D02*
G01*
X176150246Y-71119275D01*
X176149000Y-92710000D01*
X175006000Y-93853000D01*
X171450000Y-93853000D01*
X170307000Y-92710000D01*
X170307055Y-71119945D01*
X171373824Y-70053176D01*
X175085890Y-70053827D01*
G37*
%TD.AperFunction*%
%TA.AperFunction,Conductor*%
%TO.N,Net-(U4-LX1)*%
G36*
X130072874Y-82435126D02*
G01*
X129323000Y-83185000D01*
X127623000Y-83185000D01*
X127623000Y-82925000D01*
X127998000Y-82550000D01*
X129183000Y-82550000D01*
X129772874Y-81960126D01*
X129772874Y-81736500D01*
X130072874Y-81736500D01*
X130072874Y-82435126D01*
G37*
%TD.AperFunction*%
%TA.AperFunction,Conductor*%
%TO.N,Net-(U4-LX2)*%
G36*
X131073126Y-81960126D02*
G01*
X131663000Y-82550000D01*
X132848000Y-82550000D01*
X133223000Y-82925000D01*
X133223000Y-83185000D01*
X131523000Y-83185000D01*
X130773126Y-82435126D01*
X130773126Y-81736500D01*
X131073126Y-81736500D01*
X131073126Y-81960126D01*
G37*
%TD.AperFunction*%
%TA.AperFunction,Conductor*%
%TO.N,+5V*%
G36*
X170307055Y-75946000D02*
G01*
X170307000Y-75946000D01*
X169418000Y-75057000D01*
X156972000Y-75057000D01*
X155956000Y-76073000D01*
X153924000Y-74041000D01*
X153924000Y-72898000D01*
X169418055Y-72898000D01*
X170307055Y-72009000D01*
X170307055Y-75946000D01*
G37*
%TD.AperFunction*%
%TA.AperFunction,Conductor*%
%TO.N,Net-(Q1-D)*%
G36*
X150368000Y-91825000D02*
G01*
X150368000Y-94799000D01*
X146893000Y-98274000D01*
X145923000Y-98274000D01*
X143559000Y-100638000D01*
X140589000Y-100638000D01*
X140589000Y-97238000D01*
X141014000Y-97238000D01*
X146812000Y-91440000D01*
X149983000Y-91440000D01*
X150368000Y-91825000D01*
G37*
%TD.AperFunction*%
%TA.AperFunction,Conductor*%
%TO.N,GND*%
G36*
X147309000Y-78219000D02*
G01*
X147309000Y-83198000D01*
X146734000Y-83773000D01*
X144606000Y-83773000D01*
X142941000Y-82108000D01*
X142113000Y-82108000D01*
X141313000Y-81308000D01*
X141313000Y-78232000D01*
X141901000Y-77644000D01*
X146734000Y-77644000D01*
X147309000Y-78219000D01*
G37*
%TD.AperFunction*%
%TA.AperFunction,Conductor*%
G36*
X164592000Y-97917000D02*
G01*
X164592000Y-98806000D01*
X163957000Y-99441000D01*
X157861000Y-99441000D01*
X157607000Y-99187000D01*
X157607000Y-98679000D01*
X157861000Y-98425000D01*
X163068000Y-98425000D01*
X163576000Y-97917000D01*
X163576000Y-97663000D01*
X164338000Y-97663000D01*
X164592000Y-97917000D01*
G37*
%TD.AperFunction*%
%TA.AperFunction,Conductor*%
%TO.N,+3.3V*%
G36*
X137922000Y-69850000D02*
G01*
X137922000Y-81027000D01*
X136772000Y-82177000D01*
X133979000Y-82177000D01*
X133979000Y-81027000D01*
X134873000Y-81027000D01*
X135763000Y-80137000D01*
X135763000Y-76327000D01*
X135128000Y-75692000D01*
X135128000Y-69850000D01*
X135763000Y-69215000D01*
X137287000Y-69215000D01*
X137922000Y-69850000D01*
G37*
%TD.AperFunction*%
%TA.AperFunction,Conductor*%
%TO.N,+5V*%
G36*
X150749000Y-68453000D02*
G01*
X149733000Y-69469000D01*
X149733000Y-72263000D01*
X150368000Y-72898000D01*
X153924000Y-72898000D01*
X155956000Y-74930000D01*
X155956000Y-77597000D01*
X148209000Y-77597000D01*
X145923000Y-75311000D01*
X145923000Y-69469000D01*
X144907000Y-68453000D01*
X144145000Y-68453000D01*
X144907000Y-67691000D01*
X149987000Y-67691000D01*
X150749000Y-68453000D01*
G37*
%TD.AperFunction*%
%TA.AperFunction,Conductor*%
G36*
X155956000Y-77597000D02*
G01*
X155956000Y-79502000D01*
X155194000Y-80264000D01*
X152527000Y-80264000D01*
X152146000Y-80645000D01*
X152146000Y-89811000D01*
X151303000Y-90654000D01*
X149168000Y-90654000D01*
X146893000Y-88379000D01*
X146893000Y-85644000D01*
X148209000Y-84328000D01*
X148209000Y-77597000D01*
X148844000Y-76962000D01*
X155321000Y-76962000D01*
X155956000Y-77597000D01*
G37*
%TD.AperFunction*%
%TA.AperFunction,Conductor*%
%TO.N,GND*%
G36*
X164592000Y-92273000D02*
G01*
X164592000Y-97917000D01*
X163830000Y-97917000D01*
X163576000Y-97663000D01*
X163576000Y-97028000D01*
X163449000Y-96901000D01*
X161815000Y-96901000D01*
X161744000Y-96830000D01*
X161744000Y-93399000D01*
X161798000Y-93345000D01*
X163449000Y-93345000D01*
X163576000Y-93218000D01*
X163576000Y-92329000D01*
X163830000Y-92075000D01*
X164394000Y-92075000D01*
X164592000Y-92273000D01*
G37*
%TD.AperFunction*%
%TA.AperFunction,Conductor*%
%TO.N,VBAT*%
G36*
X143089000Y-83869000D02*
G01*
X143089000Y-90038000D01*
X141389000Y-91738000D01*
X136525000Y-91738000D01*
X132928000Y-95335000D01*
X129807000Y-95335000D01*
X127532000Y-93060000D01*
X127532000Y-90400000D01*
X128016000Y-89916000D01*
X133091000Y-89916000D01*
X134747000Y-88260000D01*
X134747000Y-86614000D01*
X135382000Y-85979000D01*
X139700000Y-85979000D01*
X140970000Y-84709000D01*
X140970000Y-83947000D01*
X141224000Y-83693000D01*
X142913000Y-83693000D01*
X143089000Y-83869000D01*
G37*
%TD.AperFunction*%
%TD*%
D11*
%TO.P,J3,1,Pin_1_1*%
%TO.N,GND*%
X144613000Y-71247000D03*
D12*
%TO.P,J3,2,Pin_2_2*%
%TO.N,Net-(J3-Pin_2)*%
X142113000Y-71247000D03*
%TO.P,J3,3,Pin_3_3*%
%TO.N,Net-(J3-Pin_3)*%
X139613000Y-71247000D03*
%TD*%
D13*
%TO.P,U1,1,CSP_1*%
%TO.N,VBAT*%
X158607000Y-93054500D03*
%TO.P,U1,2,CSN_2*%
%TO.N,Net-(U1-CSN)*%
X158107000Y-93054500D03*
%TO.P,U1,3,VOUT/SENSE_3*%
%TO.N,+5V*%
X157607000Y-93054500D03*
%TO.P,U1,4,PGOOD_4*%
%TO.N,/PGOOD*%
X157107000Y-93054500D03*
%TO.P,U1,5,HO_5*%
%TO.N,Net-(Q2-G)*%
X156607000Y-93054500D03*
D14*
%TO.P,U1,6,SW_6*%
%TO.N,Net-(Q1-D)*%
X155919500Y-93742000D03*
%TO.P,U1,7,HB_7*%
%TO.N,Net-(U1-HB)*%
X155919500Y-94242000D03*
%TO.P,U1,8,BIAS_8*%
%TO.N,/V_BIAS*%
X155919500Y-94742000D03*
%TO.P,U1,9,VCC_9*%
%TO.N,Net-(U1-VCC)*%
X155919500Y-95242000D03*
%TO.P,U1,10,PGND_10*%
%TO.N,GND*%
X155919500Y-95742000D03*
D13*
%TO.P,U1,11,LO_11*%
%TO.N,Net-(Q1-G)*%
X156607000Y-96429500D03*
%TO.P,U1,12,MODE_12*%
%TO.N,unconnected-(U1-MODE-Pad12)*%
X157107000Y-96429500D03*
%TO.P,U1,13,UVLO/EN_13*%
%TO.N,/UVLO*%
X157607000Y-96429500D03*
%TO.P,U1,14,SYNC_14*%
%TO.N,GND*%
X158107000Y-96429500D03*
%TO.P,U1,15,RT_15*%
%TO.N,Net-(U1-RT)*%
X158607000Y-96429500D03*
D14*
%TO.P,U1,16,VREF_16*%
%TO.N,Net-(U1-VREF)*%
X159294500Y-95742000D03*
%TO.P,U1,17,SS_17*%
%TO.N,Net-(U1-SS)*%
X159294500Y-95242000D03*
%TO.P,U1,18,TRK_18*%
%TO.N,Net-(U1-TRK)*%
X159294500Y-94742000D03*
%TO.P,U1,19,AGND_19*%
%TO.N,GND*%
X159294500Y-94242000D03*
%TO.P,U1,20,COMP_20*%
%TO.N,Net-(U1-COMP)*%
X159294500Y-93742000D03*
D15*
%TO.P,U1,21,PAD_21*%
%TO.N,GND*%
X157607000Y-94742000D03*
%TD*%
D16*
%TO.P,C17,1*%
%TO.N,+3.3V*%
X133979000Y-81602000D03*
%TO.P,C17,2*%
%TO.N,GND*%
X133979000Y-78652000D03*
%TD*%
D17*
%TO.P,R6,1*%
%TO.N,/UVLO*%
X156845000Y-97915000D03*
%TO.P,R6,2*%
%TO.N,VBAT*%
X156845000Y-98935000D03*
%TD*%
D18*
%TO.P,J6,1,Pin_1_1*%
%TO.N,GND*%
X167751000Y-81494000D03*
D19*
%TO.P,J6,2,Pin_2_2*%
%TO.N,Net-(J6-Pin_2)*%
X167751000Y-78994000D03*
%TO.P,J6,3,Pin_3_3*%
%TO.N,Net-(J6-Pin_3)*%
X167751000Y-76494000D03*
%TD*%
D20*
%TO.P,C3,1*%
%TO.N,GND*%
X156591000Y-90325000D03*
%TO.P,C3,2*%
%TO.N,+5V*%
X156591000Y-91285000D03*
%TD*%
D21*
%TO.P,U2,1,VIN_1*%
%TO.N,VBAT*%
X159506500Y-87089001D03*
%TO.P,U2,2,GND_2*%
%TO.N,GND*%
X159506500Y-86139001D03*
%TO.P,U2,3,C-_3*%
%TO.N,Net-(U2-C-)*%
X159506500Y-85189001D03*
%TO.P,U2,4,SHDN_4*%
%TO.N,GND*%
X157231500Y-85189001D03*
%TO.P,U2,5,VOUT_5*%
%TO.N,/V_BIAS*%
X157231500Y-86139001D03*
%TO.P,U2,6,C+_6*%
%TO.N,Net-(U2-C+)*%
X157231500Y-87089001D03*
%TD*%
D22*
%TO.P,D1,1,A1_1*%
%TO.N,GND*%
X133184000Y-75565000D03*
%TO.P,D1,2,A2_2*%
%TO.N,+3.3V*%
X134024000Y-75565000D03*
%TD*%
%TO.P,D3,1,A1_1*%
%TO.N,GND*%
X144106000Y-75565000D03*
%TO.P,D3,2,A2_2*%
%TO.N,+5V*%
X144946000Y-75565000D03*
%TD*%
D23*
%TO.P,D4,1,K_1*%
%TO.N,/PGOOD*%
X119913500Y-98425000D03*
%TO.P,D4,2,A_2*%
%TO.N,Net-(D4-A)*%
X118338500Y-98425000D03*
%TD*%
D24*
%TO.P,J10,1,Pin_1_1*%
%TO.N,GND*%
X122599000Y-76506000D03*
D25*
%TO.P,J10,2,Pin_2_2*%
%TO.N,Net-(J10-Pin_2)*%
X122599000Y-80466000D03*
%TD*%
D11*
%TO.P,J1,1,Pin_1_1*%
%TO.N,GND*%
X122007000Y-71247000D03*
D12*
%TO.P,J1,2,Pin_2_2*%
%TO.N,Net-(J1-Pin_2)*%
X119507000Y-71247000D03*
%TO.P,J1,3,Pin_3_3*%
%TO.N,Net-(J1-Pin_3)*%
X117007000Y-71247000D03*
%TD*%
D26*
%TO.P,R4,1*%
%TO.N,Net-(U1-TRK)*%
X162054000Y-97663000D03*
%TO.P,R4,2*%
%TO.N,Net-(U1-VREF)*%
X161034000Y-97663000D03*
%TD*%
D22*
%TO.P,D2,1,A1_1*%
%TO.N,GND*%
X118579000Y-92964000D03*
%TO.P,D2,2,A2_2*%
%TO.N,/BATT_IN*%
X119419000Y-92964000D03*
%TD*%
D27*
%TO.P,C24,1*%
%TO.N,/V_BIAS*%
X152781000Y-94475000D03*
%TO.P,C24,2*%
%TO.N,GND*%
X152781000Y-96025000D03*
%TD*%
D28*
%TO.P,C9,1*%
%TO.N,Net-(U1-CSN)*%
X159131000Y-91285000D03*
%TO.P,C9,2*%
%TO.N,VBAT*%
X159131000Y-90325000D03*
%TD*%
D29*
%TO.P,Q1,1,S_1*%
%TO.N,GND*%
X147193000Y-99949000D03*
%TO.P,Q1,2,S_2*%
X148463000Y-99949000D03*
%TO.P,Q1,3,S_3*%
X149733000Y-99949000D03*
%TO.P,Q1,4,G_4*%
%TO.N,Net-(Q1-G)*%
X151003000Y-99949000D03*
D30*
%TO.P,Q1,5,D_5*%
%TO.N,Net-(Q1-D)*%
X149098000Y-95999000D03*
%TD*%
D31*
%TO.P,U4,1,LX1_1*%
%TO.N,Net-(U4-LX1)*%
X129922874Y-81736500D03*
%TO.P,U4,2,PGND_2*%
%TO.N,GND*%
X130423000Y-81736500D03*
%TO.P,U4,3,LX2_3*%
%TO.N,Net-(U4-LX2)*%
X130923126Y-81736500D03*
D32*
%TO.P,U4,4,OUT_4*%
%TO.N,+3.3V*%
X131635501Y-81399063D03*
D33*
%TO.P,U4,5,EN_5*%
%TO.N,VBAT*%
X131660501Y-80648937D03*
D34*
%TO.P,U4,6,OUTS_6*%
%TO.N,+3.3V*%
X131423252Y-79911500D03*
%TO.P,U4,7,AGND_7*%
%TO.N,GND*%
X130923126Y-79911500D03*
%TO.P,U4,8,SEL_8*%
%TO.N,Net-(U4-SEL)*%
X130423000Y-79911500D03*
%TO.P,U4,9,GPIO_9*%
%TO.N,unconnected-(U4-GPIO-Pad9)*%
X129922874Y-79911500D03*
D33*
%TO.P,U4,10,BIAS_10*%
%TO.N,Net-(U4-BIAS)*%
X129185499Y-80398937D03*
D32*
%TO.P,U4,11,IN_11*%
%TO.N,VBAT*%
X129210499Y-81399063D03*
%TD*%
D23*
%TO.P,D5,1,K_1*%
%TO.N,GND*%
X119913500Y-94869000D03*
%TO.P,D5,2,A_2*%
%TO.N,Net-(D5-A)*%
X118338500Y-94869000D03*
%TD*%
D26*
%TO.P,R12,1*%
%TO.N,Net-(D4-A)*%
X116842000Y-98425000D03*
%TO.P,R12,2*%
%TO.N,+5V*%
X115822000Y-98425000D03*
%TD*%
D35*
%TO.P,C23,1*%
%TO.N,+5V*%
X149684000Y-82423000D03*
%TO.P,C23,2*%
%TO.N,GND*%
X146734000Y-82423000D03*
%TD*%
D36*
%TO.P,R2,1*%
%TO.N,GND*%
X159766000Y-98935000D03*
%TO.P,R2,2*%
%TO.N,Net-(U1-RT)*%
X159766000Y-97915000D03*
%TD*%
D26*
%TO.P,R3,1*%
%TO.N,Net-(C6-Pad1)*%
X162054000Y-92583000D03*
%TO.P,R3,2*%
%TO.N,Net-(U1-COMP)*%
X161034000Y-92583000D03*
%TD*%
D37*
%TO.P,REF\u002A\u002A,1*%
%TO.N,N/C*%
X110753000Y-98104000D03*
%TD*%
%TO.P,REF\u002A\u002A,1*%
%TO.N,N/C*%
X173753000Y-98104000D03*
%TD*%
D38*
%TO.P,L2,1,1_1*%
%TO.N,Net-(U4-LX1)*%
X128473000Y-85725000D03*
%TO.P,L2,2,2_2*%
%TO.N,Net-(U4-LX2)*%
X132373000Y-85725000D03*
%TD*%
D24*
%TO.P,J11,1,Pin_1_1*%
%TO.N,Net-(J10-Pin_2)*%
X122599000Y-85650000D03*
D25*
%TO.P,J11,2,Pin_2_2*%
%TO.N,/BATT_IN*%
X122599000Y-89610000D03*
%TD*%
D27*
%TO.P,C4,1*%
%TO.N,Net-(U1-VCC)*%
X154305000Y-95491000D03*
%TO.P,C4,2*%
%TO.N,GND*%
X154305000Y-97041000D03*
%TD*%
D26*
%TO.P,R5,1*%
%TO.N,GND*%
X164086000Y-97663000D03*
%TO.P,R5,2*%
%TO.N,Net-(U1-TRK)*%
X163066000Y-97663000D03*
%TD*%
D39*
%TO.P,C12,1*%
%TO.N,VBAT*%
X161290000Y-86914001D03*
%TO.P,C12,2*%
%TO.N,GND*%
X161290000Y-85364001D03*
%TD*%
D40*
%TO.P,C20,1*%
%TO.N,+5V*%
X153256000Y-78486000D03*
%TO.P,C20,2*%
%TO.N,GND*%
X158656000Y-78486000D03*
%TD*%
D16*
%TO.P,C14,1*%
%TO.N,VBAT*%
X126867000Y-81612000D03*
%TO.P,C14,2*%
%TO.N,GND*%
X126867000Y-78662000D03*
%TD*%
D18*
%TO.P,J7,1,Pin_1_1*%
%TO.N,GND*%
X167751000Y-92416000D03*
D19*
%TO.P,J7,2,Pin_2_2*%
%TO.N,Net-(J7-Pin_2)*%
X167751000Y-89916000D03*
%TO.P,J7,3,Pin_3_3*%
%TO.N,Net-(J7-Pin_3)*%
X167751000Y-87416000D03*
%TD*%
D23*
%TO.P,D6,1,K_1*%
%TO.N,GND*%
X119913500Y-96647000D03*
%TO.P,D6,2,A_2*%
%TO.N,Net-(D6-A)*%
X118338500Y-96647000D03*
%TD*%
D35*
%TO.P,C25,1*%
%TO.N,+5V*%
X149684000Y-78994000D03*
%TO.P,C25,2*%
%TO.N,GND*%
X146734000Y-78994000D03*
%TD*%
D41*
%TO.P,U3,1,VcapL_1*%
%TO.N,Net-(U3-VcapL)*%
X126157500Y-97196000D03*
%TO.P,U3,2,Gate_Pull_Down_2*%
%TO.N,Net-(Q3-G)*%
X126157500Y-97846000D03*
%TO.P,U3,3,NC_3*%
%TO.N,unconnected-(U3-NC-Pad3)*%
X126157500Y-98496000D03*
%TO.P,U3,4,Anode_4*%
%TO.N,/BATT_IN*%
X126157500Y-99146000D03*
%TO.P,U3,5,NC_5*%
%TO.N,unconnected-(U3-NC-Pad5)*%
X130382500Y-99146000D03*
%TO.P,U3,6,Gate_Drive_6*%
%TO.N,Net-(Q3-G)*%
X130382500Y-98496000D03*
%TO.P,U3,7,VcapH_7*%
%TO.N,Net-(U3-VcapH)*%
X130382500Y-97846000D03*
%TO.P,U3,8,Cathode_8*%
%TO.N,VBAT*%
X130382500Y-97196000D03*
%TD*%
D39*
%TO.P,C11,1*%
%TO.N,/V_BIAS*%
X155448000Y-86914001D03*
%TO.P,C11,2*%
%TO.N,GND*%
X155448000Y-85364001D03*
%TD*%
D36*
%TO.P,R8,1*%
%TO.N,Net-(U1-CSN)*%
X157861000Y-91315000D03*
%TO.P,R8,2*%
%TO.N,Net-(Q1-D)*%
X157861000Y-90295000D03*
%TD*%
D20*
%TO.P,C2,1*%
%TO.N,Net-(Q1-D)*%
X154178000Y-93246000D03*
%TO.P,C2,2*%
%TO.N,Net-(U1-HB)*%
X154178000Y-94206000D03*
%TD*%
D27*
%TO.P,C13,1*%
%TO.N,Net-(U3-VcapH)*%
X132461000Y-97396000D03*
%TO.P,C13,2*%
%TO.N,Net-(U3-VcapL)*%
X132461000Y-98946000D03*
%TD*%
D11*
%TO.P,J5,1,Pin_1_1*%
%TO.N,GND*%
X167473000Y-71263000D03*
D12*
%TO.P,J5,2,Pin_2_2*%
%TO.N,Net-(J5-Pin_2)*%
X164973000Y-71263000D03*
%TO.P,J5,3,Pin_3_3*%
%TO.N,Net-(J5-Pin_3)*%
X162473000Y-71263000D03*
%TD*%
D37*
%TO.P,REF\u002A\u002A,1*%
%TO.N,N/C*%
X173753000Y-65104000D03*
%TD*%
D11*
%TO.P,J4,1,Pin_1_1*%
%TO.N,GND*%
X156043000Y-71247000D03*
D12*
%TO.P,J4,2,Pin_2_2*%
%TO.N,Net-(J4-Pin_2)*%
X153543000Y-71247000D03*
%TO.P,J4,3,Pin_3_3*%
%TO.N,Net-(J4-Pin_3)*%
X151043000Y-71247000D03*
%TD*%
D29*
%TO.P,Q2,1,S_1*%
%TO.N,Net-(Q1-D)*%
X147193000Y-92329000D03*
%TO.P,Q2,2,S_2*%
X148463000Y-92329000D03*
%TO.P,Q2,3,S_3*%
X149733000Y-92329000D03*
%TO.P,Q2,4,G_4*%
%TO.N,Net-(Q2-G)*%
X151003000Y-92329000D03*
D30*
%TO.P,Q2,5,D_5*%
%TO.N,+5V*%
X149098000Y-88379000D03*
%TD*%
D42*
%TO.P,Q3,1,S_1*%
%TO.N,/BATT_IN*%
X125857000Y-91225000D03*
%TO.P,Q3,2,S_2*%
X125857000Y-92495000D03*
%TO.P,Q3,3,S_3*%
X125857000Y-93765000D03*
%TO.P,Q3,4,G_4*%
%TO.N,Net-(Q3-G)*%
X125857000Y-95035000D03*
D43*
%TO.P,Q3,5,D_5*%
%TO.N,VBAT*%
X129807000Y-93130000D03*
%TD*%
D44*
%TO.P,C10,1*%
%TO.N,Net-(U2-C+)*%
X157594000Y-83472001D03*
%TO.P,C10,2*%
%TO.N,Net-(U2-C-)*%
X159144000Y-83472001D03*
%TD*%
D17*
%TO.P,R9,1*%
%TO.N,Net-(U4-SEL)*%
X131693000Y-77722000D03*
%TO.P,R9,2*%
%TO.N,GND*%
X131693000Y-78742000D03*
%TD*%
D45*
%TO.P,C21,1*%
%TO.N,VBAT*%
X142113000Y-85758000D03*
%TO.P,C21,2*%
%TO.N,GND*%
X142113000Y-80358000D03*
%TD*%
D36*
%TO.P,R7,1*%
%TO.N,GND*%
X158115000Y-98935000D03*
%TO.P,R7,2*%
%TO.N,/UVLO*%
X158115000Y-97915000D03*
%TD*%
D46*
%TO.P,C5,1*%
%TO.N,Net-(U1-SS)*%
X161064000Y-95377000D03*
%TO.P,C5,2*%
%TO.N,GND*%
X162024000Y-95377000D03*
%TD*%
%TO.P,C6,1*%
%TO.N,Net-(C6-Pad1)*%
X163096000Y-92583000D03*
%TO.P,C6,2*%
%TO.N,GND*%
X164056000Y-92583000D03*
%TD*%
D37*
%TO.P,REF\u002A\u002A,1*%
%TO.N,N/C*%
X110753000Y-65104000D03*
%TD*%
D47*
%TO.P,L1,1,1_1*%
%TO.N,VBAT*%
X140589000Y-90033000D03*
%TO.P,L1,2,2_2*%
%TO.N,Net-(Q1-D)*%
X140589000Y-98933000D03*
%TD*%
D46*
%TO.P,C7,1*%
%TO.N,Net-(U1-COMP)*%
X161064000Y-93726000D03*
%TO.P,C7,2*%
%TO.N,GND*%
X162024000Y-93726000D03*
%TD*%
D11*
%TO.P,J2,1,Pin_1_1*%
%TO.N,GND*%
X133310000Y-71263000D03*
D12*
%TO.P,J2,2,Pin_2_2*%
%TO.N,Net-(J2-Pin_2)*%
X130810000Y-71263000D03*
%TO.P,J2,3,Pin_3_3*%
%TO.N,Net-(J2-Pin_3)*%
X128310000Y-71263000D03*
%TD*%
D46*
%TO.P,C8,1*%
%TO.N,Net-(U1-VREF)*%
X161064000Y-96520000D03*
%TO.P,C8,2*%
%TO.N,GND*%
X162024000Y-96520000D03*
%TD*%
D16*
%TO.P,C18,1*%
%TO.N,VBAT*%
X136779000Y-86946000D03*
%TO.P,C18,2*%
%TO.N,GND*%
X136779000Y-83996000D03*
%TD*%
D26*
%TO.P,R14,1*%
%TO.N,Net-(D6-A)*%
X116842000Y-96647000D03*
%TO.P,R14,2*%
%TO.N,+3.3V*%
X115822000Y-96647000D03*
%TD*%
%TO.P,R13,1*%
%TO.N,Net-(D5-A)*%
X116842000Y-94869000D03*
%TO.P,R13,2*%
%TO.N,VBAT*%
X115822000Y-94869000D03*
%TD*%
D39*
%TO.P,C15,1*%
%TO.N,Net-(U4-BIAS)*%
X129413000Y-78499000D03*
%TO.P,C15,2*%
%TO.N,GND*%
X129413000Y-76949000D03*
%TD*%
D48*
%TO.N,GND*%
X130810000Y-83566000D03*
X144399000Y-78867000D03*
X158623000Y-79883000D03*
X130556000Y-76962000D03*
X121031000Y-96647000D03*
X157607000Y-94742000D03*
X160020000Y-77089000D03*
X161290000Y-84201000D03*
X156972000Y-94107000D03*
X135763000Y-84963000D03*
X156972000Y-95377000D03*
X158242000Y-94107000D03*
X137160000Y-84963000D03*
X135001000Y-77343000D03*
X160020000Y-79883000D03*
X145161000Y-82677000D03*
X144399000Y-81153000D03*
X121031000Y-94869000D03*
X145161000Y-78232000D03*
X157149093Y-90765604D03*
X158242000Y-95377000D03*
X148463000Y-98933000D03*
X136398000Y-84963000D03*
X130048000Y-83566000D03*
X144399000Y-82169000D03*
X155448000Y-84201000D03*
X158623000Y-77089000D03*
X147828000Y-99314000D03*
X125857000Y-77472000D03*
X117729000Y-92964000D03*
X127254000Y-77472000D03*
X149098000Y-100076000D03*
X127889000Y-77472000D03*
X145161000Y-81534000D03*
X132969000Y-77343000D03*
X137795000Y-84963000D03*
X157353000Y-77089000D03*
X145161000Y-80518000D03*
X130423000Y-82931000D03*
X134366000Y-77343000D03*
X149098000Y-99314000D03*
X147193000Y-98933000D03*
X133604000Y-77343000D03*
X126492000Y-77472000D03*
X149733000Y-98933000D03*
X144399000Y-80010000D03*
X145161000Y-79375000D03*
X147828000Y-100076000D03*
X157353000Y-79883000D03*
%TO.N,VBAT*%
X125095000Y-87630000D03*
X153797000Y-90551000D03*
X115824000Y-93980000D03*
X145288000Y-90551000D03*
%TO.N,+5V*%
X149352000Y-66802000D03*
X172212000Y-74930000D03*
X126746000Y-66802000D03*
X160782000Y-66802000D03*
X116459000Y-66548000D03*
X139192000Y-66802000D03*
X172212000Y-85852000D03*
%TO.N,/PGOOD*%
X121031000Y-98425000D03*
X156987891Y-92321000D03*
%TO.N,Net-(Q1-D)*%
X153797000Y-91313000D03*
X145288000Y-91313000D03*
%TO.N,/V_BIAS*%
X155448000Y-88138000D03*
X152781000Y-93746000D03*
%TO.N,+3.3V*%
X135763000Y-70104000D03*
X114935000Y-70231000D03*
X137287000Y-72009000D03*
X137287000Y-70104000D03*
X135763000Y-72009000D03*
X136525000Y-70993000D03*
%TD*%
%TO.N,GND*%
D49*
X158107000Y-96893000D02*
X158877000Y-97663000D01*
D50*
X151384000Y-98933000D02*
X153289000Y-97028000D01*
D49*
X130923126Y-79511874D02*
X131693000Y-78742000D01*
X129426000Y-76962000D02*
X129413000Y-76949000D01*
X132334000Y-77216000D02*
X132080000Y-76962000D01*
X132080000Y-76962000D02*
X130556000Y-76962000D01*
X144106000Y-77939000D02*
X144145000Y-77978000D01*
X160515000Y-86139001D02*
X159506500Y-86139001D01*
X119913500Y-96647000D02*
X121031000Y-96647000D01*
X154305000Y-97041000D02*
X154305000Y-96774000D01*
X162533000Y-94361000D02*
X160020000Y-94361000D01*
X132334000Y-78486000D02*
X132334000Y-77216000D01*
X154305000Y-96774000D02*
X155337000Y-95742000D01*
X161290000Y-85364001D02*
X160515000Y-86139001D01*
X156607000Y-95742000D02*
X156857000Y-95492000D01*
X163168000Y-94996000D02*
X162533000Y-94361000D01*
X155337000Y-95742000D02*
X155919500Y-95742000D01*
X133889000Y-78742000D02*
X133979000Y-78652000D01*
X130923126Y-79911500D02*
X130923126Y-79511874D01*
X144106000Y-75565000D02*
X144106000Y-77939000D01*
X158107000Y-96429500D02*
X158107000Y-96893000D01*
X130556000Y-76962000D02*
X129426000Y-76962000D01*
X132078000Y-78742000D02*
X132334000Y-78486000D01*
X133184000Y-75565000D02*
X132969000Y-75780000D01*
X119913500Y-94869000D02*
X121031000Y-94869000D01*
X157000413Y-90765604D02*
X156591000Y-90356191D01*
X155919500Y-95742000D02*
X156607000Y-95742000D01*
X155623000Y-85189001D02*
X155448000Y-85364001D01*
X132969000Y-75780000D02*
X132969000Y-77216000D01*
D50*
X153289000Y-96533000D02*
X152781000Y-96025000D01*
D49*
X158877000Y-97663000D02*
X158877000Y-98679000D01*
X155448000Y-85364001D02*
X155448000Y-84201000D01*
X161290000Y-85364001D02*
X161290000Y-84201000D01*
X157149093Y-90765604D02*
X157000413Y-90765604D01*
X159294500Y-94242000D02*
X158107000Y-94242000D01*
X160020000Y-94361000D02*
X159901000Y-94242000D01*
D50*
X149733000Y-98933000D02*
X151384000Y-98933000D01*
D49*
X130423000Y-81736500D02*
X130423000Y-82931000D01*
X131693000Y-78742000D02*
X132078000Y-78742000D01*
D50*
X153289000Y-97028000D02*
X154292000Y-97028000D01*
D49*
X158107000Y-94242000D02*
X157607000Y-94742000D01*
X157231500Y-85189001D02*
X155623000Y-85189001D01*
D50*
X153289000Y-97028000D02*
X153289000Y-96533000D01*
D49*
X118579000Y-92964000D02*
X117729000Y-92964000D01*
X159901000Y-94242000D02*
X159294500Y-94242000D01*
D50*
X154292000Y-97028000D02*
X154305000Y-97041000D01*
D49*
X133391000Y-78742000D02*
X133471000Y-78662000D01*
X156591000Y-90356191D02*
X156591000Y-90325000D01*
%TO.N,VBAT*%
X130382500Y-97196000D02*
X130382500Y-94915500D01*
X163241001Y-86914001D02*
X165100000Y-88773000D01*
X159766000Y-90960000D02*
X159131000Y-90325000D01*
X131484000Y-93130000D02*
X129807000Y-93130000D01*
X115824000Y-94867000D02*
X115822000Y-94869000D01*
X161290000Y-86914001D02*
X163241001Y-86914001D01*
X115824000Y-93980000D02*
X115824000Y-94867000D01*
X161115000Y-87089001D02*
X161290000Y-86914001D01*
X154432000Y-90551000D02*
X155829000Y-89154000D01*
D51*
X126867000Y-81612000D02*
X126238000Y-82241000D01*
D49*
X154432000Y-90551000D02*
X153797000Y-90551000D01*
X159766000Y-92202000D02*
X159766000Y-90960000D01*
D51*
X126238000Y-87503000D02*
X126238000Y-88773000D01*
D49*
X158913500Y-93054500D02*
X159766000Y-92202000D01*
X130382500Y-94915500D02*
X130429000Y-94869000D01*
X158607000Y-93054500D02*
X158913500Y-93054500D01*
X134659000Y-101004000D02*
X134239000Y-100584000D01*
X163791000Y-101004000D02*
X156845000Y-101004000D01*
X156845000Y-101004000D02*
X134659000Y-101004000D01*
X156845000Y-98935000D02*
X156845000Y-101004000D01*
X126238000Y-87503000D02*
X125222000Y-87503000D01*
X145288000Y-90551000D02*
X144653000Y-90551000D01*
X144653000Y-90551000D02*
X144140000Y-90038000D01*
X134239000Y-95885000D02*
X131484000Y-93130000D01*
X155829000Y-89154000D02*
X157960000Y-89154000D01*
D51*
X129807000Y-92342000D02*
X129807000Y-93130000D01*
X126238000Y-82241000D02*
X126238000Y-87503000D01*
D49*
X134239000Y-100584000D02*
X134239000Y-95885000D01*
X159506500Y-87089001D02*
X161115000Y-87089001D01*
D51*
X126238000Y-88773000D02*
X129807000Y-92342000D01*
D49*
X157960000Y-89154000D02*
X159131000Y-90325000D01*
X144140000Y-90038000D02*
X140589000Y-90038000D01*
X129960625Y-80648937D02*
X131660501Y-80648937D01*
X129210499Y-81399063D02*
X129960625Y-80648937D01*
X165100000Y-99695000D02*
X163791000Y-101004000D01*
X165100000Y-88773000D02*
X165100000Y-99695000D01*
X125222000Y-87503000D02*
X125095000Y-87630000D01*
%TO.N,Net-(U1-CSN)*%
X158107000Y-93054500D02*
X158107000Y-91561000D01*
X158107000Y-91561000D02*
X157861000Y-91315000D01*
X159131000Y-91285000D02*
X157891000Y-91285000D01*
X157891000Y-91285000D02*
X157861000Y-91315000D01*
%TO.N,+5V*%
X126746000Y-66802000D02*
X116713000Y-66802000D01*
X115822000Y-98425000D02*
X115822000Y-97915000D01*
X153289000Y-91821000D02*
X151424500Y-89956500D01*
X139192000Y-66802000D02*
X126746000Y-66802000D01*
X149352000Y-70231000D02*
X147828000Y-71755000D01*
X160782000Y-66802000D02*
X139192000Y-66802000D01*
X156810999Y-91821000D02*
X153289000Y-91821000D01*
X147828000Y-71755000D02*
X149684000Y-73611000D01*
X114173000Y-69088000D02*
X115570000Y-67691000D01*
X157607000Y-92075000D02*
X157353000Y-91821000D01*
X144946000Y-75565000D02*
X145669000Y-75565000D01*
X156810999Y-91821000D02*
X156918999Y-91821000D01*
X157607000Y-93054500D02*
X157607000Y-92075000D01*
X157353000Y-91821000D02*
X156918999Y-91821000D01*
X150675500Y-89956500D02*
X149098000Y-88379000D01*
X145669000Y-75565000D02*
X146050000Y-75184000D01*
X156591000Y-91821000D02*
X156810999Y-91821000D01*
X149352000Y-66802000D02*
X149352000Y-70231000D01*
X114173000Y-96266000D02*
X114173000Y-69088000D01*
X151424500Y-89956500D02*
X150675500Y-89956500D01*
X115822000Y-97915000D02*
X114173000Y-96266000D01*
X149684000Y-73611000D02*
X149684000Y-78994000D01*
X156591000Y-91285000D02*
X156591000Y-91821000D01*
X116713000Y-66802000D02*
X116459000Y-66548000D01*
%TO.N,/PGOOD*%
X157107000Y-92464000D02*
X157107000Y-93054500D01*
X156987891Y-92344891D02*
X157107000Y-92464000D01*
X156987891Y-92321000D02*
X156987891Y-92344891D01*
X119913500Y-98425000D02*
X121031000Y-98425000D01*
%TO.N,Net-(Q2-G)*%
D50*
X151003000Y-92329000D02*
X155881500Y-92329000D01*
X155881500Y-92329000D02*
X156607000Y-93054500D01*
%TO.N,Net-(Q1-D)*%
D49*
X151851000Y-93246000D02*
X149098000Y-95999000D01*
X144526000Y-91313000D02*
X140589000Y-95250000D01*
X156210000Y-89535000D02*
X157353000Y-89535000D01*
X145288000Y-91313000D02*
X144526000Y-91313000D01*
X155919500Y-93742000D02*
X155055000Y-93742000D01*
X153924000Y-93246000D02*
X154559000Y-93246000D01*
X153924000Y-93246000D02*
X151851000Y-93246000D01*
X157353000Y-89535000D02*
X157861000Y-90043000D01*
X155055000Y-93742000D02*
X154559000Y-93246000D01*
X157861000Y-90043000D02*
X157861000Y-90295000D01*
X154432000Y-91313000D02*
X156210000Y-89535000D01*
X154432000Y-91313000D02*
X153797000Y-91313000D01*
X140589000Y-95250000D02*
X140589000Y-98938000D01*
%TO.N,Net-(U1-HB)*%
X155919500Y-94242000D02*
X154214000Y-94242000D01*
X154214000Y-94242000D02*
X154178000Y-94206000D01*
%TO.N,/V_BIAS*%
X156223000Y-86139001D02*
X155448000Y-86914001D01*
X155919500Y-94742000D02*
X153048000Y-94742000D01*
X153048000Y-94742000D02*
X152781000Y-94475000D01*
X152781000Y-93746000D02*
X152781000Y-94770000D01*
X152781000Y-94770000D02*
X152809000Y-94742000D01*
X157231500Y-86139001D02*
X156223000Y-86139001D01*
X155448000Y-88138000D02*
X155448000Y-86914001D01*
%TO.N,Net-(U1-VCC)*%
X154546000Y-95250000D02*
X154305000Y-95491000D01*
X154305000Y-95491000D02*
X154346000Y-95491000D01*
X154346000Y-95491000D02*
X154559000Y-95278000D01*
X155919500Y-95242000D02*
X155911500Y-95250000D01*
X155911500Y-95250000D02*
X154546000Y-95250000D01*
%TO.N,Net-(Q1-G)*%
D50*
X151003000Y-99949000D02*
X152781000Y-99949000D01*
X152781000Y-99949000D02*
X156300500Y-96429500D01*
X156300500Y-96429500D02*
X156607000Y-96429500D01*
%TO.N,/UVLO*%
D49*
X157607000Y-97407000D02*
X158115000Y-97915000D01*
X157607000Y-96429500D02*
X157607000Y-97407000D01*
X156845000Y-97915000D02*
X158115000Y-97915000D01*
%TO.N,Net-(U1-RT)*%
X158607000Y-96756000D02*
X159766000Y-97915000D01*
X158607000Y-96429500D02*
X158607000Y-96756000D01*
%TO.N,Net-(U1-VREF)*%
X160286000Y-95742000D02*
X161064000Y-96520000D01*
X159294500Y-95742000D02*
X160286000Y-95742000D01*
X161064000Y-96520000D02*
X161064000Y-97633000D01*
X161064000Y-97633000D02*
X161034000Y-97663000D01*
%TO.N,Net-(U1-SS)*%
X161056000Y-95242000D02*
X161064000Y-95250000D01*
X159294500Y-95242000D02*
X160929000Y-95242000D01*
X160929000Y-95242000D02*
X161064000Y-95377000D01*
%TO.N,Net-(U1-TRK)*%
X161350714Y-94742000D02*
X161544000Y-94935286D01*
X161544000Y-94935286D02*
X161544000Y-97409000D01*
X161544000Y-97409000D02*
X161798000Y-97663000D01*
X162054000Y-97663000D02*
X163066000Y-97663000D01*
X161798000Y-97663000D02*
X162054000Y-97663000D01*
X159294500Y-94742000D02*
X161350714Y-94742000D01*
%TO.N,Net-(U1-COMP)*%
X160953000Y-93742000D02*
X161064000Y-93853000D01*
X161034000Y-93696000D02*
X161064000Y-93726000D01*
X161034000Y-92583000D02*
X161034000Y-93696000D01*
X161048000Y-93742000D02*
X161064000Y-93726000D01*
X159294500Y-93742000D02*
X161048000Y-93742000D01*
%TO.N,+3.3V*%
X134024000Y-75565000D02*
X135819500Y-75565000D01*
X114681000Y-70485000D02*
X114681000Y-95506000D01*
X114935000Y-70231000D02*
X114681000Y-70485000D01*
X114681000Y-95506000D02*
X115822000Y-96647000D01*
X135819500Y-75565000D02*
X135950500Y-75696000D01*
X135890000Y-79911500D02*
X131423252Y-79911500D01*
X133471000Y-81612000D02*
X133471000Y-81153000D01*
X135890000Y-80137000D02*
X135890000Y-79911500D01*
%TO.N,Net-(U2-C-)*%
X159144000Y-83472001D02*
X159144000Y-84826501D01*
X159144000Y-84826501D02*
X159506500Y-85189001D01*
%TO.N,Net-(U2-C+)*%
X157231500Y-87089001D02*
X157893999Y-87089001D01*
X157893999Y-87089001D02*
X158369000Y-86614000D01*
X158369000Y-84247001D02*
X157594000Y-83472001D01*
X158369000Y-86614000D02*
X158369000Y-84247001D01*
%TO.N,Net-(D4-A)*%
X116842000Y-98425000D02*
X118338500Y-98425000D01*
%TO.N,Net-(J10-Pin_2)*%
D52*
X122599000Y-80552000D02*
X122599000Y-85650000D01*
%TO.N,/BATT_IN*%
D49*
X121793000Y-92964000D02*
X123761500Y-90995500D01*
X119419000Y-92964000D02*
X121793000Y-92964000D01*
X125345001Y-99146000D02*
X124079000Y-97879999D01*
X124079000Y-97879999D02*
X124079000Y-91313000D01*
X124079000Y-91313000D02*
X123761500Y-90995500D01*
X126157500Y-99146000D02*
X125345001Y-99146000D01*
%TO.N,Net-(U4-SEL)*%
X130423000Y-78992000D02*
X131693000Y-77722000D01*
X130423000Y-79911500D02*
X130423000Y-78992000D01*
%TO.N,Net-(U4-BIAS)*%
X129185499Y-78726501D02*
X129413000Y-78499000D01*
X129185499Y-80398937D02*
X129185499Y-78726501D01*
%TO.N,Net-(D5-A)*%
X116842000Y-94869000D02*
X118338500Y-94869000D01*
%TO.N,Net-(C6-Pad1)*%
X163096000Y-92583000D02*
X162054000Y-92583000D01*
%TO.N,Net-(D6-A)*%
X116842000Y-96647000D02*
X118338500Y-96647000D01*
%TO.N,Net-(U3-VcapL)*%
X129822000Y-99949000D02*
X132080000Y-99949000D01*
X126157500Y-97196000D02*
X127069000Y-97196000D01*
X132461000Y-99568000D02*
X132461000Y-98946000D01*
X127069000Y-97196000D02*
X129822000Y-99949000D01*
X132080000Y-99949000D02*
X132461000Y-99568000D01*
%TO.N,Net-(Q3-G)*%
X124968000Y-97536000D02*
X124968000Y-95504000D01*
X126277000Y-95035000D02*
X125857000Y-95035000D01*
X126157500Y-97846000D02*
X125278000Y-97846000D01*
X125278000Y-97846000D02*
X124968000Y-97536000D01*
X125437000Y-95035000D02*
X125857000Y-95035000D01*
X130382500Y-98496000D02*
X129738000Y-98496000D01*
X124968000Y-95504000D02*
X125437000Y-95035000D01*
X129738000Y-98496000D02*
X126277000Y-95035000D01*
%TO.N,Net-(U3-VcapH)*%
X130382500Y-97846000D02*
X132011000Y-97846000D01*
X132011000Y-97846000D02*
X132461000Y-97396000D01*
%TD*%
M02*
