%TF.GenerationSoftware,KiCad,Pcbnew,10.0.1*%
%TF.CreationDate,2026-05-31T21:53:17-07:00*%
%TF.ProjectId,A3_Modular_Power_Supply_v2,41335f4d-6f64-4756-9c61-725f506f7765,rev?*%
%TF.SameCoordinates,Original*%
%TF.FileFunction,Legend,Top*%
%TF.FilePolarity,Positive*%
%FSLAX46Y46*%
G04 Gerber Fmt 4.6, Leading zero omitted, Abs format (unit mm)*
G04 Created by KiCad (PCBNEW 10.0.1) date 2026-05-31 21:53:17*
%MOMM*%
%LPD*%
G01*
G04 APERTURE LIST*
%ADD10C,0.100000*%
%ADD11C,0.150000*%
%ADD12C,0.120000*%
%ADD13C,0.152400*%
G04 APERTURE END LIST*
D10*
X121080884Y-95376419D02*
X121080884Y-94376419D01*
X121080884Y-94376419D02*
X121461836Y-94376419D01*
X121461836Y-94376419D02*
X121557074Y-94424038D01*
X121557074Y-94424038D02*
X121604693Y-94471657D01*
X121604693Y-94471657D02*
X121652312Y-94566895D01*
X121652312Y-94566895D02*
X121652312Y-94709752D01*
X121652312Y-94709752D02*
X121604693Y-94804990D01*
X121604693Y-94804990D02*
X121557074Y-94852609D01*
X121557074Y-94852609D02*
X121461836Y-94900228D01*
X121461836Y-94900228D02*
X121080884Y-94900228D01*
X121985646Y-94376419D02*
X122223741Y-95376419D01*
X122223741Y-95376419D02*
X122414217Y-94662133D01*
X122414217Y-94662133D02*
X122604693Y-95376419D01*
X122604693Y-95376419D02*
X122842789Y-94376419D01*
X123795169Y-95376419D02*
X123461836Y-94900228D01*
X123223741Y-95376419D02*
X123223741Y-94376419D01*
X123223741Y-94376419D02*
X123604693Y-94376419D01*
X123604693Y-94376419D02*
X123699931Y-94424038D01*
X123699931Y-94424038D02*
X123747550Y-94471657D01*
X123747550Y-94471657D02*
X123795169Y-94566895D01*
X123795169Y-94566895D02*
X123795169Y-94709752D01*
X123795169Y-94709752D02*
X123747550Y-94804990D01*
X123747550Y-94804990D02*
X123699931Y-94852609D01*
X123699931Y-94852609D02*
X123604693Y-94900228D01*
X123604693Y-94900228D02*
X123223741Y-94900228D01*
X121112646Y-96154419D02*
X121731693Y-96154419D01*
X121731693Y-96154419D02*
X121398360Y-96535371D01*
X121398360Y-96535371D02*
X121541217Y-96535371D01*
X121541217Y-96535371D02*
X121636455Y-96582990D01*
X121636455Y-96582990D02*
X121684074Y-96630609D01*
X121684074Y-96630609D02*
X121731693Y-96725847D01*
X121731693Y-96725847D02*
X121731693Y-96963942D01*
X121731693Y-96963942D02*
X121684074Y-97059180D01*
X121684074Y-97059180D02*
X121636455Y-97106800D01*
X121636455Y-97106800D02*
X121541217Y-97154419D01*
X121541217Y-97154419D02*
X121255503Y-97154419D01*
X121255503Y-97154419D02*
X121160265Y-97106800D01*
X121160265Y-97106800D02*
X121112646Y-97059180D01*
X122160265Y-97059180D02*
X122207884Y-97106800D01*
X122207884Y-97106800D02*
X122160265Y-97154419D01*
X122160265Y-97154419D02*
X122112646Y-97106800D01*
X122112646Y-97106800D02*
X122160265Y-97059180D01*
X122160265Y-97059180D02*
X122160265Y-97154419D01*
X122541217Y-96154419D02*
X123160264Y-96154419D01*
X123160264Y-96154419D02*
X122826931Y-96535371D01*
X122826931Y-96535371D02*
X122969788Y-96535371D01*
X122969788Y-96535371D02*
X123065026Y-96582990D01*
X123065026Y-96582990D02*
X123112645Y-96630609D01*
X123112645Y-96630609D02*
X123160264Y-96725847D01*
X123160264Y-96725847D02*
X123160264Y-96963942D01*
X123160264Y-96963942D02*
X123112645Y-97059180D01*
X123112645Y-97059180D02*
X123065026Y-97106800D01*
X123065026Y-97106800D02*
X122969788Y-97154419D01*
X122969788Y-97154419D02*
X122684074Y-97154419D01*
X122684074Y-97154419D02*
X122588836Y-97106800D01*
X122588836Y-97106800D02*
X122541217Y-97059180D01*
X123445979Y-96154419D02*
X123779312Y-97154419D01*
X123779312Y-97154419D02*
X124112645Y-96154419D01*
X121684074Y-97932419D02*
X121207884Y-97932419D01*
X121207884Y-97932419D02*
X121160265Y-98408609D01*
X121160265Y-98408609D02*
X121207884Y-98360990D01*
X121207884Y-98360990D02*
X121303122Y-98313371D01*
X121303122Y-98313371D02*
X121541217Y-98313371D01*
X121541217Y-98313371D02*
X121636455Y-98360990D01*
X121636455Y-98360990D02*
X121684074Y-98408609D01*
X121684074Y-98408609D02*
X121731693Y-98503847D01*
X121731693Y-98503847D02*
X121731693Y-98741942D01*
X121731693Y-98741942D02*
X121684074Y-98837180D01*
X121684074Y-98837180D02*
X121636455Y-98884800D01*
X121636455Y-98884800D02*
X121541217Y-98932419D01*
X121541217Y-98932419D02*
X121303122Y-98932419D01*
X121303122Y-98932419D02*
X121207884Y-98884800D01*
X121207884Y-98884800D02*
X121160265Y-98837180D01*
X122017408Y-97932419D02*
X122350741Y-98932419D01*
X122350741Y-98932419D02*
X122684074Y-97932419D01*
D11*
X141779666Y-73114819D02*
X141779666Y-73829104D01*
X141779666Y-73829104D02*
X141732047Y-73971961D01*
X141732047Y-73971961D02*
X141636809Y-74067200D01*
X141636809Y-74067200D02*
X141493952Y-74114819D01*
X141493952Y-74114819D02*
X141398714Y-74114819D01*
X142160619Y-73114819D02*
X142779666Y-73114819D01*
X142779666Y-73114819D02*
X142446333Y-73495771D01*
X142446333Y-73495771D02*
X142589190Y-73495771D01*
X142589190Y-73495771D02*
X142684428Y-73543390D01*
X142684428Y-73543390D02*
X142732047Y-73591009D01*
X142732047Y-73591009D02*
X142779666Y-73686247D01*
X142779666Y-73686247D02*
X142779666Y-73924342D01*
X142779666Y-73924342D02*
X142732047Y-74019580D01*
X142732047Y-74019580D02*
X142684428Y-74067200D01*
X142684428Y-74067200D02*
X142589190Y-74114819D01*
X142589190Y-74114819D02*
X142303476Y-74114819D01*
X142303476Y-74114819D02*
X142208238Y-74067200D01*
X142208238Y-74067200D02*
X142160619Y-74019580D01*
X155029819Y-98424904D02*
X155839342Y-98424904D01*
X155839342Y-98424904D02*
X155934580Y-98377285D01*
X155934580Y-98377285D02*
X155982200Y-98329666D01*
X155982200Y-98329666D02*
X156029819Y-98234428D01*
X156029819Y-98234428D02*
X156029819Y-98043952D01*
X156029819Y-98043952D02*
X155982200Y-97948714D01*
X155982200Y-97948714D02*
X155934580Y-97901095D01*
X155934580Y-97901095D02*
X155839342Y-97853476D01*
X155839342Y-97853476D02*
X155029819Y-97853476D01*
X156029819Y-96853476D02*
X156029819Y-97424904D01*
X156029819Y-97139190D02*
X155029819Y-97139190D01*
X155029819Y-97139190D02*
X155172676Y-97234428D01*
X155172676Y-97234428D02*
X155267914Y-97329666D01*
X155267914Y-97329666D02*
X155315533Y-97424904D01*
X133336142Y-77311580D02*
X133288523Y-77359200D01*
X133288523Y-77359200D02*
X133145666Y-77406819D01*
X133145666Y-77406819D02*
X133050428Y-77406819D01*
X133050428Y-77406819D02*
X132907571Y-77359200D01*
X132907571Y-77359200D02*
X132812333Y-77263961D01*
X132812333Y-77263961D02*
X132764714Y-77168723D01*
X132764714Y-77168723D02*
X132717095Y-76978247D01*
X132717095Y-76978247D02*
X132717095Y-76835390D01*
X132717095Y-76835390D02*
X132764714Y-76644914D01*
X132764714Y-76644914D02*
X132812333Y-76549676D01*
X132812333Y-76549676D02*
X132907571Y-76454438D01*
X132907571Y-76454438D02*
X133050428Y-76406819D01*
X133050428Y-76406819D02*
X133145666Y-76406819D01*
X133145666Y-76406819D02*
X133288523Y-76454438D01*
X133288523Y-76454438D02*
X133336142Y-76502057D01*
X134288523Y-77406819D02*
X133717095Y-77406819D01*
X134002809Y-77406819D02*
X134002809Y-76406819D01*
X134002809Y-76406819D02*
X133907571Y-76549676D01*
X133907571Y-76549676D02*
X133812333Y-76644914D01*
X133812333Y-76644914D02*
X133717095Y-76692533D01*
X134621857Y-76406819D02*
X135288523Y-76406819D01*
X135288523Y-76406819D02*
X134859952Y-77406819D01*
X155789333Y-100530819D02*
X155456000Y-100054628D01*
X155217905Y-100530819D02*
X155217905Y-99530819D01*
X155217905Y-99530819D02*
X155598857Y-99530819D01*
X155598857Y-99530819D02*
X155694095Y-99578438D01*
X155694095Y-99578438D02*
X155741714Y-99626057D01*
X155741714Y-99626057D02*
X155789333Y-99721295D01*
X155789333Y-99721295D02*
X155789333Y-99864152D01*
X155789333Y-99864152D02*
X155741714Y-99959390D01*
X155741714Y-99959390D02*
X155694095Y-100007009D01*
X155694095Y-100007009D02*
X155598857Y-100054628D01*
X155598857Y-100054628D02*
X155217905Y-100054628D01*
X156646476Y-99530819D02*
X156456000Y-99530819D01*
X156456000Y-99530819D02*
X156360762Y-99578438D01*
X156360762Y-99578438D02*
X156313143Y-99626057D01*
X156313143Y-99626057D02*
X156217905Y-99768914D01*
X156217905Y-99768914D02*
X156170286Y-99959390D01*
X156170286Y-99959390D02*
X156170286Y-100340342D01*
X156170286Y-100340342D02*
X156217905Y-100435580D01*
X156217905Y-100435580D02*
X156265524Y-100483200D01*
X156265524Y-100483200D02*
X156360762Y-100530819D01*
X156360762Y-100530819D02*
X156551238Y-100530819D01*
X156551238Y-100530819D02*
X156646476Y-100483200D01*
X156646476Y-100483200D02*
X156694095Y-100435580D01*
X156694095Y-100435580D02*
X156741714Y-100340342D01*
X156741714Y-100340342D02*
X156741714Y-100102247D01*
X156741714Y-100102247D02*
X156694095Y-100007009D01*
X156694095Y-100007009D02*
X156646476Y-99959390D01*
X156646476Y-99959390D02*
X156551238Y-99911771D01*
X156551238Y-99911771D02*
X156360762Y-99911771D01*
X156360762Y-99911771D02*
X156265524Y-99959390D01*
X156265524Y-99959390D02*
X156217905Y-100007009D01*
X156217905Y-100007009D02*
X156170286Y-100102247D01*
X173021666Y-72352819D02*
X173021666Y-73067104D01*
X173021666Y-73067104D02*
X172974047Y-73209961D01*
X172974047Y-73209961D02*
X172878809Y-73305200D01*
X172878809Y-73305200D02*
X172735952Y-73352819D01*
X172735952Y-73352819D02*
X172640714Y-73352819D01*
X173926428Y-72352819D02*
X173735952Y-72352819D01*
X173735952Y-72352819D02*
X173640714Y-72400438D01*
X173640714Y-72400438D02*
X173593095Y-72448057D01*
X173593095Y-72448057D02*
X173497857Y-72590914D01*
X173497857Y-72590914D02*
X173450238Y-72781390D01*
X173450238Y-72781390D02*
X173450238Y-73162342D01*
X173450238Y-73162342D02*
X173497857Y-73257580D01*
X173497857Y-73257580D02*
X173545476Y-73305200D01*
X173545476Y-73305200D02*
X173640714Y-73352819D01*
X173640714Y-73352819D02*
X173831190Y-73352819D01*
X173831190Y-73352819D02*
X173926428Y-73305200D01*
X173926428Y-73305200D02*
X173974047Y-73257580D01*
X173974047Y-73257580D02*
X174021666Y-73162342D01*
X174021666Y-73162342D02*
X174021666Y-72924247D01*
X174021666Y-72924247D02*
X173974047Y-72829009D01*
X173974047Y-72829009D02*
X173926428Y-72781390D01*
X173926428Y-72781390D02*
X173831190Y-72733771D01*
X173831190Y-72733771D02*
X173640714Y-72733771D01*
X173640714Y-72733771D02*
X173545476Y-72781390D01*
X173545476Y-72781390D02*
X173497857Y-72829009D01*
X173497857Y-72829009D02*
X173450238Y-72924247D01*
X156950580Y-89066666D02*
X156998200Y-89114285D01*
X156998200Y-89114285D02*
X157045819Y-89257142D01*
X157045819Y-89257142D02*
X157045819Y-89352380D01*
X157045819Y-89352380D02*
X156998200Y-89495237D01*
X156998200Y-89495237D02*
X156902961Y-89590475D01*
X156902961Y-89590475D02*
X156807723Y-89638094D01*
X156807723Y-89638094D02*
X156617247Y-89685713D01*
X156617247Y-89685713D02*
X156474390Y-89685713D01*
X156474390Y-89685713D02*
X156283914Y-89638094D01*
X156283914Y-89638094D02*
X156188676Y-89590475D01*
X156188676Y-89590475D02*
X156093438Y-89495237D01*
X156093438Y-89495237D02*
X156045819Y-89352380D01*
X156045819Y-89352380D02*
X156045819Y-89257142D01*
X156045819Y-89257142D02*
X156093438Y-89114285D01*
X156093438Y-89114285D02*
X156141057Y-89066666D01*
X156045819Y-88733332D02*
X156045819Y-88114285D01*
X156045819Y-88114285D02*
X156426771Y-88447618D01*
X156426771Y-88447618D02*
X156426771Y-88304761D01*
X156426771Y-88304761D02*
X156474390Y-88209523D01*
X156474390Y-88209523D02*
X156522009Y-88161904D01*
X156522009Y-88161904D02*
X156617247Y-88114285D01*
X156617247Y-88114285D02*
X156855342Y-88114285D01*
X156855342Y-88114285D02*
X156950580Y-88161904D01*
X156950580Y-88161904D02*
X156998200Y-88209523D01*
X156998200Y-88209523D02*
X157045819Y-88304761D01*
X157045819Y-88304761D02*
X157045819Y-88590475D01*
X157045819Y-88590475D02*
X156998200Y-88685713D01*
X156998200Y-88685713D02*
X156950580Y-88733332D01*
X160528095Y-87846819D02*
X160528095Y-88656342D01*
X160528095Y-88656342D02*
X160575714Y-88751580D01*
X160575714Y-88751580D02*
X160623333Y-88799200D01*
X160623333Y-88799200D02*
X160718571Y-88846819D01*
X160718571Y-88846819D02*
X160909047Y-88846819D01*
X160909047Y-88846819D02*
X161004285Y-88799200D01*
X161004285Y-88799200D02*
X161051904Y-88751580D01*
X161051904Y-88751580D02*
X161099523Y-88656342D01*
X161099523Y-88656342D02*
X161099523Y-87846819D01*
X161528095Y-87942057D02*
X161575714Y-87894438D01*
X161575714Y-87894438D02*
X161670952Y-87846819D01*
X161670952Y-87846819D02*
X161909047Y-87846819D01*
X161909047Y-87846819D02*
X162004285Y-87894438D01*
X162004285Y-87894438D02*
X162051904Y-87942057D01*
X162051904Y-87942057D02*
X162099523Y-88037295D01*
X162099523Y-88037295D02*
X162099523Y-88132533D01*
X162099523Y-88132533D02*
X162051904Y-88275390D01*
X162051904Y-88275390D02*
X161480476Y-88846819D01*
X161480476Y-88846819D02*
X162099523Y-88846819D01*
X132865905Y-74819819D02*
X132865905Y-73819819D01*
X132865905Y-73819819D02*
X133104000Y-73819819D01*
X133104000Y-73819819D02*
X133246857Y-73867438D01*
X133246857Y-73867438D02*
X133342095Y-73962676D01*
X133342095Y-73962676D02*
X133389714Y-74057914D01*
X133389714Y-74057914D02*
X133437333Y-74248390D01*
X133437333Y-74248390D02*
X133437333Y-74391247D01*
X133437333Y-74391247D02*
X133389714Y-74581723D01*
X133389714Y-74581723D02*
X133342095Y-74676961D01*
X133342095Y-74676961D02*
X133246857Y-74772200D01*
X133246857Y-74772200D02*
X133104000Y-74819819D01*
X133104000Y-74819819D02*
X132865905Y-74819819D01*
X134389714Y-74819819D02*
X133818286Y-74819819D01*
X134104000Y-74819819D02*
X134104000Y-73819819D01*
X134104000Y-73819819D02*
X134008762Y-73962676D01*
X134008762Y-73962676D02*
X133913524Y-74057914D01*
X133913524Y-74057914D02*
X133818286Y-74105533D01*
X143787905Y-74819819D02*
X143787905Y-73819819D01*
X143787905Y-73819819D02*
X144026000Y-73819819D01*
X144026000Y-73819819D02*
X144168857Y-73867438D01*
X144168857Y-73867438D02*
X144264095Y-73962676D01*
X144264095Y-73962676D02*
X144311714Y-74057914D01*
X144311714Y-74057914D02*
X144359333Y-74248390D01*
X144359333Y-74248390D02*
X144359333Y-74391247D01*
X144359333Y-74391247D02*
X144311714Y-74581723D01*
X144311714Y-74581723D02*
X144264095Y-74676961D01*
X144264095Y-74676961D02*
X144168857Y-74772200D01*
X144168857Y-74772200D02*
X144026000Y-74819819D01*
X144026000Y-74819819D02*
X143787905Y-74819819D01*
X144692667Y-73819819D02*
X145311714Y-73819819D01*
X145311714Y-73819819D02*
X144978381Y-74200771D01*
X144978381Y-74200771D02*
X145121238Y-74200771D01*
X145121238Y-74200771D02*
X145216476Y-74248390D01*
X145216476Y-74248390D02*
X145264095Y-74296009D01*
X145264095Y-74296009D02*
X145311714Y-74391247D01*
X145311714Y-74391247D02*
X145311714Y-74629342D01*
X145311714Y-74629342D02*
X145264095Y-74724580D01*
X145264095Y-74724580D02*
X145216476Y-74772200D01*
X145216476Y-74772200D02*
X145121238Y-74819819D01*
X145121238Y-74819819D02*
X144835524Y-74819819D01*
X144835524Y-74819819D02*
X144740286Y-74772200D01*
X144740286Y-74772200D02*
X144692667Y-74724580D01*
X119386819Y-79295523D02*
X120101104Y-79295523D01*
X120101104Y-79295523D02*
X120243961Y-79343142D01*
X120243961Y-79343142D02*
X120339200Y-79438380D01*
X120339200Y-79438380D02*
X120386819Y-79581237D01*
X120386819Y-79581237D02*
X120386819Y-79676475D01*
X120386819Y-78295523D02*
X120386819Y-78866951D01*
X120386819Y-78581237D02*
X119386819Y-78581237D01*
X119386819Y-78581237D02*
X119529676Y-78676475D01*
X119529676Y-78676475D02*
X119624914Y-78771713D01*
X119624914Y-78771713D02*
X119672533Y-78866951D01*
X119386819Y-77676475D02*
X119386819Y-77581237D01*
X119386819Y-77581237D02*
X119434438Y-77485999D01*
X119434438Y-77485999D02*
X119482057Y-77438380D01*
X119482057Y-77438380D02*
X119577295Y-77390761D01*
X119577295Y-77390761D02*
X119767771Y-77343142D01*
X119767771Y-77343142D02*
X120005866Y-77343142D01*
X120005866Y-77343142D02*
X120196342Y-77390761D01*
X120196342Y-77390761D02*
X120291580Y-77438380D01*
X120291580Y-77438380D02*
X120339200Y-77485999D01*
X120339200Y-77485999D02*
X120386819Y-77581237D01*
X120386819Y-77581237D02*
X120386819Y-77676475D01*
X120386819Y-77676475D02*
X120339200Y-77771713D01*
X120339200Y-77771713D02*
X120291580Y-77819332D01*
X120291580Y-77819332D02*
X120196342Y-77866951D01*
X120196342Y-77866951D02*
X120005866Y-77914570D01*
X120005866Y-77914570D02*
X119767771Y-77914570D01*
X119767771Y-77914570D02*
X119577295Y-77866951D01*
X119577295Y-77866951D02*
X119482057Y-77819332D01*
X119482057Y-77819332D02*
X119434438Y-77771713D01*
X119434438Y-77771713D02*
X119386819Y-77676475D01*
X119173666Y-73114819D02*
X119173666Y-73829104D01*
X119173666Y-73829104D02*
X119126047Y-73971961D01*
X119126047Y-73971961D02*
X119030809Y-74067200D01*
X119030809Y-74067200D02*
X118887952Y-74114819D01*
X118887952Y-74114819D02*
X118792714Y-74114819D01*
X120173666Y-74114819D02*
X119602238Y-74114819D01*
X119887952Y-74114819D02*
X119887952Y-73114819D01*
X119887952Y-73114819D02*
X119792714Y-73257676D01*
X119792714Y-73257676D02*
X119697476Y-73352914D01*
X119697476Y-73352914D02*
X119602238Y-73400533D01*
X161377333Y-99287819D02*
X161044000Y-98811628D01*
X160805905Y-99287819D02*
X160805905Y-98287819D01*
X160805905Y-98287819D02*
X161186857Y-98287819D01*
X161186857Y-98287819D02*
X161282095Y-98335438D01*
X161282095Y-98335438D02*
X161329714Y-98383057D01*
X161329714Y-98383057D02*
X161377333Y-98478295D01*
X161377333Y-98478295D02*
X161377333Y-98621152D01*
X161377333Y-98621152D02*
X161329714Y-98716390D01*
X161329714Y-98716390D02*
X161282095Y-98764009D01*
X161282095Y-98764009D02*
X161186857Y-98811628D01*
X161186857Y-98811628D02*
X160805905Y-98811628D01*
X162234476Y-98621152D02*
X162234476Y-99287819D01*
X161996381Y-98240200D02*
X161758286Y-98954485D01*
X161758286Y-98954485D02*
X162377333Y-98954485D01*
X120038905Y-93418819D02*
X120038905Y-92418819D01*
X120038905Y-92418819D02*
X120277000Y-92418819D01*
X120277000Y-92418819D02*
X120419857Y-92466438D01*
X120419857Y-92466438D02*
X120515095Y-92561676D01*
X120515095Y-92561676D02*
X120562714Y-92656914D01*
X120562714Y-92656914D02*
X120610333Y-92847390D01*
X120610333Y-92847390D02*
X120610333Y-92990247D01*
X120610333Y-92990247D02*
X120562714Y-93180723D01*
X120562714Y-93180723D02*
X120515095Y-93275961D01*
X120515095Y-93275961D02*
X120419857Y-93371200D01*
X120419857Y-93371200D02*
X120277000Y-93418819D01*
X120277000Y-93418819D02*
X120038905Y-93418819D01*
X120991286Y-92514057D02*
X121038905Y-92466438D01*
X121038905Y-92466438D02*
X121134143Y-92418819D01*
X121134143Y-92418819D02*
X121372238Y-92418819D01*
X121372238Y-92418819D02*
X121467476Y-92466438D01*
X121467476Y-92466438D02*
X121515095Y-92514057D01*
X121515095Y-92514057D02*
X121562714Y-92609295D01*
X121562714Y-92609295D02*
X121562714Y-92704533D01*
X121562714Y-92704533D02*
X121515095Y-92847390D01*
X121515095Y-92847390D02*
X120943667Y-93418819D01*
X120943667Y-93418819D02*
X121562714Y-93418819D01*
X153140580Y-98813857D02*
X153188200Y-98861476D01*
X153188200Y-98861476D02*
X153235819Y-99004333D01*
X153235819Y-99004333D02*
X153235819Y-99099571D01*
X153235819Y-99099571D02*
X153188200Y-99242428D01*
X153188200Y-99242428D02*
X153092961Y-99337666D01*
X153092961Y-99337666D02*
X152997723Y-99385285D01*
X152997723Y-99385285D02*
X152807247Y-99432904D01*
X152807247Y-99432904D02*
X152664390Y-99432904D01*
X152664390Y-99432904D02*
X152473914Y-99385285D01*
X152473914Y-99385285D02*
X152378676Y-99337666D01*
X152378676Y-99337666D02*
X152283438Y-99242428D01*
X152283438Y-99242428D02*
X152235819Y-99099571D01*
X152235819Y-99099571D02*
X152235819Y-99004333D01*
X152235819Y-99004333D02*
X152283438Y-98861476D01*
X152283438Y-98861476D02*
X152331057Y-98813857D01*
X152331057Y-98432904D02*
X152283438Y-98385285D01*
X152283438Y-98385285D02*
X152235819Y-98290047D01*
X152235819Y-98290047D02*
X152235819Y-98051952D01*
X152235819Y-98051952D02*
X152283438Y-97956714D01*
X152283438Y-97956714D02*
X152331057Y-97909095D01*
X152331057Y-97909095D02*
X152426295Y-97861476D01*
X152426295Y-97861476D02*
X152521533Y-97861476D01*
X152521533Y-97861476D02*
X152664390Y-97909095D01*
X152664390Y-97909095D02*
X153235819Y-98480523D01*
X153235819Y-98480523D02*
X153235819Y-97861476D01*
X152569152Y-97004333D02*
X153235819Y-97004333D01*
X152188200Y-97242428D02*
X152902485Y-97480523D01*
X152902485Y-97480523D02*
X152902485Y-96861476D01*
X159490580Y-89066666D02*
X159538200Y-89114285D01*
X159538200Y-89114285D02*
X159585819Y-89257142D01*
X159585819Y-89257142D02*
X159585819Y-89352380D01*
X159585819Y-89352380D02*
X159538200Y-89495237D01*
X159538200Y-89495237D02*
X159442961Y-89590475D01*
X159442961Y-89590475D02*
X159347723Y-89638094D01*
X159347723Y-89638094D02*
X159157247Y-89685713D01*
X159157247Y-89685713D02*
X159014390Y-89685713D01*
X159014390Y-89685713D02*
X158823914Y-89638094D01*
X158823914Y-89638094D02*
X158728676Y-89590475D01*
X158728676Y-89590475D02*
X158633438Y-89495237D01*
X158633438Y-89495237D02*
X158585819Y-89352380D01*
X158585819Y-89352380D02*
X158585819Y-89257142D01*
X158585819Y-89257142D02*
X158633438Y-89114285D01*
X158633438Y-89114285D02*
X158681057Y-89066666D01*
X159585819Y-88590475D02*
X159585819Y-88399999D01*
X159585819Y-88399999D02*
X159538200Y-88304761D01*
X159538200Y-88304761D02*
X159490580Y-88257142D01*
X159490580Y-88257142D02*
X159347723Y-88161904D01*
X159347723Y-88161904D02*
X159157247Y-88114285D01*
X159157247Y-88114285D02*
X158776295Y-88114285D01*
X158776295Y-88114285D02*
X158681057Y-88161904D01*
X158681057Y-88161904D02*
X158633438Y-88209523D01*
X158633438Y-88209523D02*
X158585819Y-88304761D01*
X158585819Y-88304761D02*
X158585819Y-88495237D01*
X158585819Y-88495237D02*
X158633438Y-88590475D01*
X158633438Y-88590475D02*
X158681057Y-88638094D01*
X158681057Y-88638094D02*
X158776295Y-88685713D01*
X158776295Y-88685713D02*
X159014390Y-88685713D01*
X159014390Y-88685713D02*
X159109628Y-88638094D01*
X159109628Y-88638094D02*
X159157247Y-88590475D01*
X159157247Y-88590475D02*
X159204866Y-88495237D01*
X159204866Y-88495237D02*
X159204866Y-88304761D01*
X159204866Y-88304761D02*
X159157247Y-88209523D01*
X159157247Y-88209523D02*
X159109628Y-88161904D01*
X159109628Y-88161904D02*
X159014390Y-88114285D01*
X145965057Y-100552238D02*
X145917438Y-100647476D01*
X145917438Y-100647476D02*
X145822200Y-100742714D01*
X145822200Y-100742714D02*
X145679342Y-100885571D01*
X145679342Y-100885571D02*
X145631723Y-100980809D01*
X145631723Y-100980809D02*
X145631723Y-101076047D01*
X145869819Y-101028428D02*
X145822200Y-101123666D01*
X145822200Y-101123666D02*
X145726961Y-101218904D01*
X145726961Y-101218904D02*
X145536485Y-101266523D01*
X145536485Y-101266523D02*
X145203152Y-101266523D01*
X145203152Y-101266523D02*
X145012676Y-101218904D01*
X145012676Y-101218904D02*
X144917438Y-101123666D01*
X144917438Y-101123666D02*
X144869819Y-101028428D01*
X144869819Y-101028428D02*
X144869819Y-100837952D01*
X144869819Y-100837952D02*
X144917438Y-100742714D01*
X144917438Y-100742714D02*
X145012676Y-100647476D01*
X145012676Y-100647476D02*
X145203152Y-100599857D01*
X145203152Y-100599857D02*
X145536485Y-100599857D01*
X145536485Y-100599857D02*
X145726961Y-100647476D01*
X145726961Y-100647476D02*
X145822200Y-100742714D01*
X145822200Y-100742714D02*
X145869819Y-100837952D01*
X145869819Y-100837952D02*
X145869819Y-101028428D01*
X145869819Y-99647476D02*
X145869819Y-100218904D01*
X145869819Y-99933190D02*
X144869819Y-99933190D01*
X144869819Y-99933190D02*
X145012676Y-100028428D01*
X145012676Y-100028428D02*
X145107914Y-100123666D01*
X145107914Y-100123666D02*
X145155533Y-100218904D01*
X131101180Y-77597095D02*
X130291657Y-77597095D01*
X130291657Y-77597095D02*
X130196419Y-77644714D01*
X130196419Y-77644714D02*
X130148800Y-77692333D01*
X130148800Y-77692333D02*
X130101180Y-77787571D01*
X130101180Y-77787571D02*
X130101180Y-77978047D01*
X130101180Y-77978047D02*
X130148800Y-78073285D01*
X130148800Y-78073285D02*
X130196419Y-78120904D01*
X130196419Y-78120904D02*
X130291657Y-78168523D01*
X130291657Y-78168523D02*
X131101180Y-78168523D01*
X130767847Y-79073285D02*
X130101180Y-79073285D01*
X131148800Y-78835190D02*
X130434514Y-78597095D01*
X130434514Y-78597095D02*
X130434514Y-79216142D01*
X115435142Y-100149819D02*
X115101809Y-99673628D01*
X114863714Y-100149819D02*
X114863714Y-99149819D01*
X114863714Y-99149819D02*
X115244666Y-99149819D01*
X115244666Y-99149819D02*
X115339904Y-99197438D01*
X115339904Y-99197438D02*
X115387523Y-99245057D01*
X115387523Y-99245057D02*
X115435142Y-99340295D01*
X115435142Y-99340295D02*
X115435142Y-99483152D01*
X115435142Y-99483152D02*
X115387523Y-99578390D01*
X115387523Y-99578390D02*
X115339904Y-99626009D01*
X115339904Y-99626009D02*
X115244666Y-99673628D01*
X115244666Y-99673628D02*
X114863714Y-99673628D01*
X116387523Y-100149819D02*
X115816095Y-100149819D01*
X116101809Y-100149819D02*
X116101809Y-99149819D01*
X116101809Y-99149819D02*
X116006571Y-99292676D01*
X116006571Y-99292676D02*
X115911333Y-99387914D01*
X115911333Y-99387914D02*
X115816095Y-99435533D01*
X116768476Y-99245057D02*
X116816095Y-99197438D01*
X116816095Y-99197438D02*
X116911333Y-99149819D01*
X116911333Y-99149819D02*
X117149428Y-99149819D01*
X117149428Y-99149819D02*
X117244666Y-99197438D01*
X117244666Y-99197438D02*
X117292285Y-99245057D01*
X117292285Y-99245057D02*
X117339904Y-99340295D01*
X117339904Y-99340295D02*
X117339904Y-99435533D01*
X117339904Y-99435533D02*
X117292285Y-99578390D01*
X117292285Y-99578390D02*
X116720857Y-100149819D01*
X116720857Y-100149819D02*
X117339904Y-100149819D01*
X147566142Y-85195580D02*
X147518523Y-85243200D01*
X147518523Y-85243200D02*
X147375666Y-85290819D01*
X147375666Y-85290819D02*
X147280428Y-85290819D01*
X147280428Y-85290819D02*
X147137571Y-85243200D01*
X147137571Y-85243200D02*
X147042333Y-85147961D01*
X147042333Y-85147961D02*
X146994714Y-85052723D01*
X146994714Y-85052723D02*
X146947095Y-84862247D01*
X146947095Y-84862247D02*
X146947095Y-84719390D01*
X146947095Y-84719390D02*
X146994714Y-84528914D01*
X146994714Y-84528914D02*
X147042333Y-84433676D01*
X147042333Y-84433676D02*
X147137571Y-84338438D01*
X147137571Y-84338438D02*
X147280428Y-84290819D01*
X147280428Y-84290819D02*
X147375666Y-84290819D01*
X147375666Y-84290819D02*
X147518523Y-84338438D01*
X147518523Y-84338438D02*
X147566142Y-84386057D01*
X147947095Y-84386057D02*
X147994714Y-84338438D01*
X147994714Y-84338438D02*
X148089952Y-84290819D01*
X148089952Y-84290819D02*
X148328047Y-84290819D01*
X148328047Y-84290819D02*
X148423285Y-84338438D01*
X148423285Y-84338438D02*
X148470904Y-84386057D01*
X148470904Y-84386057D02*
X148518523Y-84481295D01*
X148518523Y-84481295D02*
X148518523Y-84576533D01*
X148518523Y-84576533D02*
X148470904Y-84719390D01*
X148470904Y-84719390D02*
X147899476Y-85290819D01*
X147899476Y-85290819D02*
X148518523Y-85290819D01*
X148851857Y-84290819D02*
X149470904Y-84290819D01*
X149470904Y-84290819D02*
X149137571Y-84671771D01*
X149137571Y-84671771D02*
X149280428Y-84671771D01*
X149280428Y-84671771D02*
X149375666Y-84719390D01*
X149375666Y-84719390D02*
X149423285Y-84767009D01*
X149423285Y-84767009D02*
X149470904Y-84862247D01*
X149470904Y-84862247D02*
X149470904Y-85100342D01*
X149470904Y-85100342D02*
X149423285Y-85195580D01*
X149423285Y-85195580D02*
X149375666Y-85243200D01*
X149375666Y-85243200D02*
X149280428Y-85290819D01*
X149280428Y-85290819D02*
X148994714Y-85290819D01*
X148994714Y-85290819D02*
X148899476Y-85243200D01*
X148899476Y-85243200D02*
X148851857Y-85195580D01*
X159853333Y-100530819D02*
X159520000Y-100054628D01*
X159281905Y-100530819D02*
X159281905Y-99530819D01*
X159281905Y-99530819D02*
X159662857Y-99530819D01*
X159662857Y-99530819D02*
X159758095Y-99578438D01*
X159758095Y-99578438D02*
X159805714Y-99626057D01*
X159805714Y-99626057D02*
X159853333Y-99721295D01*
X159853333Y-99721295D02*
X159853333Y-99864152D01*
X159853333Y-99864152D02*
X159805714Y-99959390D01*
X159805714Y-99959390D02*
X159758095Y-100007009D01*
X159758095Y-100007009D02*
X159662857Y-100054628D01*
X159662857Y-100054628D02*
X159281905Y-100054628D01*
X160234286Y-99626057D02*
X160281905Y-99578438D01*
X160281905Y-99578438D02*
X160377143Y-99530819D01*
X160377143Y-99530819D02*
X160615238Y-99530819D01*
X160615238Y-99530819D02*
X160710476Y-99578438D01*
X160710476Y-99578438D02*
X160758095Y-99626057D01*
X160758095Y-99626057D02*
X160805714Y-99721295D01*
X160805714Y-99721295D02*
X160805714Y-99816533D01*
X160805714Y-99816533D02*
X160758095Y-99959390D01*
X160758095Y-99959390D02*
X160186667Y-100530819D01*
X160186667Y-100530819D02*
X160805714Y-100530819D01*
X161377333Y-91894819D02*
X161044000Y-91418628D01*
X160805905Y-91894819D02*
X160805905Y-90894819D01*
X160805905Y-90894819D02*
X161186857Y-90894819D01*
X161186857Y-90894819D02*
X161282095Y-90942438D01*
X161282095Y-90942438D02*
X161329714Y-90990057D01*
X161329714Y-90990057D02*
X161377333Y-91085295D01*
X161377333Y-91085295D02*
X161377333Y-91228152D01*
X161377333Y-91228152D02*
X161329714Y-91323390D01*
X161329714Y-91323390D02*
X161282095Y-91371009D01*
X161282095Y-91371009D02*
X161186857Y-91418628D01*
X161186857Y-91418628D02*
X160805905Y-91418628D01*
X161710667Y-90894819D02*
X162329714Y-90894819D01*
X162329714Y-90894819D02*
X161996381Y-91275771D01*
X161996381Y-91275771D02*
X162139238Y-91275771D01*
X162139238Y-91275771D02*
X162234476Y-91323390D01*
X162234476Y-91323390D02*
X162282095Y-91371009D01*
X162282095Y-91371009D02*
X162329714Y-91466247D01*
X162329714Y-91466247D02*
X162329714Y-91704342D01*
X162329714Y-91704342D02*
X162282095Y-91799580D01*
X162282095Y-91799580D02*
X162234476Y-91847200D01*
X162234476Y-91847200D02*
X162139238Y-91894819D01*
X162139238Y-91894819D02*
X161853524Y-91894819D01*
X161853524Y-91894819D02*
X161758286Y-91847200D01*
X161758286Y-91847200D02*
X161710667Y-91799580D01*
X126198333Y-88719819D02*
X125722143Y-88719819D01*
X125722143Y-88719819D02*
X125722143Y-87719819D01*
X126484048Y-87815057D02*
X126531667Y-87767438D01*
X126531667Y-87767438D02*
X126626905Y-87719819D01*
X126626905Y-87719819D02*
X126865000Y-87719819D01*
X126865000Y-87719819D02*
X126960238Y-87767438D01*
X126960238Y-87767438D02*
X127007857Y-87815057D01*
X127007857Y-87815057D02*
X127055476Y-87910295D01*
X127055476Y-87910295D02*
X127055476Y-88005533D01*
X127055476Y-88005533D02*
X127007857Y-88148390D01*
X127007857Y-88148390D02*
X126436429Y-88719819D01*
X126436429Y-88719819D02*
X127055476Y-88719819D01*
X119469819Y-88439523D02*
X120184104Y-88439523D01*
X120184104Y-88439523D02*
X120326961Y-88487142D01*
X120326961Y-88487142D02*
X120422200Y-88582380D01*
X120422200Y-88582380D02*
X120469819Y-88725237D01*
X120469819Y-88725237D02*
X120469819Y-88820475D01*
X120469819Y-87439523D02*
X120469819Y-88010951D01*
X120469819Y-87725237D02*
X119469819Y-87725237D01*
X119469819Y-87725237D02*
X119612676Y-87820475D01*
X119612676Y-87820475D02*
X119707914Y-87915713D01*
X119707914Y-87915713D02*
X119755533Y-88010951D01*
X120469819Y-86487142D02*
X120469819Y-87058570D01*
X120469819Y-86772856D02*
X119469819Y-86772856D01*
X119469819Y-86772856D02*
X119612676Y-86868094D01*
X119612676Y-86868094D02*
X119707914Y-86963332D01*
X119707914Y-86963332D02*
X119755533Y-87058570D01*
X154664580Y-98972666D02*
X154712200Y-99020285D01*
X154712200Y-99020285D02*
X154759819Y-99163142D01*
X154759819Y-99163142D02*
X154759819Y-99258380D01*
X154759819Y-99258380D02*
X154712200Y-99401237D01*
X154712200Y-99401237D02*
X154616961Y-99496475D01*
X154616961Y-99496475D02*
X154521723Y-99544094D01*
X154521723Y-99544094D02*
X154331247Y-99591713D01*
X154331247Y-99591713D02*
X154188390Y-99591713D01*
X154188390Y-99591713D02*
X153997914Y-99544094D01*
X153997914Y-99544094D02*
X153902676Y-99496475D01*
X153902676Y-99496475D02*
X153807438Y-99401237D01*
X153807438Y-99401237D02*
X153759819Y-99258380D01*
X153759819Y-99258380D02*
X153759819Y-99163142D01*
X153759819Y-99163142D02*
X153807438Y-99020285D01*
X153807438Y-99020285D02*
X153855057Y-98972666D01*
X154093152Y-98115523D02*
X154759819Y-98115523D01*
X153712200Y-98353618D02*
X154426485Y-98591713D01*
X154426485Y-98591713D02*
X154426485Y-97972666D01*
X163409333Y-99287819D02*
X163076000Y-98811628D01*
X162837905Y-99287819D02*
X162837905Y-98287819D01*
X162837905Y-98287819D02*
X163218857Y-98287819D01*
X163218857Y-98287819D02*
X163314095Y-98335438D01*
X163314095Y-98335438D02*
X163361714Y-98383057D01*
X163361714Y-98383057D02*
X163409333Y-98478295D01*
X163409333Y-98478295D02*
X163409333Y-98621152D01*
X163409333Y-98621152D02*
X163361714Y-98716390D01*
X163361714Y-98716390D02*
X163314095Y-98764009D01*
X163314095Y-98764009D02*
X163218857Y-98811628D01*
X163218857Y-98811628D02*
X162837905Y-98811628D01*
X164314095Y-98287819D02*
X163837905Y-98287819D01*
X163837905Y-98287819D02*
X163790286Y-98764009D01*
X163790286Y-98764009D02*
X163837905Y-98716390D01*
X163837905Y-98716390D02*
X163933143Y-98668771D01*
X163933143Y-98668771D02*
X164171238Y-98668771D01*
X164171238Y-98668771D02*
X164266476Y-98716390D01*
X164266476Y-98716390D02*
X164314095Y-98764009D01*
X164314095Y-98764009D02*
X164361714Y-98859247D01*
X164361714Y-98859247D02*
X164361714Y-99097342D01*
X164361714Y-99097342D02*
X164314095Y-99192580D01*
X164314095Y-99192580D02*
X164266476Y-99240200D01*
X164266476Y-99240200D02*
X164171238Y-99287819D01*
X164171238Y-99287819D02*
X163933143Y-99287819D01*
X163933143Y-99287819D02*
X163837905Y-99240200D01*
X163837905Y-99240200D02*
X163790286Y-99192580D01*
X163046580Y-86781858D02*
X163094200Y-86829477D01*
X163094200Y-86829477D02*
X163141819Y-86972334D01*
X163141819Y-86972334D02*
X163141819Y-87067572D01*
X163141819Y-87067572D02*
X163094200Y-87210429D01*
X163094200Y-87210429D02*
X162998961Y-87305667D01*
X162998961Y-87305667D02*
X162903723Y-87353286D01*
X162903723Y-87353286D02*
X162713247Y-87400905D01*
X162713247Y-87400905D02*
X162570390Y-87400905D01*
X162570390Y-87400905D02*
X162379914Y-87353286D01*
X162379914Y-87353286D02*
X162284676Y-87305667D01*
X162284676Y-87305667D02*
X162189438Y-87210429D01*
X162189438Y-87210429D02*
X162141819Y-87067572D01*
X162141819Y-87067572D02*
X162141819Y-86972334D01*
X162141819Y-86972334D02*
X162189438Y-86829477D01*
X162189438Y-86829477D02*
X162237057Y-86781858D01*
X163141819Y-85829477D02*
X163141819Y-86400905D01*
X163141819Y-86115191D02*
X162141819Y-86115191D01*
X162141819Y-86115191D02*
X162284676Y-86210429D01*
X162284676Y-86210429D02*
X162379914Y-86305667D01*
X162379914Y-86305667D02*
X162427533Y-86400905D01*
X162237057Y-85448524D02*
X162189438Y-85400905D01*
X162189438Y-85400905D02*
X162141819Y-85305667D01*
X162141819Y-85305667D02*
X162141819Y-85067572D01*
X162141819Y-85067572D02*
X162189438Y-84972334D01*
X162189438Y-84972334D02*
X162237057Y-84924715D01*
X162237057Y-84924715D02*
X162332295Y-84877096D01*
X162332295Y-84877096D02*
X162427533Y-84877096D01*
X162427533Y-84877096D02*
X162570390Y-84924715D01*
X162570390Y-84924715D02*
X163141819Y-85496143D01*
X163141819Y-85496143D02*
X163141819Y-84877096D01*
X160266142Y-81766580D02*
X160218523Y-81814200D01*
X160218523Y-81814200D02*
X160075666Y-81861819D01*
X160075666Y-81861819D02*
X159980428Y-81861819D01*
X159980428Y-81861819D02*
X159837571Y-81814200D01*
X159837571Y-81814200D02*
X159742333Y-81718961D01*
X159742333Y-81718961D02*
X159694714Y-81623723D01*
X159694714Y-81623723D02*
X159647095Y-81433247D01*
X159647095Y-81433247D02*
X159647095Y-81290390D01*
X159647095Y-81290390D02*
X159694714Y-81099914D01*
X159694714Y-81099914D02*
X159742333Y-81004676D01*
X159742333Y-81004676D02*
X159837571Y-80909438D01*
X159837571Y-80909438D02*
X159980428Y-80861819D01*
X159980428Y-80861819D02*
X160075666Y-80861819D01*
X160075666Y-80861819D02*
X160218523Y-80909438D01*
X160218523Y-80909438D02*
X160266142Y-80957057D01*
X160647095Y-80957057D02*
X160694714Y-80909438D01*
X160694714Y-80909438D02*
X160789952Y-80861819D01*
X160789952Y-80861819D02*
X161028047Y-80861819D01*
X161028047Y-80861819D02*
X161123285Y-80909438D01*
X161123285Y-80909438D02*
X161170904Y-80957057D01*
X161170904Y-80957057D02*
X161218523Y-81052295D01*
X161218523Y-81052295D02*
X161218523Y-81147533D01*
X161218523Y-81147533D02*
X161170904Y-81290390D01*
X161170904Y-81290390D02*
X160599476Y-81861819D01*
X160599476Y-81861819D02*
X161218523Y-81861819D01*
X161837571Y-80861819D02*
X161932809Y-80861819D01*
X161932809Y-80861819D02*
X162028047Y-80909438D01*
X162028047Y-80909438D02*
X162075666Y-80957057D01*
X162075666Y-80957057D02*
X162123285Y-81052295D01*
X162123285Y-81052295D02*
X162170904Y-81242771D01*
X162170904Y-81242771D02*
X162170904Y-81480866D01*
X162170904Y-81480866D02*
X162123285Y-81671342D01*
X162123285Y-81671342D02*
X162075666Y-81766580D01*
X162075666Y-81766580D02*
X162028047Y-81814200D01*
X162028047Y-81814200D02*
X161932809Y-81861819D01*
X161932809Y-81861819D02*
X161837571Y-81861819D01*
X161837571Y-81861819D02*
X161742333Y-81814200D01*
X161742333Y-81814200D02*
X161694714Y-81766580D01*
X161694714Y-81766580D02*
X161647095Y-81671342D01*
X161647095Y-81671342D02*
X161599476Y-81480866D01*
X161599476Y-81480866D02*
X161599476Y-81242771D01*
X161599476Y-81242771D02*
X161647095Y-81052295D01*
X161647095Y-81052295D02*
X161694714Y-80957057D01*
X161694714Y-80957057D02*
X161742333Y-80909438D01*
X161742333Y-80909438D02*
X161837571Y-80861819D01*
X126224142Y-77438580D02*
X126176523Y-77486200D01*
X126176523Y-77486200D02*
X126033666Y-77533819D01*
X126033666Y-77533819D02*
X125938428Y-77533819D01*
X125938428Y-77533819D02*
X125795571Y-77486200D01*
X125795571Y-77486200D02*
X125700333Y-77390961D01*
X125700333Y-77390961D02*
X125652714Y-77295723D01*
X125652714Y-77295723D02*
X125605095Y-77105247D01*
X125605095Y-77105247D02*
X125605095Y-76962390D01*
X125605095Y-76962390D02*
X125652714Y-76771914D01*
X125652714Y-76771914D02*
X125700333Y-76676676D01*
X125700333Y-76676676D02*
X125795571Y-76581438D01*
X125795571Y-76581438D02*
X125938428Y-76533819D01*
X125938428Y-76533819D02*
X126033666Y-76533819D01*
X126033666Y-76533819D02*
X126176523Y-76581438D01*
X126176523Y-76581438D02*
X126224142Y-76629057D01*
X127176523Y-77533819D02*
X126605095Y-77533819D01*
X126890809Y-77533819D02*
X126890809Y-76533819D01*
X126890809Y-76533819D02*
X126795571Y-76676676D01*
X126795571Y-76676676D02*
X126700333Y-76771914D01*
X126700333Y-76771914D02*
X126605095Y-76819533D01*
X128033666Y-76867152D02*
X128033666Y-77533819D01*
X127795571Y-76486200D02*
X127557476Y-77200485D01*
X127557476Y-77200485D02*
X128176523Y-77200485D01*
X167433666Y-95720819D02*
X167433666Y-96435104D01*
X167433666Y-96435104D02*
X167386047Y-96577961D01*
X167386047Y-96577961D02*
X167290809Y-96673200D01*
X167290809Y-96673200D02*
X167147952Y-96720819D01*
X167147952Y-96720819D02*
X167052714Y-96720819D01*
X167814619Y-95720819D02*
X168481285Y-95720819D01*
X168481285Y-95720819D02*
X168052714Y-96720819D01*
X147566142Y-77067580D02*
X147518523Y-77115200D01*
X147518523Y-77115200D02*
X147375666Y-77162819D01*
X147375666Y-77162819D02*
X147280428Y-77162819D01*
X147280428Y-77162819D02*
X147137571Y-77115200D01*
X147137571Y-77115200D02*
X147042333Y-77019961D01*
X147042333Y-77019961D02*
X146994714Y-76924723D01*
X146994714Y-76924723D02*
X146947095Y-76734247D01*
X146947095Y-76734247D02*
X146947095Y-76591390D01*
X146947095Y-76591390D02*
X146994714Y-76400914D01*
X146994714Y-76400914D02*
X147042333Y-76305676D01*
X147042333Y-76305676D02*
X147137571Y-76210438D01*
X147137571Y-76210438D02*
X147280428Y-76162819D01*
X147280428Y-76162819D02*
X147375666Y-76162819D01*
X147375666Y-76162819D02*
X147518523Y-76210438D01*
X147518523Y-76210438D02*
X147566142Y-76258057D01*
X147947095Y-76258057D02*
X147994714Y-76210438D01*
X147994714Y-76210438D02*
X148089952Y-76162819D01*
X148089952Y-76162819D02*
X148328047Y-76162819D01*
X148328047Y-76162819D02*
X148423285Y-76210438D01*
X148423285Y-76210438D02*
X148470904Y-76258057D01*
X148470904Y-76258057D02*
X148518523Y-76353295D01*
X148518523Y-76353295D02*
X148518523Y-76448533D01*
X148518523Y-76448533D02*
X148470904Y-76591390D01*
X148470904Y-76591390D02*
X147899476Y-77162819D01*
X147899476Y-77162819D02*
X148518523Y-77162819D01*
X149423285Y-76162819D02*
X148947095Y-76162819D01*
X148947095Y-76162819D02*
X148899476Y-76639009D01*
X148899476Y-76639009D02*
X148947095Y-76591390D01*
X148947095Y-76591390D02*
X149042333Y-76543771D01*
X149042333Y-76543771D02*
X149280428Y-76543771D01*
X149280428Y-76543771D02*
X149375666Y-76591390D01*
X149375666Y-76591390D02*
X149423285Y-76639009D01*
X149423285Y-76639009D02*
X149470904Y-76734247D01*
X149470904Y-76734247D02*
X149470904Y-76972342D01*
X149470904Y-76972342D02*
X149423285Y-77067580D01*
X149423285Y-77067580D02*
X149375666Y-77115200D01*
X149375666Y-77115200D02*
X149280428Y-77162819D01*
X149280428Y-77162819D02*
X149042333Y-77162819D01*
X149042333Y-77162819D02*
X148947095Y-77115200D01*
X148947095Y-77115200D02*
X148899476Y-77067580D01*
X127508095Y-100165819D02*
X127508095Y-100975342D01*
X127508095Y-100975342D02*
X127555714Y-101070580D01*
X127555714Y-101070580D02*
X127603333Y-101118200D01*
X127603333Y-101118200D02*
X127698571Y-101165819D01*
X127698571Y-101165819D02*
X127889047Y-101165819D01*
X127889047Y-101165819D02*
X127984285Y-101118200D01*
X127984285Y-101118200D02*
X128031904Y-101070580D01*
X128031904Y-101070580D02*
X128079523Y-100975342D01*
X128079523Y-100975342D02*
X128079523Y-100165819D01*
X128460476Y-100165819D02*
X129079523Y-100165819D01*
X129079523Y-100165819D02*
X128746190Y-100546771D01*
X128746190Y-100546771D02*
X128889047Y-100546771D01*
X128889047Y-100546771D02*
X128984285Y-100594390D01*
X128984285Y-100594390D02*
X129031904Y-100642009D01*
X129031904Y-100642009D02*
X129079523Y-100737247D01*
X129079523Y-100737247D02*
X129079523Y-100975342D01*
X129079523Y-100975342D02*
X129031904Y-101070580D01*
X129031904Y-101070580D02*
X128984285Y-101118200D01*
X128984285Y-101118200D02*
X128889047Y-101165819D01*
X128889047Y-101165819D02*
X128603333Y-101165819D01*
X128603333Y-101165819D02*
X128508095Y-101118200D01*
X128508095Y-101118200D02*
X128460476Y-101070580D01*
X154377580Y-86781858D02*
X154425200Y-86829477D01*
X154425200Y-86829477D02*
X154472819Y-86972334D01*
X154472819Y-86972334D02*
X154472819Y-87067572D01*
X154472819Y-87067572D02*
X154425200Y-87210429D01*
X154425200Y-87210429D02*
X154329961Y-87305667D01*
X154329961Y-87305667D02*
X154234723Y-87353286D01*
X154234723Y-87353286D02*
X154044247Y-87400905D01*
X154044247Y-87400905D02*
X153901390Y-87400905D01*
X153901390Y-87400905D02*
X153710914Y-87353286D01*
X153710914Y-87353286D02*
X153615676Y-87305667D01*
X153615676Y-87305667D02*
X153520438Y-87210429D01*
X153520438Y-87210429D02*
X153472819Y-87067572D01*
X153472819Y-87067572D02*
X153472819Y-86972334D01*
X153472819Y-86972334D02*
X153520438Y-86829477D01*
X153520438Y-86829477D02*
X153568057Y-86781858D01*
X154472819Y-85829477D02*
X154472819Y-86400905D01*
X154472819Y-86115191D02*
X153472819Y-86115191D01*
X153472819Y-86115191D02*
X153615676Y-86210429D01*
X153615676Y-86210429D02*
X153710914Y-86305667D01*
X153710914Y-86305667D02*
X153758533Y-86400905D01*
X154472819Y-84877096D02*
X154472819Y-85448524D01*
X154472819Y-85162810D02*
X153472819Y-85162810D01*
X153472819Y-85162810D02*
X153615676Y-85258048D01*
X153615676Y-85258048D02*
X153710914Y-85353286D01*
X153710914Y-85353286D02*
X153758533Y-85448524D01*
X158315819Y-89066666D02*
X157839628Y-89399999D01*
X158315819Y-89638094D02*
X157315819Y-89638094D01*
X157315819Y-89638094D02*
X157315819Y-89257142D01*
X157315819Y-89257142D02*
X157363438Y-89161904D01*
X157363438Y-89161904D02*
X157411057Y-89114285D01*
X157411057Y-89114285D02*
X157506295Y-89066666D01*
X157506295Y-89066666D02*
X157649152Y-89066666D01*
X157649152Y-89066666D02*
X157744390Y-89114285D01*
X157744390Y-89114285D02*
X157792009Y-89161904D01*
X157792009Y-89161904D02*
X157839628Y-89257142D01*
X157839628Y-89257142D02*
X157839628Y-89638094D01*
X157744390Y-88495237D02*
X157696771Y-88590475D01*
X157696771Y-88590475D02*
X157649152Y-88638094D01*
X157649152Y-88638094D02*
X157553914Y-88685713D01*
X157553914Y-88685713D02*
X157506295Y-88685713D01*
X157506295Y-88685713D02*
X157411057Y-88638094D01*
X157411057Y-88638094D02*
X157363438Y-88590475D01*
X157363438Y-88590475D02*
X157315819Y-88495237D01*
X157315819Y-88495237D02*
X157315819Y-88304761D01*
X157315819Y-88304761D02*
X157363438Y-88209523D01*
X157363438Y-88209523D02*
X157411057Y-88161904D01*
X157411057Y-88161904D02*
X157506295Y-88114285D01*
X157506295Y-88114285D02*
X157553914Y-88114285D01*
X157553914Y-88114285D02*
X157649152Y-88161904D01*
X157649152Y-88161904D02*
X157696771Y-88209523D01*
X157696771Y-88209523D02*
X157744390Y-88304761D01*
X157744390Y-88304761D02*
X157744390Y-88495237D01*
X157744390Y-88495237D02*
X157792009Y-88590475D01*
X157792009Y-88590475D02*
X157839628Y-88638094D01*
X157839628Y-88638094D02*
X157934866Y-88685713D01*
X157934866Y-88685713D02*
X158125342Y-88685713D01*
X158125342Y-88685713D02*
X158220580Y-88638094D01*
X158220580Y-88638094D02*
X158268200Y-88590475D01*
X158268200Y-88590475D02*
X158315819Y-88495237D01*
X158315819Y-88495237D02*
X158315819Y-88304761D01*
X158315819Y-88304761D02*
X158268200Y-88209523D01*
X158268200Y-88209523D02*
X158220580Y-88161904D01*
X158220580Y-88161904D02*
X158125342Y-88114285D01*
X158125342Y-88114285D02*
X157934866Y-88114285D01*
X157934866Y-88114285D02*
X157839628Y-88161904D01*
X157839628Y-88161904D02*
X157792009Y-88209523D01*
X157792009Y-88209523D02*
X157744390Y-88304761D01*
X154791580Y-91860666D02*
X154839200Y-91908285D01*
X154839200Y-91908285D02*
X154886819Y-92051142D01*
X154886819Y-92051142D02*
X154886819Y-92146380D01*
X154886819Y-92146380D02*
X154839200Y-92289237D01*
X154839200Y-92289237D02*
X154743961Y-92384475D01*
X154743961Y-92384475D02*
X154648723Y-92432094D01*
X154648723Y-92432094D02*
X154458247Y-92479713D01*
X154458247Y-92479713D02*
X154315390Y-92479713D01*
X154315390Y-92479713D02*
X154124914Y-92432094D01*
X154124914Y-92432094D02*
X154029676Y-92384475D01*
X154029676Y-92384475D02*
X153934438Y-92289237D01*
X153934438Y-92289237D02*
X153886819Y-92146380D01*
X153886819Y-92146380D02*
X153886819Y-92051142D01*
X153886819Y-92051142D02*
X153934438Y-91908285D01*
X153934438Y-91908285D02*
X153982057Y-91860666D01*
X153982057Y-91479713D02*
X153934438Y-91432094D01*
X153934438Y-91432094D02*
X153886819Y-91336856D01*
X153886819Y-91336856D02*
X153886819Y-91098761D01*
X153886819Y-91098761D02*
X153934438Y-91003523D01*
X153934438Y-91003523D02*
X153982057Y-90955904D01*
X153982057Y-90955904D02*
X154077295Y-90908285D01*
X154077295Y-90908285D02*
X154172533Y-90908285D01*
X154172533Y-90908285D02*
X154315390Y-90955904D01*
X154315390Y-90955904D02*
X154886819Y-91527332D01*
X154886819Y-91527332D02*
X154886819Y-90908285D01*
X134250580Y-98813857D02*
X134298200Y-98861476D01*
X134298200Y-98861476D02*
X134345819Y-99004333D01*
X134345819Y-99004333D02*
X134345819Y-99099571D01*
X134345819Y-99099571D02*
X134298200Y-99242428D01*
X134298200Y-99242428D02*
X134202961Y-99337666D01*
X134202961Y-99337666D02*
X134107723Y-99385285D01*
X134107723Y-99385285D02*
X133917247Y-99432904D01*
X133917247Y-99432904D02*
X133774390Y-99432904D01*
X133774390Y-99432904D02*
X133583914Y-99385285D01*
X133583914Y-99385285D02*
X133488676Y-99337666D01*
X133488676Y-99337666D02*
X133393438Y-99242428D01*
X133393438Y-99242428D02*
X133345819Y-99099571D01*
X133345819Y-99099571D02*
X133345819Y-99004333D01*
X133345819Y-99004333D02*
X133393438Y-98861476D01*
X133393438Y-98861476D02*
X133441057Y-98813857D01*
X134345819Y-97861476D02*
X134345819Y-98432904D01*
X134345819Y-98147190D02*
X133345819Y-98147190D01*
X133345819Y-98147190D02*
X133488676Y-98242428D01*
X133488676Y-98242428D02*
X133583914Y-98337666D01*
X133583914Y-98337666D02*
X133631533Y-98432904D01*
X133345819Y-97528142D02*
X133345819Y-96909095D01*
X133345819Y-96909095D02*
X133726771Y-97242428D01*
X133726771Y-97242428D02*
X133726771Y-97099571D01*
X133726771Y-97099571D02*
X133774390Y-97004333D01*
X133774390Y-97004333D02*
X133822009Y-96956714D01*
X133822009Y-96956714D02*
X133917247Y-96909095D01*
X133917247Y-96909095D02*
X134155342Y-96909095D01*
X134155342Y-96909095D02*
X134250580Y-96956714D01*
X134250580Y-96956714D02*
X134298200Y-97004333D01*
X134298200Y-97004333D02*
X134345819Y-97099571D01*
X134345819Y-97099571D02*
X134345819Y-97385285D01*
X134345819Y-97385285D02*
X134298200Y-97480523D01*
X134298200Y-97480523D02*
X134250580Y-97528142D01*
X163369666Y-72987819D02*
X163369666Y-73702104D01*
X163369666Y-73702104D02*
X163322047Y-73844961D01*
X163322047Y-73844961D02*
X163226809Y-73940200D01*
X163226809Y-73940200D02*
X163083952Y-73987819D01*
X163083952Y-73987819D02*
X162988714Y-73987819D01*
X164322047Y-72987819D02*
X163845857Y-72987819D01*
X163845857Y-72987819D02*
X163798238Y-73464009D01*
X163798238Y-73464009D02*
X163845857Y-73416390D01*
X163845857Y-73416390D02*
X163941095Y-73368771D01*
X163941095Y-73368771D02*
X164179190Y-73368771D01*
X164179190Y-73368771D02*
X164274428Y-73416390D01*
X164274428Y-73416390D02*
X164322047Y-73464009D01*
X164322047Y-73464009D02*
X164369666Y-73559247D01*
X164369666Y-73559247D02*
X164369666Y-73797342D01*
X164369666Y-73797342D02*
X164322047Y-73892580D01*
X164322047Y-73892580D02*
X164274428Y-73940200D01*
X164274428Y-73940200D02*
X164179190Y-73987819D01*
X164179190Y-73987819D02*
X163941095Y-73987819D01*
X163941095Y-73987819D02*
X163845857Y-73940200D01*
X163845857Y-73940200D02*
X163798238Y-73892580D01*
X153209666Y-72987819D02*
X153209666Y-73702104D01*
X153209666Y-73702104D02*
X153162047Y-73844961D01*
X153162047Y-73844961D02*
X153066809Y-73940200D01*
X153066809Y-73940200D02*
X152923952Y-73987819D01*
X152923952Y-73987819D02*
X152828714Y-73987819D01*
X154114428Y-73321152D02*
X154114428Y-73987819D01*
X153876333Y-72940200D02*
X153638238Y-73654485D01*
X153638238Y-73654485D02*
X154257285Y-73654485D01*
X153204057Y-89630238D02*
X153156438Y-89725476D01*
X153156438Y-89725476D02*
X153061200Y-89820714D01*
X153061200Y-89820714D02*
X152918342Y-89963571D01*
X152918342Y-89963571D02*
X152870723Y-90058809D01*
X152870723Y-90058809D02*
X152870723Y-90154047D01*
X153108819Y-90106428D02*
X153061200Y-90201666D01*
X153061200Y-90201666D02*
X152965961Y-90296904D01*
X152965961Y-90296904D02*
X152775485Y-90344523D01*
X152775485Y-90344523D02*
X152442152Y-90344523D01*
X152442152Y-90344523D02*
X152251676Y-90296904D01*
X152251676Y-90296904D02*
X152156438Y-90201666D01*
X152156438Y-90201666D02*
X152108819Y-90106428D01*
X152108819Y-90106428D02*
X152108819Y-89915952D01*
X152108819Y-89915952D02*
X152156438Y-89820714D01*
X152156438Y-89820714D02*
X152251676Y-89725476D01*
X152251676Y-89725476D02*
X152442152Y-89677857D01*
X152442152Y-89677857D02*
X152775485Y-89677857D01*
X152775485Y-89677857D02*
X152965961Y-89725476D01*
X152965961Y-89725476D02*
X153061200Y-89820714D01*
X153061200Y-89820714D02*
X153108819Y-89915952D01*
X153108819Y-89915952D02*
X153108819Y-90106428D01*
X152204057Y-89296904D02*
X152156438Y-89249285D01*
X152156438Y-89249285D02*
X152108819Y-89154047D01*
X152108819Y-89154047D02*
X152108819Y-88915952D01*
X152108819Y-88915952D02*
X152156438Y-88820714D01*
X152156438Y-88820714D02*
X152204057Y-88773095D01*
X152204057Y-88773095D02*
X152299295Y-88725476D01*
X152299295Y-88725476D02*
X152394533Y-88725476D01*
X152394533Y-88725476D02*
X152537390Y-88773095D01*
X152537390Y-88773095D02*
X153108819Y-89344523D01*
X153108819Y-89344523D02*
X153108819Y-88725476D01*
X128661761Y-90180057D02*
X128566523Y-90132438D01*
X128566523Y-90132438D02*
X128471285Y-90037200D01*
X128471285Y-90037200D02*
X128328428Y-89894342D01*
X128328428Y-89894342D02*
X128233190Y-89846723D01*
X128233190Y-89846723D02*
X128137952Y-89846723D01*
X128185571Y-90084819D02*
X128090333Y-90037200D01*
X128090333Y-90037200D02*
X127995095Y-89941961D01*
X127995095Y-89941961D02*
X127947476Y-89751485D01*
X127947476Y-89751485D02*
X127947476Y-89418152D01*
X127947476Y-89418152D02*
X127995095Y-89227676D01*
X127995095Y-89227676D02*
X128090333Y-89132438D01*
X128090333Y-89132438D02*
X128185571Y-89084819D01*
X128185571Y-89084819D02*
X128376047Y-89084819D01*
X128376047Y-89084819D02*
X128471285Y-89132438D01*
X128471285Y-89132438D02*
X128566523Y-89227676D01*
X128566523Y-89227676D02*
X128614142Y-89418152D01*
X128614142Y-89418152D02*
X128614142Y-89751485D01*
X128614142Y-89751485D02*
X128566523Y-89941961D01*
X128566523Y-89941961D02*
X128471285Y-90037200D01*
X128471285Y-90037200D02*
X128376047Y-90084819D01*
X128376047Y-90084819D02*
X128185571Y-90084819D01*
X128947476Y-89084819D02*
X129566523Y-89084819D01*
X129566523Y-89084819D02*
X129233190Y-89465771D01*
X129233190Y-89465771D02*
X129376047Y-89465771D01*
X129376047Y-89465771D02*
X129471285Y-89513390D01*
X129471285Y-89513390D02*
X129518904Y-89561009D01*
X129518904Y-89561009D02*
X129566523Y-89656247D01*
X129566523Y-89656247D02*
X129566523Y-89894342D01*
X129566523Y-89894342D02*
X129518904Y-89989580D01*
X129518904Y-89989580D02*
X129471285Y-90037200D01*
X129471285Y-90037200D02*
X129376047Y-90084819D01*
X129376047Y-90084819D02*
X129090333Y-90084819D01*
X129090333Y-90084819D02*
X128995095Y-90037200D01*
X128995095Y-90037200D02*
X128947476Y-89989580D01*
X154805142Y-83831581D02*
X154757523Y-83879201D01*
X154757523Y-83879201D02*
X154614666Y-83926820D01*
X154614666Y-83926820D02*
X154519428Y-83926820D01*
X154519428Y-83926820D02*
X154376571Y-83879201D01*
X154376571Y-83879201D02*
X154281333Y-83783962D01*
X154281333Y-83783962D02*
X154233714Y-83688724D01*
X154233714Y-83688724D02*
X154186095Y-83498248D01*
X154186095Y-83498248D02*
X154186095Y-83355391D01*
X154186095Y-83355391D02*
X154233714Y-83164915D01*
X154233714Y-83164915D02*
X154281333Y-83069677D01*
X154281333Y-83069677D02*
X154376571Y-82974439D01*
X154376571Y-82974439D02*
X154519428Y-82926820D01*
X154519428Y-82926820D02*
X154614666Y-82926820D01*
X154614666Y-82926820D02*
X154757523Y-82974439D01*
X154757523Y-82974439D02*
X154805142Y-83022058D01*
X155757523Y-83926820D02*
X155186095Y-83926820D01*
X155471809Y-83926820D02*
X155471809Y-82926820D01*
X155471809Y-82926820D02*
X155376571Y-83069677D01*
X155376571Y-83069677D02*
X155281333Y-83164915D01*
X155281333Y-83164915D02*
X155186095Y-83212534D01*
X156376571Y-82926820D02*
X156471809Y-82926820D01*
X156471809Y-82926820D02*
X156567047Y-82974439D01*
X156567047Y-82974439D02*
X156614666Y-83022058D01*
X156614666Y-83022058D02*
X156662285Y-83117296D01*
X156662285Y-83117296D02*
X156709904Y-83307772D01*
X156709904Y-83307772D02*
X156709904Y-83545867D01*
X156709904Y-83545867D02*
X156662285Y-83736343D01*
X156662285Y-83736343D02*
X156614666Y-83831581D01*
X156614666Y-83831581D02*
X156567047Y-83879201D01*
X156567047Y-83879201D02*
X156471809Y-83926820D01*
X156471809Y-83926820D02*
X156376571Y-83926820D01*
X156376571Y-83926820D02*
X156281333Y-83879201D01*
X156281333Y-83879201D02*
X156233714Y-83831581D01*
X156233714Y-83831581D02*
X156186095Y-83736343D01*
X156186095Y-83736343D02*
X156138476Y-83545867D01*
X156138476Y-83545867D02*
X156138476Y-83307772D01*
X156138476Y-83307772D02*
X156186095Y-83117296D01*
X156186095Y-83117296D02*
X156233714Y-83022058D01*
X156233714Y-83022058D02*
X156281333Y-82974439D01*
X156281333Y-82974439D02*
X156376571Y-82926820D01*
X132147819Y-76366666D02*
X131671628Y-76699999D01*
X132147819Y-76938094D02*
X131147819Y-76938094D01*
X131147819Y-76938094D02*
X131147819Y-76557142D01*
X131147819Y-76557142D02*
X131195438Y-76461904D01*
X131195438Y-76461904D02*
X131243057Y-76414285D01*
X131243057Y-76414285D02*
X131338295Y-76366666D01*
X131338295Y-76366666D02*
X131481152Y-76366666D01*
X131481152Y-76366666D02*
X131576390Y-76414285D01*
X131576390Y-76414285D02*
X131624009Y-76461904D01*
X131624009Y-76461904D02*
X131671628Y-76557142D01*
X131671628Y-76557142D02*
X131671628Y-76938094D01*
X132147819Y-75890475D02*
X132147819Y-75699999D01*
X132147819Y-75699999D02*
X132100200Y-75604761D01*
X132100200Y-75604761D02*
X132052580Y-75557142D01*
X132052580Y-75557142D02*
X131909723Y-75461904D01*
X131909723Y-75461904D02*
X131719247Y-75414285D01*
X131719247Y-75414285D02*
X131338295Y-75414285D01*
X131338295Y-75414285D02*
X131243057Y-75461904D01*
X131243057Y-75461904D02*
X131195438Y-75509523D01*
X131195438Y-75509523D02*
X131147819Y-75604761D01*
X131147819Y-75604761D02*
X131147819Y-75795237D01*
X131147819Y-75795237D02*
X131195438Y-75890475D01*
X131195438Y-75890475D02*
X131243057Y-75938094D01*
X131243057Y-75938094D02*
X131338295Y-75985713D01*
X131338295Y-75985713D02*
X131576390Y-75985713D01*
X131576390Y-75985713D02*
X131671628Y-75938094D01*
X131671628Y-75938094D02*
X131719247Y-75890475D01*
X131719247Y-75890475D02*
X131766866Y-75795237D01*
X131766866Y-75795237D02*
X131766866Y-75604761D01*
X131766866Y-75604761D02*
X131719247Y-75509523D01*
X131719247Y-75509523D02*
X131671628Y-75461904D01*
X131671628Y-75461904D02*
X131576390Y-75414285D01*
X139057142Y-79099580D02*
X139009523Y-79147200D01*
X139009523Y-79147200D02*
X138866666Y-79194819D01*
X138866666Y-79194819D02*
X138771428Y-79194819D01*
X138771428Y-79194819D02*
X138628571Y-79147200D01*
X138628571Y-79147200D02*
X138533333Y-79051961D01*
X138533333Y-79051961D02*
X138485714Y-78956723D01*
X138485714Y-78956723D02*
X138438095Y-78766247D01*
X138438095Y-78766247D02*
X138438095Y-78623390D01*
X138438095Y-78623390D02*
X138485714Y-78432914D01*
X138485714Y-78432914D02*
X138533333Y-78337676D01*
X138533333Y-78337676D02*
X138628571Y-78242438D01*
X138628571Y-78242438D02*
X138771428Y-78194819D01*
X138771428Y-78194819D02*
X138866666Y-78194819D01*
X138866666Y-78194819D02*
X139009523Y-78242438D01*
X139009523Y-78242438D02*
X139057142Y-78290057D01*
X139438095Y-78290057D02*
X139485714Y-78242438D01*
X139485714Y-78242438D02*
X139580952Y-78194819D01*
X139580952Y-78194819D02*
X139819047Y-78194819D01*
X139819047Y-78194819D02*
X139914285Y-78242438D01*
X139914285Y-78242438D02*
X139961904Y-78290057D01*
X139961904Y-78290057D02*
X140009523Y-78385295D01*
X140009523Y-78385295D02*
X140009523Y-78480533D01*
X140009523Y-78480533D02*
X139961904Y-78623390D01*
X139961904Y-78623390D02*
X139390476Y-79194819D01*
X139390476Y-79194819D02*
X140009523Y-79194819D01*
X140961904Y-79194819D02*
X140390476Y-79194819D01*
X140676190Y-79194819D02*
X140676190Y-78194819D01*
X140676190Y-78194819D02*
X140580952Y-78337676D01*
X140580952Y-78337676D02*
X140485714Y-78432914D01*
X140485714Y-78432914D02*
X140390476Y-78480533D01*
X157948333Y-100530819D02*
X157615000Y-100054628D01*
X157376905Y-100530819D02*
X157376905Y-99530819D01*
X157376905Y-99530819D02*
X157757857Y-99530819D01*
X157757857Y-99530819D02*
X157853095Y-99578438D01*
X157853095Y-99578438D02*
X157900714Y-99626057D01*
X157900714Y-99626057D02*
X157948333Y-99721295D01*
X157948333Y-99721295D02*
X157948333Y-99864152D01*
X157948333Y-99864152D02*
X157900714Y-99959390D01*
X157900714Y-99959390D02*
X157853095Y-100007009D01*
X157853095Y-100007009D02*
X157757857Y-100054628D01*
X157757857Y-100054628D02*
X157376905Y-100054628D01*
X158281667Y-99530819D02*
X158948333Y-99530819D01*
X158948333Y-99530819D02*
X158519762Y-100530819D01*
X163409333Y-95482580D02*
X163361714Y-95530200D01*
X163361714Y-95530200D02*
X163218857Y-95577819D01*
X163218857Y-95577819D02*
X163123619Y-95577819D01*
X163123619Y-95577819D02*
X162980762Y-95530200D01*
X162980762Y-95530200D02*
X162885524Y-95434961D01*
X162885524Y-95434961D02*
X162837905Y-95339723D01*
X162837905Y-95339723D02*
X162790286Y-95149247D01*
X162790286Y-95149247D02*
X162790286Y-95006390D01*
X162790286Y-95006390D02*
X162837905Y-94815914D01*
X162837905Y-94815914D02*
X162885524Y-94720676D01*
X162885524Y-94720676D02*
X162980762Y-94625438D01*
X162980762Y-94625438D02*
X163123619Y-94577819D01*
X163123619Y-94577819D02*
X163218857Y-94577819D01*
X163218857Y-94577819D02*
X163361714Y-94625438D01*
X163361714Y-94625438D02*
X163409333Y-94673057D01*
X164314095Y-94577819D02*
X163837905Y-94577819D01*
X163837905Y-94577819D02*
X163790286Y-95054009D01*
X163790286Y-95054009D02*
X163837905Y-95006390D01*
X163837905Y-95006390D02*
X163933143Y-94958771D01*
X163933143Y-94958771D02*
X164171238Y-94958771D01*
X164171238Y-94958771D02*
X164266476Y-95006390D01*
X164266476Y-95006390D02*
X164314095Y-95054009D01*
X164314095Y-95054009D02*
X164361714Y-95149247D01*
X164361714Y-95149247D02*
X164361714Y-95387342D01*
X164361714Y-95387342D02*
X164314095Y-95482580D01*
X164314095Y-95482580D02*
X164266476Y-95530200D01*
X164266476Y-95530200D02*
X164171238Y-95577819D01*
X164171238Y-95577819D02*
X163933143Y-95577819D01*
X163933143Y-95577819D02*
X163837905Y-95530200D01*
X163837905Y-95530200D02*
X163790286Y-95482580D01*
X163409333Y-91782580D02*
X163361714Y-91830200D01*
X163361714Y-91830200D02*
X163218857Y-91877819D01*
X163218857Y-91877819D02*
X163123619Y-91877819D01*
X163123619Y-91877819D02*
X162980762Y-91830200D01*
X162980762Y-91830200D02*
X162885524Y-91734961D01*
X162885524Y-91734961D02*
X162837905Y-91639723D01*
X162837905Y-91639723D02*
X162790286Y-91449247D01*
X162790286Y-91449247D02*
X162790286Y-91306390D01*
X162790286Y-91306390D02*
X162837905Y-91115914D01*
X162837905Y-91115914D02*
X162885524Y-91020676D01*
X162885524Y-91020676D02*
X162980762Y-90925438D01*
X162980762Y-90925438D02*
X163123619Y-90877819D01*
X163123619Y-90877819D02*
X163218857Y-90877819D01*
X163218857Y-90877819D02*
X163361714Y-90925438D01*
X163361714Y-90925438D02*
X163409333Y-90973057D01*
X164266476Y-90877819D02*
X164076000Y-90877819D01*
X164076000Y-90877819D02*
X163980762Y-90925438D01*
X163980762Y-90925438D02*
X163933143Y-90973057D01*
X163933143Y-90973057D02*
X163837905Y-91115914D01*
X163837905Y-91115914D02*
X163790286Y-91306390D01*
X163790286Y-91306390D02*
X163790286Y-91687342D01*
X163790286Y-91687342D02*
X163837905Y-91782580D01*
X163837905Y-91782580D02*
X163885524Y-91830200D01*
X163885524Y-91830200D02*
X163980762Y-91877819D01*
X163980762Y-91877819D02*
X164171238Y-91877819D01*
X164171238Y-91877819D02*
X164266476Y-91830200D01*
X164266476Y-91830200D02*
X164314095Y-91782580D01*
X164314095Y-91782580D02*
X164361714Y-91687342D01*
X164361714Y-91687342D02*
X164361714Y-91449247D01*
X164361714Y-91449247D02*
X164314095Y-91354009D01*
X164314095Y-91354009D02*
X164266476Y-91306390D01*
X164266476Y-91306390D02*
X164171238Y-91258771D01*
X164171238Y-91258771D02*
X163980762Y-91258771D01*
X163980762Y-91258771D02*
X163885524Y-91306390D01*
X163885524Y-91306390D02*
X163837905Y-91354009D01*
X163837905Y-91354009D02*
X163790286Y-91449247D01*
D10*
X144740333Y-89103419D02*
X144264143Y-89103419D01*
X144264143Y-89103419D02*
X144264143Y-88103419D01*
X145597476Y-89103419D02*
X145026048Y-89103419D01*
X145311762Y-89103419D02*
X145311762Y-88103419D01*
X145311762Y-88103419D02*
X145216524Y-88246276D01*
X145216524Y-88246276D02*
X145121286Y-88341514D01*
X145121286Y-88341514D02*
X145026048Y-88389133D01*
D11*
X163409333Y-94085580D02*
X163361714Y-94133200D01*
X163361714Y-94133200D02*
X163218857Y-94180819D01*
X163218857Y-94180819D02*
X163123619Y-94180819D01*
X163123619Y-94180819D02*
X162980762Y-94133200D01*
X162980762Y-94133200D02*
X162885524Y-94037961D01*
X162885524Y-94037961D02*
X162837905Y-93942723D01*
X162837905Y-93942723D02*
X162790286Y-93752247D01*
X162790286Y-93752247D02*
X162790286Y-93609390D01*
X162790286Y-93609390D02*
X162837905Y-93418914D01*
X162837905Y-93418914D02*
X162885524Y-93323676D01*
X162885524Y-93323676D02*
X162980762Y-93228438D01*
X162980762Y-93228438D02*
X163123619Y-93180819D01*
X163123619Y-93180819D02*
X163218857Y-93180819D01*
X163218857Y-93180819D02*
X163361714Y-93228438D01*
X163361714Y-93228438D02*
X163409333Y-93276057D01*
X163742667Y-93180819D02*
X164409333Y-93180819D01*
X164409333Y-93180819D02*
X163980762Y-94180819D01*
X130476666Y-73114819D02*
X130476666Y-73829104D01*
X130476666Y-73829104D02*
X130429047Y-73971961D01*
X130429047Y-73971961D02*
X130333809Y-74067200D01*
X130333809Y-74067200D02*
X130190952Y-74114819D01*
X130190952Y-74114819D02*
X130095714Y-74114819D01*
X130905238Y-73210057D02*
X130952857Y-73162438D01*
X130952857Y-73162438D02*
X131048095Y-73114819D01*
X131048095Y-73114819D02*
X131286190Y-73114819D01*
X131286190Y-73114819D02*
X131381428Y-73162438D01*
X131381428Y-73162438D02*
X131429047Y-73210057D01*
X131429047Y-73210057D02*
X131476666Y-73305295D01*
X131476666Y-73305295D02*
X131476666Y-73400533D01*
X131476666Y-73400533D02*
X131429047Y-73543390D01*
X131429047Y-73543390D02*
X130857619Y-74114819D01*
X130857619Y-74114819D02*
X131476666Y-74114819D01*
X163409333Y-96879580D02*
X163361714Y-96927200D01*
X163361714Y-96927200D02*
X163218857Y-96974819D01*
X163218857Y-96974819D02*
X163123619Y-96974819D01*
X163123619Y-96974819D02*
X162980762Y-96927200D01*
X162980762Y-96927200D02*
X162885524Y-96831961D01*
X162885524Y-96831961D02*
X162837905Y-96736723D01*
X162837905Y-96736723D02*
X162790286Y-96546247D01*
X162790286Y-96546247D02*
X162790286Y-96403390D01*
X162790286Y-96403390D02*
X162837905Y-96212914D01*
X162837905Y-96212914D02*
X162885524Y-96117676D01*
X162885524Y-96117676D02*
X162980762Y-96022438D01*
X162980762Y-96022438D02*
X163123619Y-95974819D01*
X163123619Y-95974819D02*
X163218857Y-95974819D01*
X163218857Y-95974819D02*
X163361714Y-96022438D01*
X163361714Y-96022438D02*
X163409333Y-96070057D01*
X163980762Y-96403390D02*
X163885524Y-96355771D01*
X163885524Y-96355771D02*
X163837905Y-96308152D01*
X163837905Y-96308152D02*
X163790286Y-96212914D01*
X163790286Y-96212914D02*
X163790286Y-96165295D01*
X163790286Y-96165295D02*
X163837905Y-96070057D01*
X163837905Y-96070057D02*
X163885524Y-96022438D01*
X163885524Y-96022438D02*
X163980762Y-95974819D01*
X163980762Y-95974819D02*
X164171238Y-95974819D01*
X164171238Y-95974819D02*
X164266476Y-96022438D01*
X164266476Y-96022438D02*
X164314095Y-96070057D01*
X164314095Y-96070057D02*
X164361714Y-96165295D01*
X164361714Y-96165295D02*
X164361714Y-96212914D01*
X164361714Y-96212914D02*
X164314095Y-96308152D01*
X164314095Y-96308152D02*
X164266476Y-96355771D01*
X164266476Y-96355771D02*
X164171238Y-96403390D01*
X164171238Y-96403390D02*
X163980762Y-96403390D01*
X163980762Y-96403390D02*
X163885524Y-96451009D01*
X163885524Y-96451009D02*
X163837905Y-96498628D01*
X163837905Y-96498628D02*
X163790286Y-96593866D01*
X163790286Y-96593866D02*
X163790286Y-96784342D01*
X163790286Y-96784342D02*
X163837905Y-96879580D01*
X163837905Y-96879580D02*
X163885524Y-96927200D01*
X163885524Y-96927200D02*
X163980762Y-96974819D01*
X163980762Y-96974819D02*
X164171238Y-96974819D01*
X164171238Y-96974819D02*
X164266476Y-96927200D01*
X164266476Y-96927200D02*
X164314095Y-96879580D01*
X164314095Y-96879580D02*
X164361714Y-96784342D01*
X164361714Y-96784342D02*
X164361714Y-96593866D01*
X164361714Y-96593866D02*
X164314095Y-96498628D01*
X164314095Y-96498628D02*
X164266476Y-96451009D01*
X164266476Y-96451009D02*
X164171238Y-96403390D01*
X134852580Y-86113857D02*
X134900200Y-86161476D01*
X134900200Y-86161476D02*
X134947819Y-86304333D01*
X134947819Y-86304333D02*
X134947819Y-86399571D01*
X134947819Y-86399571D02*
X134900200Y-86542428D01*
X134900200Y-86542428D02*
X134804961Y-86637666D01*
X134804961Y-86637666D02*
X134709723Y-86685285D01*
X134709723Y-86685285D02*
X134519247Y-86732904D01*
X134519247Y-86732904D02*
X134376390Y-86732904D01*
X134376390Y-86732904D02*
X134185914Y-86685285D01*
X134185914Y-86685285D02*
X134090676Y-86637666D01*
X134090676Y-86637666D02*
X133995438Y-86542428D01*
X133995438Y-86542428D02*
X133947819Y-86399571D01*
X133947819Y-86399571D02*
X133947819Y-86304333D01*
X133947819Y-86304333D02*
X133995438Y-86161476D01*
X133995438Y-86161476D02*
X134043057Y-86113857D01*
X134947819Y-85161476D02*
X134947819Y-85732904D01*
X134947819Y-85447190D02*
X133947819Y-85447190D01*
X133947819Y-85447190D02*
X134090676Y-85542428D01*
X134090676Y-85542428D02*
X134185914Y-85637666D01*
X134185914Y-85637666D02*
X134233533Y-85732904D01*
X134376390Y-84590047D02*
X134328771Y-84685285D01*
X134328771Y-84685285D02*
X134281152Y-84732904D01*
X134281152Y-84732904D02*
X134185914Y-84780523D01*
X134185914Y-84780523D02*
X134138295Y-84780523D01*
X134138295Y-84780523D02*
X134043057Y-84732904D01*
X134043057Y-84732904D02*
X133995438Y-84685285D01*
X133995438Y-84685285D02*
X133947819Y-84590047D01*
X133947819Y-84590047D02*
X133947819Y-84399571D01*
X133947819Y-84399571D02*
X133995438Y-84304333D01*
X133995438Y-84304333D02*
X134043057Y-84256714D01*
X134043057Y-84256714D02*
X134138295Y-84209095D01*
X134138295Y-84209095D02*
X134185914Y-84209095D01*
X134185914Y-84209095D02*
X134281152Y-84256714D01*
X134281152Y-84256714D02*
X134328771Y-84304333D01*
X134328771Y-84304333D02*
X134376390Y-84399571D01*
X134376390Y-84399571D02*
X134376390Y-84590047D01*
X134376390Y-84590047D02*
X134424009Y-84685285D01*
X134424009Y-84685285D02*
X134471628Y-84732904D01*
X134471628Y-84732904D02*
X134566866Y-84780523D01*
X134566866Y-84780523D02*
X134757342Y-84780523D01*
X134757342Y-84780523D02*
X134852580Y-84732904D01*
X134852580Y-84732904D02*
X134900200Y-84685285D01*
X134900200Y-84685285D02*
X134947819Y-84590047D01*
X134947819Y-84590047D02*
X134947819Y-84399571D01*
X134947819Y-84399571D02*
X134900200Y-84304333D01*
X134900200Y-84304333D02*
X134852580Y-84256714D01*
X134852580Y-84256714D02*
X134757342Y-84209095D01*
X134757342Y-84209095D02*
X134566866Y-84209095D01*
X134566866Y-84209095D02*
X134471628Y-84256714D01*
X134471628Y-84256714D02*
X134424009Y-84304333D01*
X134424009Y-84304333D02*
X134376390Y-84399571D01*
X115135819Y-97289857D02*
X114659628Y-97623190D01*
X115135819Y-97861285D02*
X114135819Y-97861285D01*
X114135819Y-97861285D02*
X114135819Y-97480333D01*
X114135819Y-97480333D02*
X114183438Y-97385095D01*
X114183438Y-97385095D02*
X114231057Y-97337476D01*
X114231057Y-97337476D02*
X114326295Y-97289857D01*
X114326295Y-97289857D02*
X114469152Y-97289857D01*
X114469152Y-97289857D02*
X114564390Y-97337476D01*
X114564390Y-97337476D02*
X114612009Y-97385095D01*
X114612009Y-97385095D02*
X114659628Y-97480333D01*
X114659628Y-97480333D02*
X114659628Y-97861285D01*
X115135819Y-96337476D02*
X115135819Y-96908904D01*
X115135819Y-96623190D02*
X114135819Y-96623190D01*
X114135819Y-96623190D02*
X114278676Y-96718428D01*
X114278676Y-96718428D02*
X114373914Y-96813666D01*
X114373914Y-96813666D02*
X114421533Y-96908904D01*
X114469152Y-95480333D02*
X115135819Y-95480333D01*
X114088200Y-95718428D02*
X114802485Y-95956523D01*
X114802485Y-95956523D02*
X114802485Y-95337476D01*
X115689142Y-93926819D02*
X115355809Y-93450628D01*
X115117714Y-93926819D02*
X115117714Y-92926819D01*
X115117714Y-92926819D02*
X115498666Y-92926819D01*
X115498666Y-92926819D02*
X115593904Y-92974438D01*
X115593904Y-92974438D02*
X115641523Y-93022057D01*
X115641523Y-93022057D02*
X115689142Y-93117295D01*
X115689142Y-93117295D02*
X115689142Y-93260152D01*
X115689142Y-93260152D02*
X115641523Y-93355390D01*
X115641523Y-93355390D02*
X115593904Y-93403009D01*
X115593904Y-93403009D02*
X115498666Y-93450628D01*
X115498666Y-93450628D02*
X115117714Y-93450628D01*
X116641523Y-93926819D02*
X116070095Y-93926819D01*
X116355809Y-93926819D02*
X116355809Y-92926819D01*
X116355809Y-92926819D02*
X116260571Y-93069676D01*
X116260571Y-93069676D02*
X116165333Y-93164914D01*
X116165333Y-93164914D02*
X116070095Y-93212533D01*
X116974857Y-92926819D02*
X117593904Y-92926819D01*
X117593904Y-92926819D02*
X117260571Y-93307771D01*
X117260571Y-93307771D02*
X117403428Y-93307771D01*
X117403428Y-93307771D02*
X117498666Y-93355390D01*
X117498666Y-93355390D02*
X117546285Y-93403009D01*
X117546285Y-93403009D02*
X117593904Y-93498247D01*
X117593904Y-93498247D02*
X117593904Y-93736342D01*
X117593904Y-93736342D02*
X117546285Y-93831580D01*
X117546285Y-93831580D02*
X117498666Y-93879200D01*
X117498666Y-93879200D02*
X117403428Y-93926819D01*
X117403428Y-93926819D02*
X117117714Y-93926819D01*
X117117714Y-93926819D02*
X117022476Y-93879200D01*
X117022476Y-93879200D02*
X116974857Y-93831580D01*
X128770142Y-75924580D02*
X128722523Y-75972200D01*
X128722523Y-75972200D02*
X128579666Y-76019819D01*
X128579666Y-76019819D02*
X128484428Y-76019819D01*
X128484428Y-76019819D02*
X128341571Y-75972200D01*
X128341571Y-75972200D02*
X128246333Y-75876961D01*
X128246333Y-75876961D02*
X128198714Y-75781723D01*
X128198714Y-75781723D02*
X128151095Y-75591247D01*
X128151095Y-75591247D02*
X128151095Y-75448390D01*
X128151095Y-75448390D02*
X128198714Y-75257914D01*
X128198714Y-75257914D02*
X128246333Y-75162676D01*
X128246333Y-75162676D02*
X128341571Y-75067438D01*
X128341571Y-75067438D02*
X128484428Y-75019819D01*
X128484428Y-75019819D02*
X128579666Y-75019819D01*
X128579666Y-75019819D02*
X128722523Y-75067438D01*
X128722523Y-75067438D02*
X128770142Y-75115057D01*
X129722523Y-76019819D02*
X129151095Y-76019819D01*
X129436809Y-76019819D02*
X129436809Y-75019819D01*
X129436809Y-75019819D02*
X129341571Y-75162676D01*
X129341571Y-75162676D02*
X129246333Y-75257914D01*
X129246333Y-75257914D02*
X129151095Y-75305533D01*
X130627285Y-75019819D02*
X130151095Y-75019819D01*
X130151095Y-75019819D02*
X130103476Y-75496009D01*
X130103476Y-75496009D02*
X130151095Y-75448390D01*
X130151095Y-75448390D02*
X130246333Y-75400771D01*
X130246333Y-75400771D02*
X130484428Y-75400771D01*
X130484428Y-75400771D02*
X130579666Y-75448390D01*
X130579666Y-75448390D02*
X130627285Y-75496009D01*
X130627285Y-75496009D02*
X130674904Y-75591247D01*
X130674904Y-75591247D02*
X130674904Y-75829342D01*
X130674904Y-75829342D02*
X130627285Y-75924580D01*
X130627285Y-75924580D02*
X130579666Y-75972200D01*
X130579666Y-75972200D02*
X130484428Y-76019819D01*
X130484428Y-76019819D02*
X130246333Y-76019819D01*
X130246333Y-76019819D02*
X130151095Y-75972200D01*
X130151095Y-75972200D02*
X130103476Y-75924580D01*
%TO.C,J3*%
D12*
X137053000Y-61937000D02*
X137053000Y-73657000D01*
X137053000Y-73657000D02*
X138473000Y-73657000D01*
X138473000Y-69157000D02*
X142113000Y-69157000D01*
X138473000Y-73657000D02*
X138473000Y-69157000D01*
X142113000Y-61937000D02*
X137053000Y-61937000D01*
X142113000Y-61937000D02*
X147173000Y-61937000D01*
X144313000Y-73347000D02*
X144613000Y-72747000D01*
X144613000Y-72747000D02*
X144913000Y-73347000D01*
X144913000Y-73347000D02*
X144313000Y-73347000D01*
X145753000Y-69157000D02*
X142113000Y-69157000D01*
X145753000Y-73657000D02*
X145753000Y-69157000D01*
X147173000Y-61937000D02*
X147173000Y-73657000D01*
X147173000Y-73657000D02*
X145753000Y-73657000D01*
X139363000Y-62547000D02*
X139863000Y-62547000D01*
X139863000Y-68047000D01*
X139363000Y-68047000D01*
X139363000Y-62547000D01*
X141863000Y-62547000D02*
X142363000Y-62547000D01*
X142363000Y-68047000D01*
X141863000Y-68047000D01*
X141863000Y-62547000D01*
X144363000Y-62547000D02*
X144863000Y-62547000D01*
X144863000Y-68047000D01*
X144363000Y-68047000D01*
X144363000Y-62547000D01*
%TO.C,U1*%
X155747000Y-92882000D02*
X156222000Y-92882000D01*
X155747000Y-93357000D02*
X155747000Y-92882000D01*
X155747000Y-96602000D02*
X155747000Y-96127000D01*
X156222000Y-96602000D02*
X155747000Y-96602000D01*
X158992000Y-92882000D02*
X159467000Y-92882000D01*
X159467000Y-92882000D02*
X159467000Y-93357000D01*
X159467000Y-96127000D02*
X159467000Y-96602000D01*
X159467000Y-96602000D02*
X158992000Y-96602000D01*
X158607000Y-92352000D02*
X158367000Y-92022000D01*
X158847000Y-92022000D01*
X158607000Y-92352000D01*
G36*
X158607000Y-92352000D02*
G01*
X158367000Y-92022000D01*
X158847000Y-92022000D01*
X158607000Y-92352000D01*
G37*
%TO.C,C17*%
X132619000Y-80838252D02*
X132619000Y-79415748D01*
X135339000Y-80838252D02*
X135339000Y-79415748D01*
%TO.C,R6*%
X156465000Y-98271359D02*
X156465000Y-98578641D01*
X157225000Y-98271359D02*
X157225000Y-98578641D01*
%TO.C,J6*%
X165341000Y-73934000D02*
X165341000Y-75354000D01*
X165341000Y-75354000D02*
X169841000Y-75354000D01*
X165341000Y-82634000D02*
X169841000Y-82634000D01*
X165341000Y-84054000D02*
X165341000Y-82634000D01*
X165651000Y-81194000D02*
X166251000Y-81494000D01*
X165651000Y-81794000D02*
X165651000Y-81194000D01*
X166251000Y-81494000D02*
X165651000Y-81794000D01*
X169841000Y-75354000D02*
X169841000Y-78994000D01*
X169841000Y-82634000D02*
X169841000Y-78994000D01*
X177061000Y-73934000D02*
X165341000Y-73934000D01*
X177061000Y-78994000D02*
X177061000Y-73934000D01*
X177061000Y-78994000D02*
X177061000Y-84054000D01*
X177061000Y-84054000D02*
X165341000Y-84054000D01*
X170951000Y-76244000D02*
X176451000Y-76244000D01*
X176451000Y-76744000D01*
X170951000Y-76744000D01*
X170951000Y-76244000D01*
X170951000Y-78744000D02*
X176451000Y-78744000D01*
X176451000Y-79244000D01*
X170951000Y-79244000D01*
X170951000Y-78744000D01*
X170951000Y-81244000D02*
X176451000Y-81244000D01*
X176451000Y-81744000D01*
X170951000Y-81744000D01*
X170951000Y-81244000D01*
%TO.C,C3*%
X156231000Y-90697164D02*
X156231000Y-90912836D01*
X156951000Y-90697164D02*
X156951000Y-90912836D01*
%TO.C,U2*%
X157459000Y-84579001D02*
X159279000Y-84579001D01*
X157459000Y-84629001D02*
X157459000Y-84579001D01*
X157459000Y-87699001D02*
X157459000Y-87649001D01*
X159279000Y-84579001D02*
X159279000Y-84629001D01*
X159279000Y-87649001D02*
X159279000Y-87699001D01*
X159279000Y-87699001D02*
X157459000Y-87699001D01*
X160059000Y-87979001D02*
X159579000Y-87979001D01*
X159819000Y-87649001D01*
X160059000Y-87979001D01*
G36*
X160059000Y-87979001D02*
G01*
X159579000Y-87979001D01*
X159819000Y-87649001D01*
X160059000Y-87979001D01*
G37*
%TO.C,D1*%
X132744000Y-75165000D02*
X132744000Y-75965000D01*
X134104000Y-75165000D02*
X132744000Y-75165000D01*
X134104000Y-75965000D02*
X132744000Y-75965000D01*
%TO.C,D3*%
X143666000Y-75165000D02*
X143666000Y-75965000D01*
X145026000Y-75165000D02*
X143666000Y-75165000D01*
X145026000Y-75965000D02*
X143666000Y-75965000D01*
%TO.C,D4*%
X118326000Y-99160000D02*
X120611000Y-99160000D01*
X120611000Y-97690000D02*
X118326000Y-97690000D01*
X120611000Y-99160000D02*
X120611000Y-97690000D01*
%TO.C,J10*%
X107589000Y-75686000D02*
X107589000Y-77326000D01*
X107589000Y-77326000D02*
X109089000Y-77326000D01*
X107589000Y-79646000D02*
X107589000Y-81286000D01*
X107589000Y-81286000D02*
X109089000Y-81286000D01*
X109089000Y-75496000D02*
X115289000Y-75496000D01*
X109089000Y-75686000D02*
X107589000Y-75686000D01*
X109089000Y-79646000D02*
X107589000Y-79646000D01*
X109089000Y-81476000D02*
X109089000Y-75496000D01*
X115289000Y-74446000D02*
X118709000Y-74446000D01*
X115289000Y-75496000D02*
X115289000Y-74446000D01*
X115289000Y-81476000D02*
X109089000Y-81476000D01*
X115289000Y-82526000D02*
X115289000Y-81476000D01*
X118709000Y-74446000D02*
X118709000Y-82526000D01*
X118709000Y-82526000D02*
X115289000Y-82526000D01*
X124209000Y-74896000D02*
X122599000Y-74896000D01*
X124209000Y-76506000D02*
X124209000Y-74896000D01*
%TO.C,J1*%
X114447000Y-61937000D02*
X114447000Y-73657000D01*
X114447000Y-73657000D02*
X115867000Y-73657000D01*
X115867000Y-69157000D02*
X119507000Y-69157000D01*
X115867000Y-73657000D02*
X115867000Y-69157000D01*
X119507000Y-61937000D02*
X114447000Y-61937000D01*
X119507000Y-61937000D02*
X124567000Y-61937000D01*
X121707000Y-73347000D02*
X122007000Y-72747000D01*
X122007000Y-72747000D02*
X122307000Y-73347000D01*
X122307000Y-73347000D02*
X121707000Y-73347000D01*
X123147000Y-69157000D02*
X119507000Y-69157000D01*
X123147000Y-73657000D02*
X123147000Y-69157000D01*
X124567000Y-61937000D02*
X124567000Y-73657000D01*
X124567000Y-73657000D02*
X123147000Y-73657000D01*
X116757000Y-62547000D02*
X117257000Y-62547000D01*
X117257000Y-68047000D01*
X116757000Y-68047000D01*
X116757000Y-62547000D01*
X119257000Y-62547000D02*
X119757000Y-62547000D01*
X119757000Y-68047000D01*
X119257000Y-68047000D01*
X119257000Y-62547000D01*
X121757000Y-62547000D02*
X122257000Y-62547000D01*
X122257000Y-68047000D01*
X121757000Y-68047000D01*
X121757000Y-62547000D01*
%TO.C,R4*%
X161697641Y-97283000D02*
X161390359Y-97283000D01*
X161697641Y-98043000D02*
X161390359Y-98043000D01*
%TO.C,D2*%
X118139000Y-92564000D02*
X118139000Y-93364000D01*
X119499000Y-92564000D02*
X118139000Y-92564000D01*
X119499000Y-93364000D02*
X118139000Y-93364000D01*
%TO.C,C24*%
X152271000Y-95109420D02*
X152271000Y-95390580D01*
X153291000Y-95109420D02*
X153291000Y-95390580D01*
%TO.C,C9*%
X158771000Y-90912836D02*
X158771000Y-90697164D01*
X159491000Y-90912836D02*
X159491000Y-90697164D01*
%TO.C,Q1*%
X146413000Y-93989000D02*
X146413000Y-99669000D01*
X151783000Y-93989000D02*
X151783000Y-100109000D01*
X146677730Y-100180622D02*
X146347730Y-100420622D01*
X146347730Y-99940622D01*
X146677730Y-100180622D01*
G36*
X146677730Y-100180622D02*
G01*
X146347730Y-100420622D01*
X146347730Y-99940622D01*
X146677730Y-100180622D01*
G37*
%TO.C,U4*%
D13*
X129085633Y-82169000D02*
X129474367Y-82169000D01*
%TO.C,D5*%
D12*
X118326000Y-95604000D02*
X120611000Y-95604000D01*
X120611000Y-94134000D02*
X118326000Y-94134000D01*
X120611000Y-95604000D02*
X120611000Y-94134000D01*
%TO.C,R12*%
X116485641Y-98045000D02*
X116178359Y-98045000D01*
X116485641Y-98805000D02*
X116178359Y-98805000D01*
%TO.C,C23*%
X148920252Y-81063000D02*
X147497748Y-81063000D01*
X148920252Y-83783000D02*
X147497748Y-83783000D01*
%TO.C,R2*%
X159386000Y-98578641D02*
X159386000Y-98271359D01*
X160146000Y-98578641D02*
X160146000Y-98271359D01*
%TO.C,R3*%
X161697641Y-92203000D02*
X161390359Y-92203000D01*
X161697641Y-92963000D02*
X161390359Y-92963000D01*
%TO.C,L2*%
X127613000Y-82665000D02*
X133233000Y-82665000D01*
X133233000Y-88785000D02*
X127613000Y-88785000D01*
%TO.C,J11*%
X107589000Y-84830000D02*
X107589000Y-86470000D01*
X107589000Y-86470000D02*
X109089000Y-86470000D01*
X107589000Y-88790000D02*
X107589000Y-90430000D01*
X107589000Y-90430000D02*
X109089000Y-90430000D01*
X109089000Y-84640000D02*
X115289000Y-84640000D01*
X109089000Y-84830000D02*
X107589000Y-84830000D01*
X109089000Y-88790000D02*
X107589000Y-88790000D01*
X109089000Y-90620000D02*
X109089000Y-84640000D01*
X115289000Y-83590000D02*
X118709000Y-83590000D01*
X115289000Y-84640000D02*
X115289000Y-83590000D01*
X115289000Y-90620000D02*
X109089000Y-90620000D01*
X115289000Y-91670000D02*
X115289000Y-90620000D01*
X118709000Y-83590000D02*
X118709000Y-91670000D01*
X118709000Y-91670000D02*
X115289000Y-91670000D01*
X124209000Y-84040000D02*
X122599000Y-84040000D01*
X124209000Y-85650000D02*
X124209000Y-84040000D01*
%TO.C,C4*%
X153795000Y-96125420D02*
X153795000Y-96406580D01*
X154815000Y-96125420D02*
X154815000Y-96406580D01*
%TO.C,R5*%
X163729641Y-97283000D02*
X163422359Y-97283000D01*
X163729641Y-98043000D02*
X163422359Y-98043000D01*
%TO.C,C12*%
X160780000Y-86279581D02*
X160780000Y-85998421D01*
X161800000Y-86279581D02*
X161800000Y-85998421D01*
%TO.C,C20*%
X151518500Y-76638500D02*
X152306000Y-76638500D01*
X151912250Y-76244750D02*
X151912250Y-77032250D01*
X152546000Y-76140437D02*
X152546000Y-77426000D01*
X152546000Y-76140437D02*
X153610437Y-75076000D01*
X152546000Y-80831563D02*
X152546000Y-79546000D01*
X152546000Y-80831563D02*
X153610437Y-81896000D01*
X153610437Y-75076000D02*
X159366000Y-75076000D01*
X153610437Y-81896000D02*
X159366000Y-81896000D01*
X159366000Y-75076000D02*
X159366000Y-77426000D01*
X159366000Y-81896000D02*
X159366000Y-79546000D01*
%TO.C,C14*%
X125507000Y-80848252D02*
X125507000Y-79425748D01*
X128227000Y-80848252D02*
X128227000Y-79425748D01*
%TO.C,J7*%
X165341000Y-84856000D02*
X165341000Y-86276000D01*
X165341000Y-86276000D02*
X169841000Y-86276000D01*
X165341000Y-93556000D02*
X169841000Y-93556000D01*
X165341000Y-94976000D02*
X165341000Y-93556000D01*
X165651000Y-92116000D02*
X166251000Y-92416000D01*
X165651000Y-92716000D02*
X165651000Y-92116000D01*
X166251000Y-92416000D02*
X165651000Y-92716000D01*
X169841000Y-86276000D02*
X169841000Y-89916000D01*
X169841000Y-93556000D02*
X169841000Y-89916000D01*
X177061000Y-84856000D02*
X165341000Y-84856000D01*
X177061000Y-89916000D02*
X177061000Y-84856000D01*
X177061000Y-89916000D02*
X177061000Y-94976000D01*
X177061000Y-94976000D02*
X165341000Y-94976000D01*
X170951000Y-87166000D02*
X176451000Y-87166000D01*
X176451000Y-87666000D01*
X170951000Y-87666000D01*
X170951000Y-87166000D01*
X170951000Y-89666000D02*
X176451000Y-89666000D01*
X176451000Y-90166000D01*
X170951000Y-90166000D01*
X170951000Y-89666000D01*
X170951000Y-92166000D02*
X176451000Y-92166000D01*
X176451000Y-92666000D01*
X170951000Y-92666000D01*
X170951000Y-92166000D01*
%TO.C,D6*%
X118326000Y-97382000D02*
X120611000Y-97382000D01*
X120611000Y-95912000D02*
X118326000Y-95912000D01*
X120611000Y-97382000D02*
X120611000Y-95912000D01*
%TO.C,C25*%
X148920252Y-77634000D02*
X147497748Y-77634000D01*
X148920252Y-80354000D02*
X147497748Y-80354000D01*
%TO.C,U3*%
X126660000Y-96561000D02*
X129880000Y-96561000D01*
X126660000Y-96686000D02*
X126660000Y-96561000D01*
X126660000Y-99781000D02*
X126660000Y-99656000D01*
X129880000Y-96561000D02*
X129880000Y-96686000D01*
X129880000Y-99656000D02*
X129880000Y-99781000D01*
X129880000Y-99781000D02*
X126660000Y-99781000D01*
X126110000Y-96681000D02*
X125870000Y-96351000D01*
X126350000Y-96351000D01*
X126110000Y-96681000D01*
G36*
X126110000Y-96681000D02*
G01*
X125870000Y-96351000D01*
X126350000Y-96351000D01*
X126110000Y-96681000D01*
G37*
%TO.C,C11*%
X154938000Y-86279581D02*
X154938000Y-85998421D01*
X155958000Y-86279581D02*
X155958000Y-85998421D01*
%TO.C,R8*%
X157481000Y-90958641D02*
X157481000Y-90651359D01*
X158241000Y-90958641D02*
X158241000Y-90651359D01*
%TO.C,C2*%
X153818000Y-93618164D02*
X153818000Y-93833836D01*
X154538000Y-93618164D02*
X154538000Y-93833836D01*
%TO.C,C13*%
X131951000Y-98030420D02*
X131951000Y-98311580D01*
X132971000Y-98030420D02*
X132971000Y-98311580D01*
%TO.C,J5*%
X159913000Y-61953000D02*
X159913000Y-73673000D01*
X159913000Y-73673000D02*
X161333000Y-73673000D01*
X161333000Y-69173000D02*
X164973000Y-69173000D01*
X161333000Y-73673000D02*
X161333000Y-69173000D01*
X164973000Y-61953000D02*
X159913000Y-61953000D01*
X164973000Y-61953000D02*
X170033000Y-61953000D01*
X167173000Y-73363000D02*
X167473000Y-72763000D01*
X167473000Y-72763000D02*
X167773000Y-73363000D01*
X167773000Y-73363000D02*
X167173000Y-73363000D01*
X168613000Y-69173000D02*
X164973000Y-69173000D01*
X168613000Y-73673000D02*
X168613000Y-69173000D01*
X170033000Y-61953000D02*
X170033000Y-73673000D01*
X170033000Y-73673000D02*
X168613000Y-73673000D01*
X162223000Y-62563000D02*
X162723000Y-62563000D01*
X162723000Y-68063000D01*
X162223000Y-68063000D01*
X162223000Y-62563000D01*
X164723000Y-62563000D02*
X165223000Y-62563000D01*
X165223000Y-68063000D01*
X164723000Y-68063000D01*
X164723000Y-62563000D01*
X167223000Y-62563000D02*
X167723000Y-62563000D01*
X167723000Y-68063000D01*
X167223000Y-68063000D01*
X167223000Y-62563000D01*
%TO.C,J4*%
X148483000Y-61937000D02*
X148483000Y-73657000D01*
X148483000Y-73657000D02*
X149903000Y-73657000D01*
X149903000Y-69157000D02*
X153543000Y-69157000D01*
X149903000Y-73657000D02*
X149903000Y-69157000D01*
X153543000Y-61937000D02*
X148483000Y-61937000D01*
X153543000Y-61937000D02*
X158603000Y-61937000D01*
X155743000Y-73347000D02*
X156043000Y-72747000D01*
X156043000Y-72747000D02*
X156343000Y-73347000D01*
X156343000Y-73347000D02*
X155743000Y-73347000D01*
X157183000Y-69157000D02*
X153543000Y-69157000D01*
X157183000Y-73657000D02*
X157183000Y-69157000D01*
X158603000Y-61937000D02*
X158603000Y-73657000D01*
X158603000Y-73657000D02*
X157183000Y-73657000D01*
X150793000Y-62547000D02*
X151293000Y-62547000D01*
X151293000Y-68047000D01*
X150793000Y-68047000D01*
X150793000Y-62547000D01*
X153293000Y-62547000D02*
X153793000Y-62547000D01*
X153793000Y-68047000D01*
X153293000Y-68047000D01*
X153293000Y-62547000D01*
X155793000Y-62547000D02*
X156293000Y-62547000D01*
X156293000Y-68047000D01*
X155793000Y-68047000D01*
X155793000Y-62547000D01*
%TO.C,Q2*%
X146413000Y-86369000D02*
X146413000Y-92049000D01*
X151783000Y-86369000D02*
X151783000Y-92489000D01*
X146677730Y-92560622D02*
X146347730Y-92800622D01*
X146347730Y-92320622D01*
X146677730Y-92560622D01*
G36*
X146677730Y-92560622D02*
G01*
X146347730Y-92800622D01*
X146347730Y-92320622D01*
X146677730Y-92560622D01*
G37*
%TO.C,Q3*%
X131817000Y-90445000D02*
X126137000Y-90445000D01*
X131817000Y-95815000D02*
X125697000Y-95815000D01*
X125625378Y-90709730D02*
X125385378Y-90379730D01*
X125865378Y-90379730D01*
X125625378Y-90709730D01*
G36*
X125625378Y-90709730D02*
G01*
X125385378Y-90379730D01*
X125865378Y-90379730D01*
X125625378Y-90709730D01*
G37*
%TO.C,C10*%
X158228420Y-82962001D02*
X158509580Y-82962001D01*
X158228420Y-83982001D02*
X158509580Y-83982001D01*
%TO.C,R9*%
X131313000Y-78078359D02*
X131313000Y-78385641D01*
X132073000Y-78078359D02*
X132073000Y-78385641D01*
%TO.C,C21*%
X138703000Y-79648000D02*
X141053000Y-79648000D01*
X138703000Y-85403563D02*
X138703000Y-79648000D01*
X139767437Y-86468000D02*
X138703000Y-85403563D01*
X139767437Y-86468000D02*
X141053000Y-86468000D01*
X139871750Y-87101750D02*
X140659250Y-87101750D01*
X140265500Y-87495500D02*
X140265500Y-86708000D01*
X144458563Y-86468000D02*
X143173000Y-86468000D01*
X144458563Y-86468000D02*
X145523000Y-85403563D01*
X145523000Y-79648000D02*
X143173000Y-79648000D01*
X145523000Y-85403563D02*
X145523000Y-79648000D01*
%TO.C,R7*%
X157735000Y-98578641D02*
X157735000Y-98271359D01*
X158495000Y-98578641D02*
X158495000Y-98271359D01*
%TO.C,C5*%
X161436164Y-95017000D02*
X161651836Y-95017000D01*
X161436164Y-95737000D02*
X161651836Y-95737000D01*
%TO.C,C6*%
X163468164Y-92223000D02*
X163683836Y-92223000D01*
X163468164Y-92943000D02*
X163683836Y-92943000D01*
%TO.C,L1*%
D10*
X135589000Y-89483000D02*
X135589000Y-99483000D01*
X135589000Y-89483000D02*
X137668000Y-89483000D01*
X135589000Y-99483000D02*
X137668000Y-99483000D01*
X145589000Y-89483000D02*
X143510000Y-89483000D01*
X145589000Y-89483000D02*
X145589000Y-99483000D01*
X145589000Y-99483000D02*
X143510000Y-99483000D01*
%TO.C,C7*%
D12*
X161436164Y-93366000D02*
X161651836Y-93366000D01*
X161436164Y-94086000D02*
X161651836Y-94086000D01*
%TO.C,J2*%
X125750000Y-61953000D02*
X125750000Y-73673000D01*
X125750000Y-73673000D02*
X127170000Y-73673000D01*
X127170000Y-69173000D02*
X130810000Y-69173000D01*
X127170000Y-73673000D02*
X127170000Y-69173000D01*
X130810000Y-61953000D02*
X125750000Y-61953000D01*
X130810000Y-61953000D02*
X135870000Y-61953000D01*
X133010000Y-73363000D02*
X133310000Y-72763000D01*
X133310000Y-72763000D02*
X133610000Y-73363000D01*
X133610000Y-73363000D02*
X133010000Y-73363000D01*
X134450000Y-69173000D02*
X130810000Y-69173000D01*
X134450000Y-73673000D02*
X134450000Y-69173000D01*
X135870000Y-61953000D02*
X135870000Y-73673000D01*
X135870000Y-73673000D02*
X134450000Y-73673000D01*
X128060000Y-62563000D02*
X128560000Y-62563000D01*
X128560000Y-68063000D01*
X128060000Y-68063000D01*
X128060000Y-62563000D01*
X130560000Y-62563000D02*
X131060000Y-62563000D01*
X131060000Y-68063000D01*
X130560000Y-68063000D01*
X130560000Y-62563000D01*
X133060000Y-62563000D02*
X133560000Y-62563000D01*
X133560000Y-68063000D01*
X133060000Y-68063000D01*
X133060000Y-62563000D01*
%TO.C,C8*%
X161436164Y-96160000D02*
X161651836Y-96160000D01*
X161436164Y-96880000D02*
X161651836Y-96880000D01*
%TO.C,C18*%
X135419000Y-86182252D02*
X135419000Y-84759748D01*
X138139000Y-86182252D02*
X138139000Y-84759748D01*
%TO.C,R14*%
X116485641Y-96267000D02*
X116178359Y-96267000D01*
X116485641Y-97027000D02*
X116178359Y-97027000D01*
%TO.C,R13*%
X116485641Y-94489000D02*
X116178359Y-94489000D01*
X116485641Y-95249000D02*
X116178359Y-95249000D01*
%TO.C,C15*%
X128903000Y-77864580D02*
X128903000Y-77583420D01*
X129923000Y-77864580D02*
X129923000Y-77583420D01*
%TD*%
M02*
