%TF.GenerationSoftware,KiCad,Pcbnew,10.0.1*%
%TF.CreationDate,2026-05-31T21:53:17-07:00*%
%TF.ProjectId,A3_Modular_Power_Supply_v2,41335f4d-6f64-4756-9c61-725f506f7765,rev?*%
%TF.SameCoordinates,Original*%
%TF.FileFunction,Paste,Top*%
%TF.FilePolarity,Positive*%
%FSLAX46Y46*%
G04 Gerber Fmt 4.6, Leading zero omitted, Abs format (unit mm)*
G04 Created by KiCad (PCBNEW 10.0.1) date 2026-05-31 21:53:17*
%MOMM*%
%LPD*%
G01*
G04 APERTURE LIST*
G04 Aperture macros list*
%AMRoundRect*
0 Rectangle with rounded corners*
0 $1 Rounding radius*
0 $2 $3 $4 $5 $6 $7 $8 $9 X,Y pos of 4 corners*
0 Add a 4 corners polygon primitive as box body*
4,1,4,$2,$3,$4,$5,$6,$7,$8,$9,$2,$3,0*
0 Add four circle primitives for the rounded corners*
1,1,$1+$1,$2,$3*
1,1,$1+$1,$4,$5*
1,1,$1+$1,$6,$7*
1,1,$1+$1,$8,$9*
0 Add four rect primitives between the rounded corners*
20,1,$1+$1,$2,$3,$4,$5,0*
20,1,$1+$1,$4,$5,$6,$7,0*
20,1,$1+$1,$6,$7,$8,$9,0*
20,1,$1+$1,$8,$9,$2,$3,0*%
G04 Aperture macros list end*
%ADD10RoundRect,0.202500X-0.202500X0.202500X-0.202500X-0.202500X0.202500X-0.202500X0.202500X0.202500X0*%
%ADD11RoundRect,0.062500X-0.062500X0.375000X-0.062500X-0.375000X0.062500X-0.375000X0.062500X0.375000X0*%
%ADD12RoundRect,0.062500X-0.375000X0.062500X-0.375000X-0.062500X0.375000X-0.062500X0.375000X0.062500X0*%
%ADD13RoundRect,0.250000X1.100000X-0.325000X1.100000X0.325000X-1.100000X0.325000X-1.100000X-0.325000X0*%
%ADD14RoundRect,0.135000X-0.185000X0.135000X-0.185000X-0.135000X0.185000X-0.135000X0.185000X0.135000X0*%
%ADD15RoundRect,0.140000X-0.170000X0.140000X-0.170000X-0.140000X0.170000X-0.140000X0.170000X0.140000X0*%
%ADD16RoundRect,0.150000X0.512500X0.150000X-0.512500X0.150000X-0.512500X-0.150000X0.512500X-0.150000X0*%
%ADD17RoundRect,0.062500X0.117500X0.062500X-0.117500X0.062500X-0.117500X-0.062500X0.117500X-0.062500X0*%
%ADD18RoundRect,0.218750X0.218750X0.256250X-0.218750X0.256250X-0.218750X-0.256250X0.218750X-0.256250X0*%
%ADD19RoundRect,0.135000X0.135000X0.185000X-0.135000X0.185000X-0.135000X-0.185000X0.135000X-0.185000X0*%
%ADD20RoundRect,0.225000X-0.250000X0.225000X-0.250000X-0.225000X0.250000X-0.225000X0.250000X0.225000X0*%
%ADD21RoundRect,0.140000X0.170000X-0.140000X0.170000X0.140000X-0.170000X0.140000X-0.170000X-0.140000X0*%
%ADD22RoundRect,0.375000X0.375000X-0.375000X0.375000X0.375000X-0.375000X0.375000X-0.375000X-0.375000X0*%
%ADD23RoundRect,0.125000X0.125000X-0.250000X0.125000X0.250000X-0.125000X0.250000X-0.125000X-0.250000X0*%
%ADD24RoundRect,0.100000X0.100000X-0.275000X0.100000X0.275000X-0.100000X0.275000X-0.100000X-0.275000X0*%
%ADD25R,0.300000X0.925000*%
%ADD26R,0.675000X0.800000*%
%ADD27R,0.625000X0.300000*%
%ADD28R,0.300000X0.625000*%
%ADD29RoundRect,0.250000X0.325000X1.100000X-0.325000X1.100000X-0.325000X-1.100000X0.325000X-1.100000X0*%
%ADD30RoundRect,0.135000X0.185000X-0.135000X0.185000X0.135000X-0.185000X0.135000X-0.185000X-0.135000X0*%
%ADD31RoundRect,0.250000X-0.600000X-2.550000X0.600000X-2.550000X0.600000X2.550000X-0.600000X2.550000X0*%
%ADD32RoundRect,0.225000X0.250000X-0.225000X0.250000X0.225000X-0.250000X0.225000X-0.250000X-0.225000X0*%
%ADD33RoundRect,0.250000X-1.500000X-0.550000X1.500000X-0.550000X1.500000X0.550000X-1.500000X0.550000X0*%
%ADD34RoundRect,0.125000X-0.687500X-0.125000X0.687500X-0.125000X0.687500X0.125000X-0.687500X0.125000X0*%
%ADD35RoundRect,0.375000X-0.375000X-0.375000X0.375000X-0.375000X0.375000X0.375000X-0.375000X0.375000X0*%
%ADD36RoundRect,0.125000X-0.250000X-0.125000X0.250000X-0.125000X0.250000X0.125000X-0.250000X0.125000X0*%
%ADD37RoundRect,0.100000X-0.275000X-0.100000X0.275000X-0.100000X0.275000X0.100000X-0.275000X0.100000X0*%
%ADD38RoundRect,0.225000X-0.225000X-0.250000X0.225000X-0.250000X0.225000X0.250000X-0.225000X0.250000X0*%
%ADD39RoundRect,0.250000X0.550000X-1.500000X0.550000X1.500000X-0.550000X1.500000X-0.550000X-1.500000X0*%
%ADD40RoundRect,0.140000X-0.140000X-0.170000X0.140000X-0.170000X0.140000X0.170000X-0.140000X0.170000X0*%
%ADD41RoundRect,0.510000X-1.990000X1.190000X-1.990000X-1.190000X1.990000X-1.190000X1.990000X1.190000X0*%
G04 APERTURE END LIST*
D10*
%TO.C,U1*%
X158107000Y-94242000D03*
X157107000Y-94242000D03*
X158107000Y-95242000D03*
X157107000Y-95242000D03*
D11*
X158607000Y-93054500D03*
X158107000Y-93054500D03*
X157607000Y-93054500D03*
X157107000Y-93054500D03*
X156607000Y-93054500D03*
D12*
X155919500Y-93742000D03*
X155919500Y-94242000D03*
X155919500Y-94742000D03*
X155919500Y-95242000D03*
X155919500Y-95742000D03*
D11*
X156607000Y-96429500D03*
X157107000Y-96429500D03*
X157607000Y-96429500D03*
X158107000Y-96429500D03*
X158607000Y-96429500D03*
D12*
X159294500Y-95742000D03*
X159294500Y-95242000D03*
X159294500Y-94742000D03*
X159294500Y-94242000D03*
X159294500Y-93742000D03*
%TD*%
D13*
%TO.C,C17*%
X133979000Y-81602000D03*
X133979000Y-78652000D03*
%TD*%
D14*
%TO.C,R6*%
X156845000Y-97915000D03*
X156845000Y-98935000D03*
%TD*%
D15*
%TO.C,C3*%
X156591000Y-90325000D03*
X156591000Y-91285000D03*
%TD*%
D16*
%TO.C,U2*%
X159506500Y-87089001D03*
X159506500Y-86139001D03*
X159506500Y-85189001D03*
X157231500Y-85189001D03*
X157231500Y-86139001D03*
X157231500Y-87089001D03*
%TD*%
D17*
%TO.C,D1*%
X133184000Y-75565000D03*
X134024000Y-75565000D03*
%TD*%
%TO.C,D3*%
X144106000Y-75565000D03*
X144946000Y-75565000D03*
%TD*%
D18*
%TO.C,D4*%
X119913500Y-98425000D03*
X118338500Y-98425000D03*
%TD*%
D19*
%TO.C,R4*%
X162054000Y-97663000D03*
X161034000Y-97663000D03*
%TD*%
D17*
%TO.C,D2*%
X118579000Y-92964000D03*
X119419000Y-92964000D03*
%TD*%
D20*
%TO.C,C24*%
X152781000Y-94475000D03*
X152781000Y-96025000D03*
%TD*%
D21*
%TO.C,C9*%
X159131000Y-91285000D03*
X159131000Y-90325000D03*
%TD*%
D22*
%TO.C,Q1*%
X148248000Y-97249000D03*
X149948000Y-97249000D03*
X148248000Y-95549000D03*
X149948000Y-95549000D03*
D23*
X147193000Y-94144000D03*
X148463000Y-94144000D03*
X149733000Y-94144000D03*
X151003000Y-94144000D03*
D24*
X147193000Y-99949000D03*
X148463000Y-99949000D03*
X149733000Y-99949000D03*
X151003000Y-99949000D03*
%TD*%
D25*
%TO.C,U4*%
X129922874Y-81736500D03*
X130423000Y-81736500D03*
X130923126Y-81736500D03*
D26*
X131635501Y-81399063D03*
D27*
X131660501Y-80648937D03*
D28*
X131423252Y-79911500D03*
X130923126Y-79911500D03*
X130423000Y-79911500D03*
X129922874Y-79911500D03*
D27*
X129185499Y-80398937D03*
D26*
X129210499Y-81399063D03*
%TD*%
D18*
%TO.C,D5*%
X119913500Y-94869000D03*
X118338500Y-94869000D03*
%TD*%
D19*
%TO.C,R12*%
X116842000Y-98425000D03*
X115822000Y-98425000D03*
%TD*%
D29*
%TO.C,C23*%
X149684000Y-82423000D03*
X146734000Y-82423000D03*
%TD*%
D30*
%TO.C,R2*%
X159766000Y-98935000D03*
X159766000Y-97915000D03*
%TD*%
D19*
%TO.C,R3*%
X162054000Y-92583000D03*
X161034000Y-92583000D03*
%TD*%
D31*
%TO.C,L2*%
X128473000Y-85725000D03*
X132373000Y-85725000D03*
%TD*%
D20*
%TO.C,C4*%
X154305000Y-95491000D03*
X154305000Y-97041000D03*
%TD*%
D19*
%TO.C,R5*%
X164086000Y-97663000D03*
X163066000Y-97663000D03*
%TD*%
D32*
%TO.C,C12*%
X161290000Y-86914001D03*
X161290000Y-85364001D03*
%TD*%
D33*
%TO.C,C20*%
X153256000Y-78486000D03*
X158656000Y-78486000D03*
%TD*%
D13*
%TO.C,C14*%
X126867000Y-81612000D03*
X126867000Y-78662000D03*
%TD*%
D18*
%TO.C,D6*%
X119913500Y-96647000D03*
X118338500Y-96647000D03*
%TD*%
D29*
%TO.C,C25*%
X149684000Y-78994000D03*
X146734000Y-78994000D03*
%TD*%
D34*
%TO.C,U3*%
X126157500Y-97196000D03*
X126157500Y-97846000D03*
X126157500Y-98496000D03*
X126157500Y-99146000D03*
X130382500Y-99146000D03*
X130382500Y-98496000D03*
X130382500Y-97846000D03*
X130382500Y-97196000D03*
%TD*%
D32*
%TO.C,C11*%
X155448000Y-86914001D03*
X155448000Y-85364001D03*
%TD*%
D30*
%TO.C,R8*%
X157861000Y-91315000D03*
X157861000Y-90295000D03*
%TD*%
D15*
%TO.C,C2*%
X154178000Y-93246000D03*
X154178000Y-94206000D03*
%TD*%
D20*
%TO.C,C13*%
X132461000Y-97396000D03*
X132461000Y-98946000D03*
%TD*%
D22*
%TO.C,Q2*%
X148248000Y-89629000D03*
X149948000Y-89629000D03*
X148248000Y-87929000D03*
X149948000Y-87929000D03*
D23*
X147193000Y-86524000D03*
X148463000Y-86524000D03*
X149733000Y-86524000D03*
X151003000Y-86524000D03*
D24*
X147193000Y-92329000D03*
X148463000Y-92329000D03*
X149733000Y-92329000D03*
X151003000Y-92329000D03*
%TD*%
D35*
%TO.C,Q3*%
X128557000Y-92280000D03*
X128557000Y-93980000D03*
X130257000Y-92280000D03*
X130257000Y-93980000D03*
D36*
X131662000Y-91225000D03*
X131662000Y-92495000D03*
X131662000Y-93765000D03*
X131662000Y-95035000D03*
D37*
X125857000Y-91225000D03*
X125857000Y-92495000D03*
X125857000Y-93765000D03*
X125857000Y-95035000D03*
%TD*%
D38*
%TO.C,C10*%
X157594000Y-83472001D03*
X159144000Y-83472001D03*
%TD*%
D14*
%TO.C,R9*%
X131693000Y-77722000D03*
X131693000Y-78742000D03*
%TD*%
D39*
%TO.C,C21*%
X142113000Y-85758000D03*
X142113000Y-80358000D03*
%TD*%
D30*
%TO.C,R7*%
X158115000Y-98935000D03*
X158115000Y-97915000D03*
%TD*%
D40*
%TO.C,C5*%
X161064000Y-95377000D03*
X162024000Y-95377000D03*
%TD*%
%TO.C,C6*%
X163096000Y-92583000D03*
X164056000Y-92583000D03*
%TD*%
D41*
%TO.C,L1*%
X140589000Y-90033000D03*
X140589000Y-98933000D03*
%TD*%
D40*
%TO.C,C7*%
X161064000Y-93726000D03*
X162024000Y-93726000D03*
%TD*%
%TO.C,C8*%
X161064000Y-96520000D03*
X162024000Y-96520000D03*
%TD*%
D13*
%TO.C,C18*%
X136779000Y-86946000D03*
X136779000Y-83996000D03*
%TD*%
D19*
%TO.C,R14*%
X116842000Y-96647000D03*
X115822000Y-96647000D03*
%TD*%
%TO.C,R13*%
X116842000Y-94869000D03*
X115822000Y-94869000D03*
%TD*%
D32*
%TO.C,C15*%
X129413000Y-78499000D03*
X129413000Y-76949000D03*
%TD*%
M02*
