%TF.GenerationSoftware,KiCad,Pcbnew,9.0.4*%
%TF.CreationDate,2026-01-13T12:17:02-08:00*%
%TF.ProjectId,A3_Modular_Power_Supply,41335f4d-6f64-4756-9c61-725f506f7765,rev?*%
%TF.SameCoordinates,Original*%
%TF.FileFunction,Paste,Top*%
%TF.FilePolarity,Positive*%
%FSLAX46Y46*%
G04 Gerber Fmt 4.6, Leading zero omitted, Abs format (unit mm)*
G04 Created by KiCad (PCBNEW 9.0.4) date 2026-01-13 12:17:02*
%MOMM*%
%LPD*%
G01*
G04 APERTURE LIST*
G04 Aperture macros list*
%AMRoundRect*
0 Rectangle with rounded corners*
0 $1 Rounding radius*
0 $2 $3 $4 $5 $6 $7 $8 $9 X,Y pos of 4 corners*
0 Add a 4 corners polygon primitive as box body*
4,1,4,$2,$3,$4,$5,$6,$7,$8,$9,$2,$3,0*
0 Add four circle primitives for the rounded corners*
1,1,$1+$1,$2,$3*
1,1,$1+$1,$4,$5*
1,1,$1+$1,$6,$7*
1,1,$1+$1,$8,$9*
0 Add four rect primitives between the rounded corners*
20,1,$1+$1,$2,$3,$4,$5,0*
20,1,$1+$1,$4,$5,$6,$7,0*
20,1,$1+$1,$6,$7,$8,$9,0*
20,1,$1+$1,$8,$9,$2,$3,0*%
G04 Aperture macros list end*
%ADD10RoundRect,0.250000X2.550000X-0.600000X2.550000X0.600000X-2.550000X0.600000X-2.550000X-0.600000X0*%
%ADD11RoundRect,0.218750X0.218750X0.256250X-0.218750X0.256250X-0.218750X-0.256250X0.218750X-0.256250X0*%
%ADD12RoundRect,0.250000X0.650000X-0.325000X0.650000X0.325000X-0.650000X0.325000X-0.650000X-0.325000X0*%
%ADD13RoundRect,0.218750X-0.218750X-0.256250X0.218750X-0.256250X0.218750X0.256250X-0.218750X0.256250X0*%
%ADD14RoundRect,0.218750X-0.256250X0.218750X-0.256250X-0.218750X0.256250X-0.218750X0.256250X0.218750X0*%
%ADD15R,0.925000X0.300000*%
%ADD16R,0.800000X0.675000*%
%ADD17R,0.300000X0.625000*%
%ADD18R,0.625000X0.300000*%
%ADD19R,5.410200X3.759200*%
%ADD20R,1.447800X1.346200*%
%ADD21RoundRect,0.225000X-0.225000X-0.250000X0.225000X-0.250000X0.225000X0.250000X-0.225000X0.250000X0*%
%ADD22RoundRect,0.250000X-0.325000X-0.650000X0.325000X-0.650000X0.325000X0.650000X-0.325000X0.650000X0*%
%ADD23RoundRect,0.250000X-0.475000X0.250000X-0.475000X-0.250000X0.475000X-0.250000X0.475000X0.250000X0*%
%ADD24R,5.500000X1.450000*%
%ADD25RoundRect,0.225000X0.250000X-0.225000X0.250000X0.225000X-0.250000X0.225000X-0.250000X-0.225000X0*%
%ADD26RoundRect,0.200000X-0.275000X0.200000X-0.275000X-0.200000X0.275000X-0.200000X0.275000X0.200000X0*%
%ADD27RoundRect,0.200000X0.200000X0.275000X-0.200000X0.275000X-0.200000X-0.275000X0.200000X-0.275000X0*%
%ADD28RoundRect,0.062500X0.062500X-0.117500X0.062500X0.117500X-0.062500X0.117500X-0.062500X-0.117500X0*%
%ADD29RoundRect,0.062500X-0.117500X-0.062500X0.117500X-0.062500X0.117500X0.062500X-0.117500X0.062500X0*%
%ADD30RoundRect,0.200000X-0.200000X-0.275000X0.200000X-0.275000X0.200000X0.275000X-0.200000X0.275000X0*%
%ADD31RoundRect,0.100000X0.500000X0.100000X-0.500000X0.100000X-0.500000X-0.100000X0.500000X-0.100000X0*%
%ADD32RoundRect,0.200000X0.275000X-0.200000X0.275000X0.200000X-0.275000X0.200000X-0.275000X-0.200000X0*%
G04 APERTURE END LIST*
D10*
%TO.C,L1*%
X162246000Y-87040000D03*
X162246000Y-83140000D03*
%TD*%
D11*
%TO.C,D6*%
X169856250Y-91440000D03*
X168281250Y-91440000D03*
%TD*%
D12*
%TO.C,C10*%
X147002500Y-89227000D03*
X147002500Y-86277000D03*
%TD*%
D13*
%TO.C,F12*%
X128498500Y-76454000D03*
X130073500Y-76454000D03*
%TD*%
D14*
%TO.C,F9*%
X170815000Y-68427500D03*
X170815000Y-70002500D03*
%TD*%
%TO.C,F2*%
X129286000Y-68427500D03*
X129286000Y-70002500D03*
%TD*%
D15*
%TO.C,U1*%
X158257500Y-85590126D03*
X158257500Y-85090000D03*
X158257500Y-84589874D03*
D16*
X157920063Y-83877499D03*
D17*
X157169937Y-83852499D03*
D18*
X156432500Y-84089748D03*
X156432500Y-84589874D03*
X156432500Y-85090000D03*
X156432500Y-85590126D03*
D17*
X156919937Y-86327501D03*
D16*
X157920063Y-86302501D03*
%TD*%
D14*
%TO.C,F3*%
X140208000Y-68427500D03*
X140208000Y-70002500D03*
%TD*%
D19*
%TO.C,D4*%
X130009900Y-91313000D03*
D20*
X126225300Y-90248001D03*
X126225300Y-92377999D03*
%TD*%
D14*
%TO.C,F10*%
X168275000Y-68427500D03*
X168275000Y-70002500D03*
%TD*%
D21*
%TO.C,C8*%
X138353500Y-77846000D03*
X139903500Y-77846000D03*
%TD*%
D14*
%TO.C,F7*%
X162306000Y-68427500D03*
X162306000Y-70002500D03*
%TD*%
%TO.C,F1*%
X131445000Y-68427500D03*
X131445000Y-70002500D03*
%TD*%
D22*
%TO.C,C2*%
X157674000Y-80645000D03*
X160624000Y-80645000D03*
%TD*%
D23*
%TO.C,C4*%
X154704000Y-87188000D03*
X154704000Y-89088000D03*
%TD*%
D21*
%TO.C,C5*%
X138861500Y-82799000D03*
X140411500Y-82799000D03*
%TD*%
D12*
%TO.C,C7*%
X143954500Y-81607000D03*
X143954500Y-78657000D03*
%TD*%
D14*
%TO.C,F8*%
X159766000Y-68427500D03*
X159766000Y-70002500D03*
%TD*%
%TO.C,F5*%
X151257000Y-68427500D03*
X151257000Y-70002500D03*
%TD*%
D11*
%TO.C,F14*%
X171475500Y-73914000D03*
X169900500Y-73914000D03*
%TD*%
D14*
%TO.C,F6*%
X148717000Y-68427500D03*
X148717000Y-70002500D03*
%TD*%
D24*
%TO.C,L2*%
X139509500Y-89244000D03*
X139509500Y-85244000D03*
%TD*%
D22*
%TO.C,C1*%
X157674000Y-89535000D03*
X160624000Y-89535000D03*
%TD*%
D25*
%TO.C,C12*%
X141922500Y-80653000D03*
X141922500Y-79103000D03*
%TD*%
D26*
%TO.C,R5*%
X136779000Y-76137000D03*
X136779000Y-77787000D03*
%TD*%
D27*
%TO.C,R4*%
X175227750Y-93218000D03*
X173577750Y-93218000D03*
%TD*%
D28*
%TO.C,D1*%
X151003000Y-83693000D03*
X151003000Y-84533000D03*
%TD*%
D14*
%TO.C,F4*%
X137668000Y-68427500D03*
X137668000Y-70002500D03*
%TD*%
D12*
%TO.C,C6*%
X144462500Y-89227000D03*
X144462500Y-86277000D03*
%TD*%
D11*
%TO.C,D5*%
X169856250Y-89662000D03*
X168281250Y-89662000D03*
%TD*%
D27*
%TO.C,R2*%
X139953500Y-76233000D03*
X138303500Y-76233000D03*
%TD*%
D29*
%TO.C,D2*%
X160077000Y-75819000D03*
X159237000Y-75819000D03*
%TD*%
D30*
%TO.C,R7*%
X173577750Y-91440000D03*
X175227750Y-91440000D03*
%TD*%
D11*
%TO.C,D3*%
X169856250Y-93218000D03*
X168281250Y-93218000D03*
%TD*%
D13*
%TO.C,F11*%
X128498500Y-73914000D03*
X130073500Y-73914000D03*
%TD*%
D31*
%TO.C,U2*%
X139920500Y-81234000D03*
X139920500Y-80584000D03*
X139920500Y-79934000D03*
X139920500Y-79284000D03*
X137320500Y-79284000D03*
X137320500Y-79934000D03*
X137320500Y-80584000D03*
X137320500Y-81234000D03*
%TD*%
D32*
%TO.C,R3*%
X135128000Y-77787000D03*
X135128000Y-76137000D03*
%TD*%
D12*
%TO.C,C11*%
X149034500Y-81607000D03*
X149034500Y-78657000D03*
%TD*%
D22*
%TO.C,C3*%
X157674000Y-78105000D03*
X160624000Y-78105000D03*
%TD*%
D11*
%TO.C,F13*%
X171475500Y-76454000D03*
X169900500Y-76454000D03*
%TD*%
D12*
%TO.C,C9*%
X146494500Y-81607000D03*
X146494500Y-78657000D03*
%TD*%
D32*
%TO.C,R1*%
X154450000Y-85661000D03*
X154450000Y-84011000D03*
%TD*%
D30*
%TO.C,R6*%
X173577750Y-89662000D03*
X175227750Y-89662000D03*
%TD*%
M02*
