%TF.GenerationSoftware,KiCad,Pcbnew,9.0.4*%
%TF.CreationDate,2026-01-13T12:17:02-08:00*%
%TF.ProjectId,A3_Modular_Power_Supply,41335f4d-6f64-4756-9c61-725f506f7765,rev?*%
%TF.SameCoordinates,Original*%
%TF.FileFunction,Legend,Top*%
%TF.FilePolarity,Positive*%
%FSLAX46Y46*%
G04 Gerber Fmt 4.6, Leading zero omitted, Abs format (unit mm)*
G04 Created by KiCad (PCBNEW 9.0.4) date 2026-01-13 12:17:02*
%MOMM*%
%LPD*%
G01*
G04 APERTURE LIST*
%ADD10C,0.100000*%
%ADD11C,0.250000*%
%ADD12C,0.150000*%
%ADD13C,0.120000*%
%ADD14C,0.152400*%
G04 APERTURE END LIST*
D10*
X167386000Y-88646000D02*
X170751500Y-88646000D01*
X170751500Y-94234000D01*
X167386000Y-94234000D01*
X167386000Y-88646000D01*
X163068000Y-90551000D02*
X167386000Y-90551000D01*
X167386000Y-92329000D01*
X163068000Y-92329000D01*
X163068000Y-90551000D01*
X163068000Y-92329000D02*
X167386000Y-92329000D01*
X167386000Y-94234000D01*
X163068000Y-94234000D01*
X163068000Y-92329000D01*
X163068000Y-88646000D02*
X167386000Y-88646000D01*
X167386000Y-90551000D01*
X163068000Y-90551000D01*
X163068000Y-88646000D01*
D11*
X167507336Y-85474666D02*
X165983527Y-85474666D01*
X166745431Y-84712761D02*
X166745431Y-86236571D01*
X132593663Y-81403333D02*
X134117473Y-81403333D01*
X133355568Y-82165238D02*
X133355568Y-80641428D01*
D10*
X163879884Y-93852419D02*
X163879884Y-92852419D01*
X163879884Y-92852419D02*
X164260836Y-92852419D01*
X164260836Y-92852419D02*
X164356074Y-92900038D01*
X164356074Y-92900038D02*
X164403693Y-92947657D01*
X164403693Y-92947657D02*
X164451312Y-93042895D01*
X164451312Y-93042895D02*
X164451312Y-93185752D01*
X164451312Y-93185752D02*
X164403693Y-93280990D01*
X164403693Y-93280990D02*
X164356074Y-93328609D01*
X164356074Y-93328609D02*
X164260836Y-93376228D01*
X164260836Y-93376228D02*
X163879884Y-93376228D01*
X164784646Y-92852419D02*
X165022741Y-93852419D01*
X165022741Y-93852419D02*
X165213217Y-93138133D01*
X165213217Y-93138133D02*
X165403693Y-93852419D01*
X165403693Y-93852419D02*
X165641789Y-92852419D01*
X166594169Y-93852419D02*
X166260836Y-93376228D01*
X166022741Y-93852419D02*
X166022741Y-92852419D01*
X166022741Y-92852419D02*
X166403693Y-92852419D01*
X166403693Y-92852419D02*
X166498931Y-92900038D01*
X166498931Y-92900038D02*
X166546550Y-92947657D01*
X166546550Y-92947657D02*
X166594169Y-93042895D01*
X166594169Y-93042895D02*
X166594169Y-93185752D01*
X166594169Y-93185752D02*
X166546550Y-93280990D01*
X166546550Y-93280990D02*
X166498931Y-93328609D01*
X166498931Y-93328609D02*
X166403693Y-93376228D01*
X166403693Y-93376228D02*
X166022741Y-93376228D01*
X164991074Y-89042419D02*
X164514884Y-89042419D01*
X164514884Y-89042419D02*
X164467265Y-89518609D01*
X164467265Y-89518609D02*
X164514884Y-89470990D01*
X164514884Y-89470990D02*
X164610122Y-89423371D01*
X164610122Y-89423371D02*
X164848217Y-89423371D01*
X164848217Y-89423371D02*
X164943455Y-89470990D01*
X164943455Y-89470990D02*
X164991074Y-89518609D01*
X164991074Y-89518609D02*
X165038693Y-89613847D01*
X165038693Y-89613847D02*
X165038693Y-89851942D01*
X165038693Y-89851942D02*
X164991074Y-89947180D01*
X164991074Y-89947180D02*
X164943455Y-89994800D01*
X164943455Y-89994800D02*
X164848217Y-90042419D01*
X164848217Y-90042419D02*
X164610122Y-90042419D01*
X164610122Y-90042419D02*
X164514884Y-89994800D01*
X164514884Y-89994800D02*
X164467265Y-89947180D01*
X165324408Y-89042419D02*
X165657741Y-90042419D01*
X165657741Y-90042419D02*
X165991074Y-89042419D01*
X163911646Y-90947419D02*
X164530693Y-90947419D01*
X164530693Y-90947419D02*
X164197360Y-91328371D01*
X164197360Y-91328371D02*
X164340217Y-91328371D01*
X164340217Y-91328371D02*
X164435455Y-91375990D01*
X164435455Y-91375990D02*
X164483074Y-91423609D01*
X164483074Y-91423609D02*
X164530693Y-91518847D01*
X164530693Y-91518847D02*
X164530693Y-91756942D01*
X164530693Y-91756942D02*
X164483074Y-91852180D01*
X164483074Y-91852180D02*
X164435455Y-91899800D01*
X164435455Y-91899800D02*
X164340217Y-91947419D01*
X164340217Y-91947419D02*
X164054503Y-91947419D01*
X164054503Y-91947419D02*
X163959265Y-91899800D01*
X163959265Y-91899800D02*
X163911646Y-91852180D01*
X164959265Y-91852180D02*
X165006884Y-91899800D01*
X165006884Y-91899800D02*
X164959265Y-91947419D01*
X164959265Y-91947419D02*
X164911646Y-91899800D01*
X164911646Y-91899800D02*
X164959265Y-91852180D01*
X164959265Y-91852180D02*
X164959265Y-91947419D01*
X165340217Y-90947419D02*
X165959264Y-90947419D01*
X165959264Y-90947419D02*
X165625931Y-91328371D01*
X165625931Y-91328371D02*
X165768788Y-91328371D01*
X165768788Y-91328371D02*
X165864026Y-91375990D01*
X165864026Y-91375990D02*
X165911645Y-91423609D01*
X165911645Y-91423609D02*
X165959264Y-91518847D01*
X165959264Y-91518847D02*
X165959264Y-91756942D01*
X165959264Y-91756942D02*
X165911645Y-91852180D01*
X165911645Y-91852180D02*
X165864026Y-91899800D01*
X165864026Y-91899800D02*
X165768788Y-91947419D01*
X165768788Y-91947419D02*
X165483074Y-91947419D01*
X165483074Y-91947419D02*
X165387836Y-91899800D01*
X165387836Y-91899800D02*
X165340217Y-91852180D01*
X166244979Y-90947419D02*
X166578312Y-91947419D01*
X166578312Y-91947419D02*
X166911645Y-90947419D01*
D11*
X132593663Y-85340333D02*
X134117473Y-85340333D01*
X167507336Y-81537666D02*
X165983527Y-81537666D01*
D12*
X164443333Y-81861819D02*
X163967143Y-81861819D01*
X163967143Y-81861819D02*
X163967143Y-80861819D01*
X165300476Y-81861819D02*
X164729048Y-81861819D01*
X165014762Y-81861819D02*
X165014762Y-80861819D01*
X165014762Y-80861819D02*
X164919524Y-81004676D01*
X164919524Y-81004676D02*
X164824286Y-81099914D01*
X164824286Y-81099914D02*
X164729048Y-81147533D01*
X171124655Y-91894819D02*
X171124655Y-90894819D01*
X171124655Y-90894819D02*
X171362750Y-90894819D01*
X171362750Y-90894819D02*
X171505607Y-90942438D01*
X171505607Y-90942438D02*
X171600845Y-91037676D01*
X171600845Y-91037676D02*
X171648464Y-91132914D01*
X171648464Y-91132914D02*
X171696083Y-91323390D01*
X171696083Y-91323390D02*
X171696083Y-91466247D01*
X171696083Y-91466247D02*
X171648464Y-91656723D01*
X171648464Y-91656723D02*
X171600845Y-91751961D01*
X171600845Y-91751961D02*
X171505607Y-91847200D01*
X171505607Y-91847200D02*
X171362750Y-91894819D01*
X171362750Y-91894819D02*
X171124655Y-91894819D01*
X172553226Y-90894819D02*
X172362750Y-90894819D01*
X172362750Y-90894819D02*
X172267512Y-90942438D01*
X172267512Y-90942438D02*
X172219893Y-90990057D01*
X172219893Y-90990057D02*
X172124655Y-91132914D01*
X172124655Y-91132914D02*
X172077036Y-91323390D01*
X172077036Y-91323390D02*
X172077036Y-91704342D01*
X172077036Y-91704342D02*
X172124655Y-91799580D01*
X172124655Y-91799580D02*
X172172274Y-91847200D01*
X172172274Y-91847200D02*
X172267512Y-91894819D01*
X172267512Y-91894819D02*
X172457988Y-91894819D01*
X172457988Y-91894819D02*
X172553226Y-91847200D01*
X172553226Y-91847200D02*
X172600845Y-91799580D01*
X172600845Y-91799580D02*
X172648464Y-91704342D01*
X172648464Y-91704342D02*
X172648464Y-91466247D01*
X172648464Y-91466247D02*
X172600845Y-91371009D01*
X172600845Y-91371009D02*
X172553226Y-91323390D01*
X172553226Y-91323390D02*
X172457988Y-91275771D01*
X172457988Y-91275771D02*
X172267512Y-91275771D01*
X172267512Y-91275771D02*
X172172274Y-91323390D01*
X172172274Y-91323390D02*
X172124655Y-91371009D01*
X172124655Y-91371009D02*
X172077036Y-91466247D01*
X147362080Y-84589857D02*
X147409700Y-84637476D01*
X147409700Y-84637476D02*
X147457319Y-84780333D01*
X147457319Y-84780333D02*
X147457319Y-84875571D01*
X147457319Y-84875571D02*
X147409700Y-85018428D01*
X147409700Y-85018428D02*
X147314461Y-85113666D01*
X147314461Y-85113666D02*
X147219223Y-85161285D01*
X147219223Y-85161285D02*
X147028747Y-85208904D01*
X147028747Y-85208904D02*
X146885890Y-85208904D01*
X146885890Y-85208904D02*
X146695414Y-85161285D01*
X146695414Y-85161285D02*
X146600176Y-85113666D01*
X146600176Y-85113666D02*
X146504938Y-85018428D01*
X146504938Y-85018428D02*
X146457319Y-84875571D01*
X146457319Y-84875571D02*
X146457319Y-84780333D01*
X146457319Y-84780333D02*
X146504938Y-84637476D01*
X146504938Y-84637476D02*
X146552557Y-84589857D01*
X147457319Y-83637476D02*
X147457319Y-84208904D01*
X147457319Y-83923190D02*
X146457319Y-83923190D01*
X146457319Y-83923190D02*
X146600176Y-84018428D01*
X146600176Y-84018428D02*
X146695414Y-84113666D01*
X146695414Y-84113666D02*
X146743033Y-84208904D01*
X146457319Y-83018428D02*
X146457319Y-82923190D01*
X146457319Y-82923190D02*
X146504938Y-82827952D01*
X146504938Y-82827952D02*
X146552557Y-82780333D01*
X146552557Y-82780333D02*
X146647795Y-82732714D01*
X146647795Y-82732714D02*
X146838271Y-82685095D01*
X146838271Y-82685095D02*
X147076366Y-82685095D01*
X147076366Y-82685095D02*
X147266842Y-82732714D01*
X147266842Y-82732714D02*
X147362080Y-82780333D01*
X147362080Y-82780333D02*
X147409700Y-82827952D01*
X147409700Y-82827952D02*
X147457319Y-82923190D01*
X147457319Y-82923190D02*
X147457319Y-83018428D01*
X147457319Y-83018428D02*
X147409700Y-83113666D01*
X147409700Y-83113666D02*
X147362080Y-83161285D01*
X147362080Y-83161285D02*
X147266842Y-83208904D01*
X147266842Y-83208904D02*
X147076366Y-83256523D01*
X147076366Y-83256523D02*
X146838271Y-83256523D01*
X146838271Y-83256523D02*
X146647795Y-83208904D01*
X146647795Y-83208904D02*
X146552557Y-83161285D01*
X146552557Y-83161285D02*
X146504938Y-83113666D01*
X146504938Y-83113666D02*
X146457319Y-83018428D01*
X128476476Y-77909009D02*
X128143143Y-77909009D01*
X128143143Y-78432819D02*
X128143143Y-77432819D01*
X128143143Y-77432819D02*
X128619333Y-77432819D01*
X129524095Y-78432819D02*
X128952667Y-78432819D01*
X129238381Y-78432819D02*
X129238381Y-77432819D01*
X129238381Y-77432819D02*
X129143143Y-77575676D01*
X129143143Y-77575676D02*
X129047905Y-77670914D01*
X129047905Y-77670914D02*
X128952667Y-77718533D01*
X129905048Y-77528057D02*
X129952667Y-77480438D01*
X129952667Y-77480438D02*
X130047905Y-77432819D01*
X130047905Y-77432819D02*
X130286000Y-77432819D01*
X130286000Y-77432819D02*
X130381238Y-77480438D01*
X130381238Y-77480438D02*
X130428857Y-77528057D01*
X130428857Y-77528057D02*
X130476476Y-77623295D01*
X130476476Y-77623295D02*
X130476476Y-77718533D01*
X130476476Y-77718533D02*
X130428857Y-77861390D01*
X130428857Y-77861390D02*
X129857429Y-78432819D01*
X129857429Y-78432819D02*
X130476476Y-78432819D01*
X172270009Y-69548333D02*
X172270009Y-69881666D01*
X172793819Y-69881666D02*
X171793819Y-69881666D01*
X171793819Y-69881666D02*
X171793819Y-69405476D01*
X172793819Y-68976904D02*
X172793819Y-68786428D01*
X172793819Y-68786428D02*
X172746200Y-68691190D01*
X172746200Y-68691190D02*
X172698580Y-68643571D01*
X172698580Y-68643571D02*
X172555723Y-68548333D01*
X172555723Y-68548333D02*
X172365247Y-68500714D01*
X172365247Y-68500714D02*
X171984295Y-68500714D01*
X171984295Y-68500714D02*
X171889057Y-68548333D01*
X171889057Y-68548333D02*
X171841438Y-68595952D01*
X171841438Y-68595952D02*
X171793819Y-68691190D01*
X171793819Y-68691190D02*
X171793819Y-68881666D01*
X171793819Y-68881666D02*
X171841438Y-68976904D01*
X171841438Y-68976904D02*
X171889057Y-69024523D01*
X171889057Y-69024523D02*
X171984295Y-69072142D01*
X171984295Y-69072142D02*
X172222390Y-69072142D01*
X172222390Y-69072142D02*
X172317628Y-69024523D01*
X172317628Y-69024523D02*
X172365247Y-68976904D01*
X172365247Y-68976904D02*
X172412866Y-68881666D01*
X172412866Y-68881666D02*
X172412866Y-68691190D01*
X172412866Y-68691190D02*
X172365247Y-68595952D01*
X172365247Y-68595952D02*
X172317628Y-68548333D01*
X172317628Y-68548333D02*
X172222390Y-68500714D01*
X127820009Y-69548333D02*
X127820009Y-69881666D01*
X128343819Y-69881666D02*
X127343819Y-69881666D01*
X127343819Y-69881666D02*
X127343819Y-69405476D01*
X127439057Y-69072142D02*
X127391438Y-69024523D01*
X127391438Y-69024523D02*
X127343819Y-68929285D01*
X127343819Y-68929285D02*
X127343819Y-68691190D01*
X127343819Y-68691190D02*
X127391438Y-68595952D01*
X127391438Y-68595952D02*
X127439057Y-68548333D01*
X127439057Y-68548333D02*
X127534295Y-68500714D01*
X127534295Y-68500714D02*
X127629533Y-68500714D01*
X127629533Y-68500714D02*
X127772390Y-68548333D01*
X127772390Y-68548333D02*
X128343819Y-69119761D01*
X128343819Y-69119761D02*
X128343819Y-68500714D01*
X127682666Y-66002819D02*
X127682666Y-66717104D01*
X127682666Y-66717104D02*
X127635047Y-66859961D01*
X127635047Y-66859961D02*
X127539809Y-66955200D01*
X127539809Y-66955200D02*
X127396952Y-67002819D01*
X127396952Y-67002819D02*
X127301714Y-67002819D01*
X128682666Y-67002819D02*
X128111238Y-67002819D01*
X128396952Y-67002819D02*
X128396952Y-66002819D01*
X128396952Y-66002819D02*
X128301714Y-66145676D01*
X128301714Y-66145676D02*
X128206476Y-66240914D01*
X128206476Y-66240914D02*
X128111238Y-66288533D01*
X155974095Y-87084819D02*
X155974095Y-87894342D01*
X155974095Y-87894342D02*
X156021714Y-87989580D01*
X156021714Y-87989580D02*
X156069333Y-88037200D01*
X156069333Y-88037200D02*
X156164571Y-88084819D01*
X156164571Y-88084819D02*
X156355047Y-88084819D01*
X156355047Y-88084819D02*
X156450285Y-88037200D01*
X156450285Y-88037200D02*
X156497904Y-87989580D01*
X156497904Y-87989580D02*
X156545523Y-87894342D01*
X156545523Y-87894342D02*
X156545523Y-87084819D01*
X157545523Y-88084819D02*
X156974095Y-88084819D01*
X157259809Y-88084819D02*
X157259809Y-87084819D01*
X157259809Y-87084819D02*
X157164571Y-87227676D01*
X157164571Y-87227676D02*
X157069333Y-87322914D01*
X157069333Y-87322914D02*
X156974095Y-87370533D01*
X141569009Y-69548333D02*
X141569009Y-69881666D01*
X142092819Y-69881666D02*
X141092819Y-69881666D01*
X141092819Y-69881666D02*
X141092819Y-69405476D01*
X141092819Y-69119761D02*
X141092819Y-68500714D01*
X141092819Y-68500714D02*
X141473771Y-68834047D01*
X141473771Y-68834047D02*
X141473771Y-68691190D01*
X141473771Y-68691190D02*
X141521390Y-68595952D01*
X141521390Y-68595952D02*
X141569009Y-68548333D01*
X141569009Y-68548333D02*
X141664247Y-68500714D01*
X141664247Y-68500714D02*
X141902342Y-68500714D01*
X141902342Y-68500714D02*
X141997580Y-68548333D01*
X141997580Y-68548333D02*
X142045200Y-68595952D01*
X142045200Y-68595952D02*
X142092819Y-68691190D01*
X142092819Y-68691190D02*
X142092819Y-68976904D01*
X142092819Y-68976904D02*
X142045200Y-69072142D01*
X142045200Y-69072142D02*
X141997580Y-69119761D01*
X133530180Y-90574905D02*
X134530180Y-90574905D01*
X134530180Y-90574905D02*
X134530180Y-90813000D01*
X134530180Y-90813000D02*
X134482561Y-90955857D01*
X134482561Y-90955857D02*
X134387323Y-91051095D01*
X134387323Y-91051095D02*
X134292085Y-91098714D01*
X134292085Y-91098714D02*
X134101609Y-91146333D01*
X134101609Y-91146333D02*
X133958752Y-91146333D01*
X133958752Y-91146333D02*
X133768276Y-91098714D01*
X133768276Y-91098714D02*
X133673038Y-91051095D01*
X133673038Y-91051095D02*
X133577800Y-90955857D01*
X133577800Y-90955857D02*
X133530180Y-90813000D01*
X133530180Y-90813000D02*
X133530180Y-90574905D01*
X134196847Y-92003476D02*
X133530180Y-92003476D01*
X134577800Y-91765381D02*
X133863514Y-91527286D01*
X133863514Y-91527286D02*
X133863514Y-92146333D01*
X166809009Y-70024523D02*
X166809009Y-70357856D01*
X167332819Y-70357856D02*
X166332819Y-70357856D01*
X166332819Y-70357856D02*
X166332819Y-69881666D01*
X167332819Y-68976904D02*
X167332819Y-69548332D01*
X167332819Y-69262618D02*
X166332819Y-69262618D01*
X166332819Y-69262618D02*
X166475676Y-69357856D01*
X166475676Y-69357856D02*
X166570914Y-69453094D01*
X166570914Y-69453094D02*
X166618533Y-69548332D01*
X166332819Y-68357856D02*
X166332819Y-68262618D01*
X166332819Y-68262618D02*
X166380438Y-68167380D01*
X166380438Y-68167380D02*
X166428057Y-68119761D01*
X166428057Y-68119761D02*
X166523295Y-68072142D01*
X166523295Y-68072142D02*
X166713771Y-68024523D01*
X166713771Y-68024523D02*
X166951866Y-68024523D01*
X166951866Y-68024523D02*
X167142342Y-68072142D01*
X167142342Y-68072142D02*
X167237580Y-68119761D01*
X167237580Y-68119761D02*
X167285200Y-68167380D01*
X167285200Y-68167380D02*
X167332819Y-68262618D01*
X167332819Y-68262618D02*
X167332819Y-68357856D01*
X167332819Y-68357856D02*
X167285200Y-68453094D01*
X167285200Y-68453094D02*
X167237580Y-68500713D01*
X167237580Y-68500713D02*
X167142342Y-68548332D01*
X167142342Y-68548332D02*
X166951866Y-68595951D01*
X166951866Y-68595951D02*
X166713771Y-68595951D01*
X166713771Y-68595951D02*
X166523295Y-68548332D01*
X166523295Y-68548332D02*
X166428057Y-68500713D01*
X166428057Y-68500713D02*
X166380438Y-68453094D01*
X166380438Y-68453094D02*
X166332819Y-68357856D01*
X138961833Y-75162580D02*
X138914214Y-75210200D01*
X138914214Y-75210200D02*
X138771357Y-75257819D01*
X138771357Y-75257819D02*
X138676119Y-75257819D01*
X138676119Y-75257819D02*
X138533262Y-75210200D01*
X138533262Y-75210200D02*
X138438024Y-75114961D01*
X138438024Y-75114961D02*
X138390405Y-75019723D01*
X138390405Y-75019723D02*
X138342786Y-74829247D01*
X138342786Y-74829247D02*
X138342786Y-74686390D01*
X138342786Y-74686390D02*
X138390405Y-74495914D01*
X138390405Y-74495914D02*
X138438024Y-74400676D01*
X138438024Y-74400676D02*
X138533262Y-74305438D01*
X138533262Y-74305438D02*
X138676119Y-74257819D01*
X138676119Y-74257819D02*
X138771357Y-74257819D01*
X138771357Y-74257819D02*
X138914214Y-74305438D01*
X138914214Y-74305438D02*
X138961833Y-74353057D01*
X139533262Y-74686390D02*
X139438024Y-74638771D01*
X139438024Y-74638771D02*
X139390405Y-74591152D01*
X139390405Y-74591152D02*
X139342786Y-74495914D01*
X139342786Y-74495914D02*
X139342786Y-74448295D01*
X139342786Y-74448295D02*
X139390405Y-74353057D01*
X139390405Y-74353057D02*
X139438024Y-74305438D01*
X139438024Y-74305438D02*
X139533262Y-74257819D01*
X139533262Y-74257819D02*
X139723738Y-74257819D01*
X139723738Y-74257819D02*
X139818976Y-74305438D01*
X139818976Y-74305438D02*
X139866595Y-74353057D01*
X139866595Y-74353057D02*
X139914214Y-74448295D01*
X139914214Y-74448295D02*
X139914214Y-74495914D01*
X139914214Y-74495914D02*
X139866595Y-74591152D01*
X139866595Y-74591152D02*
X139818976Y-74638771D01*
X139818976Y-74638771D02*
X139723738Y-74686390D01*
X139723738Y-74686390D02*
X139533262Y-74686390D01*
X139533262Y-74686390D02*
X139438024Y-74734009D01*
X139438024Y-74734009D02*
X139390405Y-74781628D01*
X139390405Y-74781628D02*
X139342786Y-74876866D01*
X139342786Y-74876866D02*
X139342786Y-75067342D01*
X139342786Y-75067342D02*
X139390405Y-75162580D01*
X139390405Y-75162580D02*
X139438024Y-75210200D01*
X139438024Y-75210200D02*
X139533262Y-75257819D01*
X139533262Y-75257819D02*
X139723738Y-75257819D01*
X139723738Y-75257819D02*
X139818976Y-75210200D01*
X139818976Y-75210200D02*
X139866595Y-75162580D01*
X139866595Y-75162580D02*
X139914214Y-75067342D01*
X139914214Y-75067342D02*
X139914214Y-74876866D01*
X139914214Y-74876866D02*
X139866595Y-74781628D01*
X139866595Y-74781628D02*
X139818976Y-74734009D01*
X139818976Y-74734009D02*
X139723738Y-74686390D01*
X163667009Y-69548333D02*
X163667009Y-69881666D01*
X164190819Y-69881666D02*
X163190819Y-69881666D01*
X163190819Y-69881666D02*
X163190819Y-69405476D01*
X163190819Y-69119761D02*
X163190819Y-68453095D01*
X163190819Y-68453095D02*
X164190819Y-68881666D01*
X132806009Y-69548333D02*
X132806009Y-69881666D01*
X133329819Y-69881666D02*
X132329819Y-69881666D01*
X132329819Y-69881666D02*
X132329819Y-69405476D01*
X133329819Y-68500714D02*
X133329819Y-69072142D01*
X133329819Y-68786428D02*
X132329819Y-68786428D01*
X132329819Y-68786428D02*
X132472676Y-68881666D01*
X132472676Y-68881666D02*
X132567914Y-68976904D01*
X132567914Y-68976904D02*
X132615533Y-69072142D01*
X160666666Y-66002819D02*
X160666666Y-66717104D01*
X160666666Y-66717104D02*
X160619047Y-66859961D01*
X160619047Y-66859961D02*
X160523809Y-66955200D01*
X160523809Y-66955200D02*
X160380952Y-67002819D01*
X160380952Y-67002819D02*
X160285714Y-67002819D01*
X161571428Y-66336152D02*
X161571428Y-67002819D01*
X161333333Y-65955200D02*
X161095238Y-66669485D01*
X161095238Y-66669485D02*
X161714285Y-66669485D01*
X155553333Y-81004580D02*
X155505714Y-81052200D01*
X155505714Y-81052200D02*
X155362857Y-81099819D01*
X155362857Y-81099819D02*
X155267619Y-81099819D01*
X155267619Y-81099819D02*
X155124762Y-81052200D01*
X155124762Y-81052200D02*
X155029524Y-80956961D01*
X155029524Y-80956961D02*
X154981905Y-80861723D01*
X154981905Y-80861723D02*
X154934286Y-80671247D01*
X154934286Y-80671247D02*
X154934286Y-80528390D01*
X154934286Y-80528390D02*
X154981905Y-80337914D01*
X154981905Y-80337914D02*
X155029524Y-80242676D01*
X155029524Y-80242676D02*
X155124762Y-80147438D01*
X155124762Y-80147438D02*
X155267619Y-80099819D01*
X155267619Y-80099819D02*
X155362857Y-80099819D01*
X155362857Y-80099819D02*
X155505714Y-80147438D01*
X155505714Y-80147438D02*
X155553333Y-80195057D01*
X155934286Y-80195057D02*
X155981905Y-80147438D01*
X155981905Y-80147438D02*
X156077143Y-80099819D01*
X156077143Y-80099819D02*
X156315238Y-80099819D01*
X156315238Y-80099819D02*
X156410476Y-80147438D01*
X156410476Y-80147438D02*
X156458095Y-80195057D01*
X156458095Y-80195057D02*
X156505714Y-80290295D01*
X156505714Y-80290295D02*
X156505714Y-80385533D01*
X156505714Y-80385533D02*
X156458095Y-80528390D01*
X156458095Y-80528390D02*
X155886667Y-81099819D01*
X155886667Y-81099819D02*
X156505714Y-81099819D01*
X153539580Y-88304666D02*
X153587200Y-88352285D01*
X153587200Y-88352285D02*
X153634819Y-88495142D01*
X153634819Y-88495142D02*
X153634819Y-88590380D01*
X153634819Y-88590380D02*
X153587200Y-88733237D01*
X153587200Y-88733237D02*
X153491961Y-88828475D01*
X153491961Y-88828475D02*
X153396723Y-88876094D01*
X153396723Y-88876094D02*
X153206247Y-88923713D01*
X153206247Y-88923713D02*
X153063390Y-88923713D01*
X153063390Y-88923713D02*
X152872914Y-88876094D01*
X152872914Y-88876094D02*
X152777676Y-88828475D01*
X152777676Y-88828475D02*
X152682438Y-88733237D01*
X152682438Y-88733237D02*
X152634819Y-88590380D01*
X152634819Y-88590380D02*
X152634819Y-88495142D01*
X152634819Y-88495142D02*
X152682438Y-88352285D01*
X152682438Y-88352285D02*
X152730057Y-88304666D01*
X152968152Y-87447523D02*
X153634819Y-87447523D01*
X152587200Y-87685618D02*
X153301485Y-87923713D01*
X153301485Y-87923713D02*
X153301485Y-87304666D01*
X137056833Y-83163580D02*
X137009214Y-83211200D01*
X137009214Y-83211200D02*
X136866357Y-83258819D01*
X136866357Y-83258819D02*
X136771119Y-83258819D01*
X136771119Y-83258819D02*
X136628262Y-83211200D01*
X136628262Y-83211200D02*
X136533024Y-83115961D01*
X136533024Y-83115961D02*
X136485405Y-83020723D01*
X136485405Y-83020723D02*
X136437786Y-82830247D01*
X136437786Y-82830247D02*
X136437786Y-82687390D01*
X136437786Y-82687390D02*
X136485405Y-82496914D01*
X136485405Y-82496914D02*
X136533024Y-82401676D01*
X136533024Y-82401676D02*
X136628262Y-82306438D01*
X136628262Y-82306438D02*
X136771119Y-82258819D01*
X136771119Y-82258819D02*
X136866357Y-82258819D01*
X136866357Y-82258819D02*
X137009214Y-82306438D01*
X137009214Y-82306438D02*
X137056833Y-82354057D01*
X137961595Y-82258819D02*
X137485405Y-82258819D01*
X137485405Y-82258819D02*
X137437786Y-82735009D01*
X137437786Y-82735009D02*
X137485405Y-82687390D01*
X137485405Y-82687390D02*
X137580643Y-82639771D01*
X137580643Y-82639771D02*
X137818738Y-82639771D01*
X137818738Y-82639771D02*
X137913976Y-82687390D01*
X137913976Y-82687390D02*
X137961595Y-82735009D01*
X137961595Y-82735009D02*
X138009214Y-82830247D01*
X138009214Y-82830247D02*
X138009214Y-83068342D01*
X138009214Y-83068342D02*
X137961595Y-83163580D01*
X137961595Y-83163580D02*
X137913976Y-83211200D01*
X137913976Y-83211200D02*
X137818738Y-83258819D01*
X137818738Y-83258819D02*
X137580643Y-83258819D01*
X137580643Y-83258819D02*
X137485405Y-83211200D01*
X137485405Y-83211200D02*
X137437786Y-83163580D01*
X144314080Y-76747666D02*
X144361700Y-76795285D01*
X144361700Y-76795285D02*
X144409319Y-76938142D01*
X144409319Y-76938142D02*
X144409319Y-77033380D01*
X144409319Y-77033380D02*
X144361700Y-77176237D01*
X144361700Y-77176237D02*
X144266461Y-77271475D01*
X144266461Y-77271475D02*
X144171223Y-77319094D01*
X144171223Y-77319094D02*
X143980747Y-77366713D01*
X143980747Y-77366713D02*
X143837890Y-77366713D01*
X143837890Y-77366713D02*
X143647414Y-77319094D01*
X143647414Y-77319094D02*
X143552176Y-77271475D01*
X143552176Y-77271475D02*
X143456938Y-77176237D01*
X143456938Y-77176237D02*
X143409319Y-77033380D01*
X143409319Y-77033380D02*
X143409319Y-76938142D01*
X143409319Y-76938142D02*
X143456938Y-76795285D01*
X143456938Y-76795285D02*
X143504557Y-76747666D01*
X143409319Y-76414332D02*
X143409319Y-75747666D01*
X143409319Y-75747666D02*
X144409319Y-76176237D01*
X158300009Y-69548333D02*
X158300009Y-69881666D01*
X158823819Y-69881666D02*
X157823819Y-69881666D01*
X157823819Y-69881666D02*
X157823819Y-69405476D01*
X158252390Y-68881666D02*
X158204771Y-68976904D01*
X158204771Y-68976904D02*
X158157152Y-69024523D01*
X158157152Y-69024523D02*
X158061914Y-69072142D01*
X158061914Y-69072142D02*
X158014295Y-69072142D01*
X158014295Y-69072142D02*
X157919057Y-69024523D01*
X157919057Y-69024523D02*
X157871438Y-68976904D01*
X157871438Y-68976904D02*
X157823819Y-68881666D01*
X157823819Y-68881666D02*
X157823819Y-68691190D01*
X157823819Y-68691190D02*
X157871438Y-68595952D01*
X157871438Y-68595952D02*
X157919057Y-68548333D01*
X157919057Y-68548333D02*
X158014295Y-68500714D01*
X158014295Y-68500714D02*
X158061914Y-68500714D01*
X158061914Y-68500714D02*
X158157152Y-68548333D01*
X158157152Y-68548333D02*
X158204771Y-68595952D01*
X158204771Y-68595952D02*
X158252390Y-68691190D01*
X158252390Y-68691190D02*
X158252390Y-68881666D01*
X158252390Y-68881666D02*
X158300009Y-68976904D01*
X158300009Y-68976904D02*
X158347628Y-69024523D01*
X158347628Y-69024523D02*
X158442866Y-69072142D01*
X158442866Y-69072142D02*
X158633342Y-69072142D01*
X158633342Y-69072142D02*
X158728580Y-69024523D01*
X158728580Y-69024523D02*
X158776200Y-68976904D01*
X158776200Y-68976904D02*
X158823819Y-68881666D01*
X158823819Y-68881666D02*
X158823819Y-68691190D01*
X158823819Y-68691190D02*
X158776200Y-68595952D01*
X158776200Y-68595952D02*
X158728580Y-68548333D01*
X158728580Y-68548333D02*
X158633342Y-68500714D01*
X158633342Y-68500714D02*
X158442866Y-68500714D01*
X158442866Y-68500714D02*
X158347628Y-68548333D01*
X158347628Y-68548333D02*
X158300009Y-68595952D01*
X158300009Y-68595952D02*
X158252390Y-68691190D01*
X126835819Y-84375523D02*
X127550104Y-84375523D01*
X127550104Y-84375523D02*
X127692961Y-84423142D01*
X127692961Y-84423142D02*
X127788200Y-84518380D01*
X127788200Y-84518380D02*
X127835819Y-84661237D01*
X127835819Y-84661237D02*
X127835819Y-84756475D01*
X127835819Y-83375523D02*
X127835819Y-83946951D01*
X127835819Y-83661237D02*
X126835819Y-83661237D01*
X126835819Y-83661237D02*
X126978676Y-83756475D01*
X126978676Y-83756475D02*
X127073914Y-83851713D01*
X127073914Y-83851713D02*
X127121533Y-83946951D01*
X127835819Y-82423142D02*
X127835819Y-82994570D01*
X127835819Y-82708856D02*
X126835819Y-82708856D01*
X126835819Y-82708856D02*
X126978676Y-82804094D01*
X126978676Y-82804094D02*
X127073914Y-82899332D01*
X127073914Y-82899332D02*
X127121533Y-82994570D01*
X152618009Y-69548333D02*
X152618009Y-69881666D01*
X153141819Y-69881666D02*
X152141819Y-69881666D01*
X152141819Y-69881666D02*
X152141819Y-69405476D01*
X152141819Y-68548333D02*
X152141819Y-69024523D01*
X152141819Y-69024523D02*
X152618009Y-69072142D01*
X152618009Y-69072142D02*
X152570390Y-69024523D01*
X152570390Y-69024523D02*
X152522771Y-68929285D01*
X152522771Y-68929285D02*
X152522771Y-68691190D01*
X152522771Y-68691190D02*
X152570390Y-68595952D01*
X152570390Y-68595952D02*
X152618009Y-68548333D01*
X152618009Y-68548333D02*
X152713247Y-68500714D01*
X152713247Y-68500714D02*
X152951342Y-68500714D01*
X152951342Y-68500714D02*
X153046580Y-68548333D01*
X153046580Y-68548333D02*
X153094200Y-68595952D01*
X153094200Y-68595952D02*
X153141819Y-68691190D01*
X153141819Y-68691190D02*
X153141819Y-68929285D01*
X153141819Y-68929285D02*
X153094200Y-69024523D01*
X153094200Y-69024523D02*
X153046580Y-69072142D01*
X138666666Y-66002819D02*
X138666666Y-66717104D01*
X138666666Y-66717104D02*
X138619047Y-66859961D01*
X138619047Y-66859961D02*
X138523809Y-66955200D01*
X138523809Y-66955200D02*
X138380952Y-67002819D01*
X138380952Y-67002819D02*
X138285714Y-67002819D01*
X139095238Y-66098057D02*
X139142857Y-66050438D01*
X139142857Y-66050438D02*
X139238095Y-66002819D01*
X139238095Y-66002819D02*
X139476190Y-66002819D01*
X139476190Y-66002819D02*
X139571428Y-66050438D01*
X139571428Y-66050438D02*
X139619047Y-66098057D01*
X139619047Y-66098057D02*
X139666666Y-66193295D01*
X139666666Y-66193295D02*
X139666666Y-66288533D01*
X139666666Y-66288533D02*
X139619047Y-66431390D01*
X139619047Y-66431390D02*
X139047619Y-67002819D01*
X139047619Y-67002819D02*
X139666666Y-67002819D01*
X169878476Y-72448009D02*
X169545143Y-72448009D01*
X169545143Y-72971819D02*
X169545143Y-71971819D01*
X169545143Y-71971819D02*
X170021333Y-71971819D01*
X170926095Y-72971819D02*
X170354667Y-72971819D01*
X170640381Y-72971819D02*
X170640381Y-71971819D01*
X170640381Y-71971819D02*
X170545143Y-72114676D01*
X170545143Y-72114676D02*
X170449905Y-72209914D01*
X170449905Y-72209914D02*
X170354667Y-72257533D01*
X171783238Y-72305152D02*
X171783238Y-72971819D01*
X171545143Y-71924200D02*
X171307048Y-72638485D01*
X171307048Y-72638485D02*
X171926095Y-72638485D01*
X147251009Y-69548333D02*
X147251009Y-69881666D01*
X147774819Y-69881666D02*
X146774819Y-69881666D01*
X146774819Y-69881666D02*
X146774819Y-69405476D01*
X146774819Y-68595952D02*
X146774819Y-68786428D01*
X146774819Y-68786428D02*
X146822438Y-68881666D01*
X146822438Y-68881666D02*
X146870057Y-68929285D01*
X146870057Y-68929285D02*
X147012914Y-69024523D01*
X147012914Y-69024523D02*
X147203390Y-69072142D01*
X147203390Y-69072142D02*
X147584342Y-69072142D01*
X147584342Y-69072142D02*
X147679580Y-69024523D01*
X147679580Y-69024523D02*
X147727200Y-68976904D01*
X147727200Y-68976904D02*
X147774819Y-68881666D01*
X147774819Y-68881666D02*
X147774819Y-68691190D01*
X147774819Y-68691190D02*
X147727200Y-68595952D01*
X147727200Y-68595952D02*
X147679580Y-68548333D01*
X147679580Y-68548333D02*
X147584342Y-68500714D01*
X147584342Y-68500714D02*
X147346247Y-68500714D01*
X147346247Y-68500714D02*
X147251009Y-68548333D01*
X147251009Y-68548333D02*
X147203390Y-68595952D01*
X147203390Y-68595952D02*
X147155771Y-68691190D01*
X147155771Y-68691190D02*
X147155771Y-68881666D01*
X147155771Y-68881666D02*
X147203390Y-68976904D01*
X147203390Y-68976904D02*
X147251009Y-69024523D01*
X147251009Y-69024523D02*
X147346247Y-69072142D01*
X171666666Y-66002819D02*
X171666666Y-66717104D01*
X171666666Y-66717104D02*
X171619047Y-66859961D01*
X171619047Y-66859961D02*
X171523809Y-66955200D01*
X171523809Y-66955200D02*
X171380952Y-67002819D01*
X171380952Y-67002819D02*
X171285714Y-67002819D01*
X172619047Y-66002819D02*
X172142857Y-66002819D01*
X172142857Y-66002819D02*
X172095238Y-66479009D01*
X172095238Y-66479009D02*
X172142857Y-66431390D01*
X172142857Y-66431390D02*
X172238095Y-66383771D01*
X172238095Y-66383771D02*
X172476190Y-66383771D01*
X172476190Y-66383771D02*
X172571428Y-66431390D01*
X172571428Y-66431390D02*
X172619047Y-66479009D01*
X172619047Y-66479009D02*
X172666666Y-66574247D01*
X172666666Y-66574247D02*
X172666666Y-66812342D01*
X172666666Y-66812342D02*
X172619047Y-66907580D01*
X172619047Y-66907580D02*
X172571428Y-66955200D01*
X172571428Y-66955200D02*
X172476190Y-67002819D01*
X172476190Y-67002819D02*
X172238095Y-67002819D01*
X172238095Y-67002819D02*
X172142857Y-66955200D01*
X172142857Y-66955200D02*
X172095238Y-66907580D01*
X142200333Y-83639819D02*
X141724143Y-83639819D01*
X141724143Y-83639819D02*
X141724143Y-82639819D01*
X142486048Y-82735057D02*
X142533667Y-82687438D01*
X142533667Y-82687438D02*
X142628905Y-82639819D01*
X142628905Y-82639819D02*
X142867000Y-82639819D01*
X142867000Y-82639819D02*
X142962238Y-82687438D01*
X142962238Y-82687438D02*
X143009857Y-82735057D01*
X143009857Y-82735057D02*
X143057476Y-82830295D01*
X143057476Y-82830295D02*
X143057476Y-82925533D01*
X143057476Y-82925533D02*
X143009857Y-83068390D01*
X143009857Y-83068390D02*
X142438429Y-83639819D01*
X142438429Y-83639819D02*
X143057476Y-83639819D01*
X158964333Y-91799580D02*
X158916714Y-91847200D01*
X158916714Y-91847200D02*
X158773857Y-91894819D01*
X158773857Y-91894819D02*
X158678619Y-91894819D01*
X158678619Y-91894819D02*
X158535762Y-91847200D01*
X158535762Y-91847200D02*
X158440524Y-91751961D01*
X158440524Y-91751961D02*
X158392905Y-91656723D01*
X158392905Y-91656723D02*
X158345286Y-91466247D01*
X158345286Y-91466247D02*
X158345286Y-91323390D01*
X158345286Y-91323390D02*
X158392905Y-91132914D01*
X158392905Y-91132914D02*
X158440524Y-91037676D01*
X158440524Y-91037676D02*
X158535762Y-90942438D01*
X158535762Y-90942438D02*
X158678619Y-90894819D01*
X158678619Y-90894819D02*
X158773857Y-90894819D01*
X158773857Y-90894819D02*
X158916714Y-90942438D01*
X158916714Y-90942438D02*
X158964333Y-90990057D01*
X159916714Y-91894819D02*
X159345286Y-91894819D01*
X159631000Y-91894819D02*
X159631000Y-90894819D01*
X159631000Y-90894819D02*
X159535762Y-91037676D01*
X159535762Y-91037676D02*
X159440524Y-91132914D01*
X159440524Y-91132914D02*
X159345286Y-91180533D01*
X142282080Y-77604857D02*
X142329700Y-77652476D01*
X142329700Y-77652476D02*
X142377319Y-77795333D01*
X142377319Y-77795333D02*
X142377319Y-77890571D01*
X142377319Y-77890571D02*
X142329700Y-78033428D01*
X142329700Y-78033428D02*
X142234461Y-78128666D01*
X142234461Y-78128666D02*
X142139223Y-78176285D01*
X142139223Y-78176285D02*
X141948747Y-78223904D01*
X141948747Y-78223904D02*
X141805890Y-78223904D01*
X141805890Y-78223904D02*
X141615414Y-78176285D01*
X141615414Y-78176285D02*
X141520176Y-78128666D01*
X141520176Y-78128666D02*
X141424938Y-78033428D01*
X141424938Y-78033428D02*
X141377319Y-77890571D01*
X141377319Y-77890571D02*
X141377319Y-77795333D01*
X141377319Y-77795333D02*
X141424938Y-77652476D01*
X141424938Y-77652476D02*
X141472557Y-77604857D01*
X142377319Y-76652476D02*
X142377319Y-77223904D01*
X142377319Y-76938190D02*
X141377319Y-76938190D01*
X141377319Y-76938190D02*
X141520176Y-77033428D01*
X141520176Y-77033428D02*
X141615414Y-77128666D01*
X141615414Y-77128666D02*
X141663033Y-77223904D01*
X141472557Y-76271523D02*
X141424938Y-76223904D01*
X141424938Y-76223904D02*
X141377319Y-76128666D01*
X141377319Y-76128666D02*
X141377319Y-75890571D01*
X141377319Y-75890571D02*
X141424938Y-75795333D01*
X141424938Y-75795333D02*
X141472557Y-75747714D01*
X141472557Y-75747714D02*
X141567795Y-75700095D01*
X141567795Y-75700095D02*
X141663033Y-75700095D01*
X141663033Y-75700095D02*
X141805890Y-75747714D01*
X141805890Y-75747714D02*
X142377319Y-76319142D01*
X142377319Y-76319142D02*
X142377319Y-75700095D01*
X125946819Y-73333333D02*
X126661104Y-73333333D01*
X126661104Y-73333333D02*
X126803961Y-73380952D01*
X126803961Y-73380952D02*
X126899200Y-73476190D01*
X126899200Y-73476190D02*
X126946819Y-73619047D01*
X126946819Y-73619047D02*
X126946819Y-73714285D01*
X125946819Y-72428571D02*
X125946819Y-72619047D01*
X125946819Y-72619047D02*
X125994438Y-72714285D01*
X125994438Y-72714285D02*
X126042057Y-72761904D01*
X126042057Y-72761904D02*
X126184914Y-72857142D01*
X126184914Y-72857142D02*
X126375390Y-72904761D01*
X126375390Y-72904761D02*
X126756342Y-72904761D01*
X126756342Y-72904761D02*
X126851580Y-72857142D01*
X126851580Y-72857142D02*
X126899200Y-72809523D01*
X126899200Y-72809523D02*
X126946819Y-72714285D01*
X126946819Y-72714285D02*
X126946819Y-72523809D01*
X126946819Y-72523809D02*
X126899200Y-72428571D01*
X126899200Y-72428571D02*
X126851580Y-72380952D01*
X126851580Y-72380952D02*
X126756342Y-72333333D01*
X126756342Y-72333333D02*
X126518247Y-72333333D01*
X126518247Y-72333333D02*
X126423009Y-72380952D01*
X126423009Y-72380952D02*
X126375390Y-72428571D01*
X126375390Y-72428571D02*
X126327771Y-72523809D01*
X126327771Y-72523809D02*
X126327771Y-72714285D01*
X126327771Y-72714285D02*
X126375390Y-72809523D01*
X126375390Y-72809523D02*
X126423009Y-72857142D01*
X126423009Y-72857142D02*
X126518247Y-72904761D01*
X137233819Y-74715666D02*
X136757628Y-75048999D01*
X137233819Y-75287094D02*
X136233819Y-75287094D01*
X136233819Y-75287094D02*
X136233819Y-74906142D01*
X136233819Y-74906142D02*
X136281438Y-74810904D01*
X136281438Y-74810904D02*
X136329057Y-74763285D01*
X136329057Y-74763285D02*
X136424295Y-74715666D01*
X136424295Y-74715666D02*
X136567152Y-74715666D01*
X136567152Y-74715666D02*
X136662390Y-74763285D01*
X136662390Y-74763285D02*
X136710009Y-74810904D01*
X136710009Y-74810904D02*
X136757628Y-74906142D01*
X136757628Y-74906142D02*
X136757628Y-75287094D01*
X136233819Y-73810904D02*
X136233819Y-74287094D01*
X136233819Y-74287094D02*
X136710009Y-74334713D01*
X136710009Y-74334713D02*
X136662390Y-74287094D01*
X136662390Y-74287094D02*
X136614771Y-74191856D01*
X136614771Y-74191856D02*
X136614771Y-73953761D01*
X136614771Y-73953761D02*
X136662390Y-73858523D01*
X136662390Y-73858523D02*
X136710009Y-73810904D01*
X136710009Y-73810904D02*
X136805247Y-73763285D01*
X136805247Y-73763285D02*
X137043342Y-73763285D01*
X137043342Y-73763285D02*
X137138580Y-73810904D01*
X137138580Y-73810904D02*
X137186200Y-73858523D01*
X137186200Y-73858523D02*
X137233819Y-73953761D01*
X137233819Y-73953761D02*
X137233819Y-74191856D01*
X137233819Y-74191856D02*
X137186200Y-74287094D01*
X137186200Y-74287094D02*
X137138580Y-74334713D01*
X176776083Y-93672819D02*
X176442750Y-93196628D01*
X176204655Y-93672819D02*
X176204655Y-92672819D01*
X176204655Y-92672819D02*
X176585607Y-92672819D01*
X176585607Y-92672819D02*
X176680845Y-92720438D01*
X176680845Y-92720438D02*
X176728464Y-92768057D01*
X176728464Y-92768057D02*
X176776083Y-92863295D01*
X176776083Y-92863295D02*
X176776083Y-93006152D01*
X176776083Y-93006152D02*
X176728464Y-93101390D01*
X176728464Y-93101390D02*
X176680845Y-93149009D01*
X176680845Y-93149009D02*
X176585607Y-93196628D01*
X176585607Y-93196628D02*
X176204655Y-93196628D01*
X177633226Y-93006152D02*
X177633226Y-93672819D01*
X177395131Y-92625200D02*
X177157036Y-93339485D01*
X177157036Y-93339485D02*
X177776083Y-93339485D01*
X171920819Y-84375523D02*
X172635104Y-84375523D01*
X172635104Y-84375523D02*
X172777961Y-84423142D01*
X172777961Y-84423142D02*
X172873200Y-84518380D01*
X172873200Y-84518380D02*
X172920819Y-84661237D01*
X172920819Y-84661237D02*
X172920819Y-84756475D01*
X172920819Y-83375523D02*
X172920819Y-83946951D01*
X172920819Y-83661237D02*
X171920819Y-83661237D01*
X171920819Y-83661237D02*
X172063676Y-83756475D01*
X172063676Y-83756475D02*
X172158914Y-83851713D01*
X172158914Y-83851713D02*
X172206533Y-83946951D01*
X171920819Y-82756475D02*
X171920819Y-82661237D01*
X171920819Y-82661237D02*
X171968438Y-82565999D01*
X171968438Y-82565999D02*
X172016057Y-82518380D01*
X172016057Y-82518380D02*
X172111295Y-82470761D01*
X172111295Y-82470761D02*
X172301771Y-82423142D01*
X172301771Y-82423142D02*
X172539866Y-82423142D01*
X172539866Y-82423142D02*
X172730342Y-82470761D01*
X172730342Y-82470761D02*
X172825580Y-82518380D01*
X172825580Y-82518380D02*
X172873200Y-82565999D01*
X172873200Y-82565999D02*
X172920819Y-82661237D01*
X172920819Y-82661237D02*
X172920819Y-82756475D01*
X172920819Y-82756475D02*
X172873200Y-82851713D01*
X172873200Y-82851713D02*
X172825580Y-82899332D01*
X172825580Y-82899332D02*
X172730342Y-82946951D01*
X172730342Y-82946951D02*
X172539866Y-82994570D01*
X172539866Y-82994570D02*
X172301771Y-82994570D01*
X172301771Y-82994570D02*
X172111295Y-82946951D01*
X172111295Y-82946951D02*
X172016057Y-82899332D01*
X172016057Y-82899332D02*
X171968438Y-82851713D01*
X171968438Y-82851713D02*
X171920819Y-82756475D01*
X150314819Y-84851094D02*
X149314819Y-84851094D01*
X149314819Y-84851094D02*
X149314819Y-84612999D01*
X149314819Y-84612999D02*
X149362438Y-84470142D01*
X149362438Y-84470142D02*
X149457676Y-84374904D01*
X149457676Y-84374904D02*
X149552914Y-84327285D01*
X149552914Y-84327285D02*
X149743390Y-84279666D01*
X149743390Y-84279666D02*
X149886247Y-84279666D01*
X149886247Y-84279666D02*
X150076723Y-84327285D01*
X150076723Y-84327285D02*
X150171961Y-84374904D01*
X150171961Y-84374904D02*
X150267200Y-84470142D01*
X150267200Y-84470142D02*
X150314819Y-84612999D01*
X150314819Y-84612999D02*
X150314819Y-84851094D01*
X150314819Y-83327285D02*
X150314819Y-83898713D01*
X150314819Y-83612999D02*
X149314819Y-83612999D01*
X149314819Y-83612999D02*
X149457676Y-83708237D01*
X149457676Y-83708237D02*
X149552914Y-83803475D01*
X149552914Y-83803475D02*
X149600533Y-83898713D01*
X136202009Y-69548333D02*
X136202009Y-69881666D01*
X136725819Y-69881666D02*
X135725819Y-69881666D01*
X135725819Y-69881666D02*
X135725819Y-69405476D01*
X136059152Y-68595952D02*
X136725819Y-68595952D01*
X135678200Y-68834047D02*
X136392485Y-69072142D01*
X136392485Y-69072142D02*
X136392485Y-68453095D01*
X144822080Y-84621666D02*
X144869700Y-84669285D01*
X144869700Y-84669285D02*
X144917319Y-84812142D01*
X144917319Y-84812142D02*
X144917319Y-84907380D01*
X144917319Y-84907380D02*
X144869700Y-85050237D01*
X144869700Y-85050237D02*
X144774461Y-85145475D01*
X144774461Y-85145475D02*
X144679223Y-85193094D01*
X144679223Y-85193094D02*
X144488747Y-85240713D01*
X144488747Y-85240713D02*
X144345890Y-85240713D01*
X144345890Y-85240713D02*
X144155414Y-85193094D01*
X144155414Y-85193094D02*
X144060176Y-85145475D01*
X144060176Y-85145475D02*
X143964938Y-85050237D01*
X143964938Y-85050237D02*
X143917319Y-84907380D01*
X143917319Y-84907380D02*
X143917319Y-84812142D01*
X143917319Y-84812142D02*
X143964938Y-84669285D01*
X143964938Y-84669285D02*
X144012557Y-84621666D01*
X143917319Y-83764523D02*
X143917319Y-83954999D01*
X143917319Y-83954999D02*
X143964938Y-84050237D01*
X143964938Y-84050237D02*
X144012557Y-84097856D01*
X144012557Y-84097856D02*
X144155414Y-84193094D01*
X144155414Y-84193094D02*
X144345890Y-84240713D01*
X144345890Y-84240713D02*
X144726842Y-84240713D01*
X144726842Y-84240713D02*
X144822080Y-84193094D01*
X144822080Y-84193094D02*
X144869700Y-84145475D01*
X144869700Y-84145475D02*
X144917319Y-84050237D01*
X144917319Y-84050237D02*
X144917319Y-83859761D01*
X144917319Y-83859761D02*
X144869700Y-83764523D01*
X144869700Y-83764523D02*
X144822080Y-83716904D01*
X144822080Y-83716904D02*
X144726842Y-83669285D01*
X144726842Y-83669285D02*
X144488747Y-83669285D01*
X144488747Y-83669285D02*
X144393509Y-83716904D01*
X144393509Y-83716904D02*
X144345890Y-83764523D01*
X144345890Y-83764523D02*
X144298271Y-83859761D01*
X144298271Y-83859761D02*
X144298271Y-84050237D01*
X144298271Y-84050237D02*
X144345890Y-84145475D01*
X144345890Y-84145475D02*
X144393509Y-84193094D01*
X144393509Y-84193094D02*
X144488747Y-84240713D01*
X171124655Y-90116819D02*
X171124655Y-89116819D01*
X171124655Y-89116819D02*
X171362750Y-89116819D01*
X171362750Y-89116819D02*
X171505607Y-89164438D01*
X171505607Y-89164438D02*
X171600845Y-89259676D01*
X171600845Y-89259676D02*
X171648464Y-89354914D01*
X171648464Y-89354914D02*
X171696083Y-89545390D01*
X171696083Y-89545390D02*
X171696083Y-89688247D01*
X171696083Y-89688247D02*
X171648464Y-89878723D01*
X171648464Y-89878723D02*
X171600845Y-89973961D01*
X171600845Y-89973961D02*
X171505607Y-90069200D01*
X171505607Y-90069200D02*
X171362750Y-90116819D01*
X171362750Y-90116819D02*
X171124655Y-90116819D01*
X172600845Y-89116819D02*
X172124655Y-89116819D01*
X172124655Y-89116819D02*
X172077036Y-89593009D01*
X172077036Y-89593009D02*
X172124655Y-89545390D01*
X172124655Y-89545390D02*
X172219893Y-89497771D01*
X172219893Y-89497771D02*
X172457988Y-89497771D01*
X172457988Y-89497771D02*
X172553226Y-89545390D01*
X172553226Y-89545390D02*
X172600845Y-89593009D01*
X172600845Y-89593009D02*
X172648464Y-89688247D01*
X172648464Y-89688247D02*
X172648464Y-89926342D01*
X172648464Y-89926342D02*
X172600845Y-90021580D01*
X172600845Y-90021580D02*
X172553226Y-90069200D01*
X172553226Y-90069200D02*
X172457988Y-90116819D01*
X172457988Y-90116819D02*
X172219893Y-90116819D01*
X172219893Y-90116819D02*
X172124655Y-90069200D01*
X172124655Y-90069200D02*
X172077036Y-90021580D01*
X138961833Y-73860819D02*
X138628500Y-73384628D01*
X138390405Y-73860819D02*
X138390405Y-72860819D01*
X138390405Y-72860819D02*
X138771357Y-72860819D01*
X138771357Y-72860819D02*
X138866595Y-72908438D01*
X138866595Y-72908438D02*
X138914214Y-72956057D01*
X138914214Y-72956057D02*
X138961833Y-73051295D01*
X138961833Y-73051295D02*
X138961833Y-73194152D01*
X138961833Y-73194152D02*
X138914214Y-73289390D01*
X138914214Y-73289390D02*
X138866595Y-73337009D01*
X138866595Y-73337009D02*
X138771357Y-73384628D01*
X138771357Y-73384628D02*
X138390405Y-73384628D01*
X139342786Y-72956057D02*
X139390405Y-72908438D01*
X139390405Y-72908438D02*
X139485643Y-72860819D01*
X139485643Y-72860819D02*
X139723738Y-72860819D01*
X139723738Y-72860819D02*
X139818976Y-72908438D01*
X139818976Y-72908438D02*
X139866595Y-72956057D01*
X139866595Y-72956057D02*
X139914214Y-73051295D01*
X139914214Y-73051295D02*
X139914214Y-73146533D01*
X139914214Y-73146533D02*
X139866595Y-73289390D01*
X139866595Y-73289390D02*
X139295167Y-73860819D01*
X139295167Y-73860819D02*
X139914214Y-73860819D01*
X158918905Y-75130819D02*
X158918905Y-74130819D01*
X158918905Y-74130819D02*
X159157000Y-74130819D01*
X159157000Y-74130819D02*
X159299857Y-74178438D01*
X159299857Y-74178438D02*
X159395095Y-74273676D01*
X159395095Y-74273676D02*
X159442714Y-74368914D01*
X159442714Y-74368914D02*
X159490333Y-74559390D01*
X159490333Y-74559390D02*
X159490333Y-74702247D01*
X159490333Y-74702247D02*
X159442714Y-74892723D01*
X159442714Y-74892723D02*
X159395095Y-74987961D01*
X159395095Y-74987961D02*
X159299857Y-75083200D01*
X159299857Y-75083200D02*
X159157000Y-75130819D01*
X159157000Y-75130819D02*
X158918905Y-75130819D01*
X159871286Y-74226057D02*
X159918905Y-74178438D01*
X159918905Y-74178438D02*
X160014143Y-74130819D01*
X160014143Y-74130819D02*
X160252238Y-74130819D01*
X160252238Y-74130819D02*
X160347476Y-74178438D01*
X160347476Y-74178438D02*
X160395095Y-74226057D01*
X160395095Y-74226057D02*
X160442714Y-74321295D01*
X160442714Y-74321295D02*
X160442714Y-74416533D01*
X160442714Y-74416533D02*
X160395095Y-74559390D01*
X160395095Y-74559390D02*
X159823667Y-75130819D01*
X159823667Y-75130819D02*
X160442714Y-75130819D01*
X176776083Y-91894819D02*
X176442750Y-91418628D01*
X176204655Y-91894819D02*
X176204655Y-90894819D01*
X176204655Y-90894819D02*
X176585607Y-90894819D01*
X176585607Y-90894819D02*
X176680845Y-90942438D01*
X176680845Y-90942438D02*
X176728464Y-90990057D01*
X176728464Y-90990057D02*
X176776083Y-91085295D01*
X176776083Y-91085295D02*
X176776083Y-91228152D01*
X176776083Y-91228152D02*
X176728464Y-91323390D01*
X176728464Y-91323390D02*
X176680845Y-91371009D01*
X176680845Y-91371009D02*
X176585607Y-91418628D01*
X176585607Y-91418628D02*
X176204655Y-91418628D01*
X177109417Y-90894819D02*
X177776083Y-90894819D01*
X177776083Y-90894819D02*
X177347512Y-91894819D01*
X171124655Y-93672819D02*
X171124655Y-92672819D01*
X171124655Y-92672819D02*
X171362750Y-92672819D01*
X171362750Y-92672819D02*
X171505607Y-92720438D01*
X171505607Y-92720438D02*
X171600845Y-92815676D01*
X171600845Y-92815676D02*
X171648464Y-92910914D01*
X171648464Y-92910914D02*
X171696083Y-93101390D01*
X171696083Y-93101390D02*
X171696083Y-93244247D01*
X171696083Y-93244247D02*
X171648464Y-93434723D01*
X171648464Y-93434723D02*
X171600845Y-93529961D01*
X171600845Y-93529961D02*
X171505607Y-93625200D01*
X171505607Y-93625200D02*
X171362750Y-93672819D01*
X171362750Y-93672819D02*
X171124655Y-93672819D01*
X172029417Y-92672819D02*
X172648464Y-92672819D01*
X172648464Y-92672819D02*
X172315131Y-93053771D01*
X172315131Y-93053771D02*
X172457988Y-93053771D01*
X172457988Y-93053771D02*
X172553226Y-93101390D01*
X172553226Y-93101390D02*
X172600845Y-93149009D01*
X172600845Y-93149009D02*
X172648464Y-93244247D01*
X172648464Y-93244247D02*
X172648464Y-93482342D01*
X172648464Y-93482342D02*
X172600845Y-93577580D01*
X172600845Y-93577580D02*
X172553226Y-93625200D01*
X172553226Y-93625200D02*
X172457988Y-93672819D01*
X172457988Y-93672819D02*
X172172274Y-93672819D01*
X172172274Y-93672819D02*
X172077036Y-93625200D01*
X172077036Y-93625200D02*
X172029417Y-93577580D01*
X128476476Y-72448009D02*
X128143143Y-72448009D01*
X128143143Y-72971819D02*
X128143143Y-71971819D01*
X128143143Y-71971819D02*
X128619333Y-71971819D01*
X129524095Y-72971819D02*
X128952667Y-72971819D01*
X129238381Y-72971819D02*
X129238381Y-71971819D01*
X129238381Y-71971819D02*
X129143143Y-72114676D01*
X129143143Y-72114676D02*
X129047905Y-72209914D01*
X129047905Y-72209914D02*
X128952667Y-72257533D01*
X130476476Y-72971819D02*
X129905048Y-72971819D01*
X130190762Y-72971819D02*
X130190762Y-71971819D01*
X130190762Y-71971819D02*
X130095524Y-72114676D01*
X130095524Y-72114676D02*
X130000286Y-72209914D01*
X130000286Y-72209914D02*
X129905048Y-72257533D01*
X135408319Y-81533904D02*
X136217842Y-81533904D01*
X136217842Y-81533904D02*
X136313080Y-81486285D01*
X136313080Y-81486285D02*
X136360700Y-81438666D01*
X136360700Y-81438666D02*
X136408319Y-81343428D01*
X136408319Y-81343428D02*
X136408319Y-81152952D01*
X136408319Y-81152952D02*
X136360700Y-81057714D01*
X136360700Y-81057714D02*
X136313080Y-81010095D01*
X136313080Y-81010095D02*
X136217842Y-80962476D01*
X136217842Y-80962476D02*
X135408319Y-80962476D01*
X135503557Y-80533904D02*
X135455938Y-80486285D01*
X135455938Y-80486285D02*
X135408319Y-80391047D01*
X135408319Y-80391047D02*
X135408319Y-80152952D01*
X135408319Y-80152952D02*
X135455938Y-80057714D01*
X135455938Y-80057714D02*
X135503557Y-80010095D01*
X135503557Y-80010095D02*
X135598795Y-79962476D01*
X135598795Y-79962476D02*
X135694033Y-79962476D01*
X135694033Y-79962476D02*
X135836890Y-80010095D01*
X135836890Y-80010095D02*
X136408319Y-80581523D01*
X136408319Y-80581523D02*
X136408319Y-79962476D01*
X135582819Y-74682666D02*
X135106628Y-75015999D01*
X135582819Y-75254094D02*
X134582819Y-75254094D01*
X134582819Y-75254094D02*
X134582819Y-74873142D01*
X134582819Y-74873142D02*
X134630438Y-74777904D01*
X134630438Y-74777904D02*
X134678057Y-74730285D01*
X134678057Y-74730285D02*
X134773295Y-74682666D01*
X134773295Y-74682666D02*
X134916152Y-74682666D01*
X134916152Y-74682666D02*
X135011390Y-74730285D01*
X135011390Y-74730285D02*
X135059009Y-74777904D01*
X135059009Y-74777904D02*
X135106628Y-74873142D01*
X135106628Y-74873142D02*
X135106628Y-75254094D01*
X134582819Y-74349332D02*
X134582819Y-73730285D01*
X134582819Y-73730285D02*
X134963771Y-74063618D01*
X134963771Y-74063618D02*
X134963771Y-73920761D01*
X134963771Y-73920761D02*
X135011390Y-73825523D01*
X135011390Y-73825523D02*
X135059009Y-73777904D01*
X135059009Y-73777904D02*
X135154247Y-73730285D01*
X135154247Y-73730285D02*
X135392342Y-73730285D01*
X135392342Y-73730285D02*
X135487580Y-73777904D01*
X135487580Y-73777904D02*
X135535200Y-73825523D01*
X135535200Y-73825523D02*
X135582819Y-73920761D01*
X135582819Y-73920761D02*
X135582819Y-74206475D01*
X135582819Y-74206475D02*
X135535200Y-74301713D01*
X135535200Y-74301713D02*
X135487580Y-74349332D01*
X149666666Y-66002819D02*
X149666666Y-66717104D01*
X149666666Y-66717104D02*
X149619047Y-66859961D01*
X149619047Y-66859961D02*
X149523809Y-66955200D01*
X149523809Y-66955200D02*
X149380952Y-67002819D01*
X149380952Y-67002819D02*
X149285714Y-67002819D01*
X150047619Y-66002819D02*
X150666666Y-66002819D01*
X150666666Y-66002819D02*
X150333333Y-66383771D01*
X150333333Y-66383771D02*
X150476190Y-66383771D01*
X150476190Y-66383771D02*
X150571428Y-66431390D01*
X150571428Y-66431390D02*
X150619047Y-66479009D01*
X150619047Y-66479009D02*
X150666666Y-66574247D01*
X150666666Y-66574247D02*
X150666666Y-66812342D01*
X150666666Y-66812342D02*
X150619047Y-66907580D01*
X150619047Y-66907580D02*
X150571428Y-66955200D01*
X150571428Y-66955200D02*
X150476190Y-67002819D01*
X150476190Y-67002819D02*
X150190476Y-67002819D01*
X150190476Y-67002819D02*
X150095238Y-66955200D01*
X150095238Y-66955200D02*
X150047619Y-66907580D01*
X149394080Y-76969857D02*
X149441700Y-77017476D01*
X149441700Y-77017476D02*
X149489319Y-77160333D01*
X149489319Y-77160333D02*
X149489319Y-77255571D01*
X149489319Y-77255571D02*
X149441700Y-77398428D01*
X149441700Y-77398428D02*
X149346461Y-77493666D01*
X149346461Y-77493666D02*
X149251223Y-77541285D01*
X149251223Y-77541285D02*
X149060747Y-77588904D01*
X149060747Y-77588904D02*
X148917890Y-77588904D01*
X148917890Y-77588904D02*
X148727414Y-77541285D01*
X148727414Y-77541285D02*
X148632176Y-77493666D01*
X148632176Y-77493666D02*
X148536938Y-77398428D01*
X148536938Y-77398428D02*
X148489319Y-77255571D01*
X148489319Y-77255571D02*
X148489319Y-77160333D01*
X148489319Y-77160333D02*
X148536938Y-77017476D01*
X148536938Y-77017476D02*
X148584557Y-76969857D01*
X149489319Y-76017476D02*
X149489319Y-76588904D01*
X149489319Y-76303190D02*
X148489319Y-76303190D01*
X148489319Y-76303190D02*
X148632176Y-76398428D01*
X148632176Y-76398428D02*
X148727414Y-76493666D01*
X148727414Y-76493666D02*
X148775033Y-76588904D01*
X149489319Y-75065095D02*
X149489319Y-75636523D01*
X149489319Y-75350809D02*
X148489319Y-75350809D01*
X148489319Y-75350809D02*
X148632176Y-75446047D01*
X148632176Y-75446047D02*
X148727414Y-75541285D01*
X148727414Y-75541285D02*
X148775033Y-75636523D01*
X155553333Y-78464580D02*
X155505714Y-78512200D01*
X155505714Y-78512200D02*
X155362857Y-78559819D01*
X155362857Y-78559819D02*
X155267619Y-78559819D01*
X155267619Y-78559819D02*
X155124762Y-78512200D01*
X155124762Y-78512200D02*
X155029524Y-78416961D01*
X155029524Y-78416961D02*
X154981905Y-78321723D01*
X154981905Y-78321723D02*
X154934286Y-78131247D01*
X154934286Y-78131247D02*
X154934286Y-77988390D01*
X154934286Y-77988390D02*
X154981905Y-77797914D01*
X154981905Y-77797914D02*
X155029524Y-77702676D01*
X155029524Y-77702676D02*
X155124762Y-77607438D01*
X155124762Y-77607438D02*
X155267619Y-77559819D01*
X155267619Y-77559819D02*
X155362857Y-77559819D01*
X155362857Y-77559819D02*
X155505714Y-77607438D01*
X155505714Y-77607438D02*
X155553333Y-77655057D01*
X155886667Y-77559819D02*
X156505714Y-77559819D01*
X156505714Y-77559819D02*
X156172381Y-77940771D01*
X156172381Y-77940771D02*
X156315238Y-77940771D01*
X156315238Y-77940771D02*
X156410476Y-77988390D01*
X156410476Y-77988390D02*
X156458095Y-78036009D01*
X156458095Y-78036009D02*
X156505714Y-78131247D01*
X156505714Y-78131247D02*
X156505714Y-78369342D01*
X156505714Y-78369342D02*
X156458095Y-78464580D01*
X156458095Y-78464580D02*
X156410476Y-78512200D01*
X156410476Y-78512200D02*
X156315238Y-78559819D01*
X156315238Y-78559819D02*
X156029524Y-78559819D01*
X156029524Y-78559819D02*
X155934286Y-78512200D01*
X155934286Y-78512200D02*
X155886667Y-78464580D01*
X169878476Y-77909009D02*
X169545143Y-77909009D01*
X169545143Y-78432819D02*
X169545143Y-77432819D01*
X169545143Y-77432819D02*
X170021333Y-77432819D01*
X170926095Y-78432819D02*
X170354667Y-78432819D01*
X170640381Y-78432819D02*
X170640381Y-77432819D01*
X170640381Y-77432819D02*
X170545143Y-77575676D01*
X170545143Y-77575676D02*
X170449905Y-77670914D01*
X170449905Y-77670914D02*
X170354667Y-77718533D01*
X171259429Y-77432819D02*
X171878476Y-77432819D01*
X171878476Y-77432819D02*
X171545143Y-77813771D01*
X171545143Y-77813771D02*
X171688000Y-77813771D01*
X171688000Y-77813771D02*
X171783238Y-77861390D01*
X171783238Y-77861390D02*
X171830857Y-77909009D01*
X171830857Y-77909009D02*
X171878476Y-78004247D01*
X171878476Y-78004247D02*
X171878476Y-78242342D01*
X171878476Y-78242342D02*
X171830857Y-78337580D01*
X171830857Y-78337580D02*
X171783238Y-78385200D01*
X171783238Y-78385200D02*
X171688000Y-78432819D01*
X171688000Y-78432819D02*
X171402286Y-78432819D01*
X171402286Y-78432819D02*
X171307048Y-78385200D01*
X171307048Y-78385200D02*
X171259429Y-78337580D01*
X146854080Y-76747666D02*
X146901700Y-76795285D01*
X146901700Y-76795285D02*
X146949319Y-76938142D01*
X146949319Y-76938142D02*
X146949319Y-77033380D01*
X146949319Y-77033380D02*
X146901700Y-77176237D01*
X146901700Y-77176237D02*
X146806461Y-77271475D01*
X146806461Y-77271475D02*
X146711223Y-77319094D01*
X146711223Y-77319094D02*
X146520747Y-77366713D01*
X146520747Y-77366713D02*
X146377890Y-77366713D01*
X146377890Y-77366713D02*
X146187414Y-77319094D01*
X146187414Y-77319094D02*
X146092176Y-77271475D01*
X146092176Y-77271475D02*
X145996938Y-77176237D01*
X145996938Y-77176237D02*
X145949319Y-77033380D01*
X145949319Y-77033380D02*
X145949319Y-76938142D01*
X145949319Y-76938142D02*
X145996938Y-76795285D01*
X145996938Y-76795285D02*
X146044557Y-76747666D01*
X146949319Y-76271475D02*
X146949319Y-76080999D01*
X146949319Y-76080999D02*
X146901700Y-75985761D01*
X146901700Y-75985761D02*
X146854080Y-75938142D01*
X146854080Y-75938142D02*
X146711223Y-75842904D01*
X146711223Y-75842904D02*
X146520747Y-75795285D01*
X146520747Y-75795285D02*
X146139795Y-75795285D01*
X146139795Y-75795285D02*
X146044557Y-75842904D01*
X146044557Y-75842904D02*
X145996938Y-75890523D01*
X145996938Y-75890523D02*
X145949319Y-75985761D01*
X145949319Y-75985761D02*
X145949319Y-76176237D01*
X145949319Y-76176237D02*
X145996938Y-76271475D01*
X145996938Y-76271475D02*
X146044557Y-76319094D01*
X146044557Y-76319094D02*
X146139795Y-76366713D01*
X146139795Y-76366713D02*
X146377890Y-76366713D01*
X146377890Y-76366713D02*
X146473128Y-76319094D01*
X146473128Y-76319094D02*
X146520747Y-76271475D01*
X146520747Y-76271475D02*
X146568366Y-76176237D01*
X146568366Y-76176237D02*
X146568366Y-75985761D01*
X146568366Y-75985761D02*
X146520747Y-75890523D01*
X146520747Y-75890523D02*
X146473128Y-75842904D01*
X146473128Y-75842904D02*
X146377890Y-75795285D01*
X173063819Y-73333333D02*
X173778104Y-73333333D01*
X173778104Y-73333333D02*
X173920961Y-73380952D01*
X173920961Y-73380952D02*
X174016200Y-73476190D01*
X174016200Y-73476190D02*
X174063819Y-73619047D01*
X174063819Y-73619047D02*
X174063819Y-73714285D01*
X173063819Y-72952380D02*
X173063819Y-72285714D01*
X173063819Y-72285714D02*
X174063819Y-72714285D01*
X153507819Y-85002666D02*
X153031628Y-85335999D01*
X153507819Y-85574094D02*
X152507819Y-85574094D01*
X152507819Y-85574094D02*
X152507819Y-85193142D01*
X152507819Y-85193142D02*
X152555438Y-85097904D01*
X152555438Y-85097904D02*
X152603057Y-85050285D01*
X152603057Y-85050285D02*
X152698295Y-85002666D01*
X152698295Y-85002666D02*
X152841152Y-85002666D01*
X152841152Y-85002666D02*
X152936390Y-85050285D01*
X152936390Y-85050285D02*
X152984009Y-85097904D01*
X152984009Y-85097904D02*
X153031628Y-85193142D01*
X153031628Y-85193142D02*
X153031628Y-85574094D01*
X153507819Y-84050285D02*
X153507819Y-84621713D01*
X153507819Y-84335999D02*
X152507819Y-84335999D01*
X152507819Y-84335999D02*
X152650676Y-84431237D01*
X152650676Y-84431237D02*
X152745914Y-84526475D01*
X152745914Y-84526475D02*
X152793533Y-84621713D01*
X176776083Y-90116819D02*
X176442750Y-89640628D01*
X176204655Y-90116819D02*
X176204655Y-89116819D01*
X176204655Y-89116819D02*
X176585607Y-89116819D01*
X176585607Y-89116819D02*
X176680845Y-89164438D01*
X176680845Y-89164438D02*
X176728464Y-89212057D01*
X176728464Y-89212057D02*
X176776083Y-89307295D01*
X176776083Y-89307295D02*
X176776083Y-89450152D01*
X176776083Y-89450152D02*
X176728464Y-89545390D01*
X176728464Y-89545390D02*
X176680845Y-89593009D01*
X176680845Y-89593009D02*
X176585607Y-89640628D01*
X176585607Y-89640628D02*
X176204655Y-89640628D01*
X177633226Y-89116819D02*
X177442750Y-89116819D01*
X177442750Y-89116819D02*
X177347512Y-89164438D01*
X177347512Y-89164438D02*
X177299893Y-89212057D01*
X177299893Y-89212057D02*
X177204655Y-89354914D01*
X177204655Y-89354914D02*
X177157036Y-89545390D01*
X177157036Y-89545390D02*
X177157036Y-89926342D01*
X177157036Y-89926342D02*
X177204655Y-90021580D01*
X177204655Y-90021580D02*
X177252274Y-90069200D01*
X177252274Y-90069200D02*
X177347512Y-90116819D01*
X177347512Y-90116819D02*
X177537988Y-90116819D01*
X177537988Y-90116819D02*
X177633226Y-90069200D01*
X177633226Y-90069200D02*
X177680845Y-90021580D01*
X177680845Y-90021580D02*
X177728464Y-89926342D01*
X177728464Y-89926342D02*
X177728464Y-89688247D01*
X177728464Y-89688247D02*
X177680845Y-89593009D01*
X177680845Y-89593009D02*
X177633226Y-89545390D01*
X177633226Y-89545390D02*
X177537988Y-89497771D01*
X177537988Y-89497771D02*
X177347512Y-89497771D01*
X177347512Y-89497771D02*
X177252274Y-89545390D01*
X177252274Y-89545390D02*
X177204655Y-89593009D01*
X177204655Y-89593009D02*
X177157036Y-89688247D01*
D13*
%TO.C,L1*%
X159186000Y-87900000D02*
X159186000Y-82280000D01*
X165306000Y-82280000D02*
X165306000Y-87900000D01*
%TO.C,D6*%
X168268750Y-92175000D02*
X170553750Y-92175000D01*
X170553750Y-90705000D02*
X168268750Y-90705000D01*
X170553750Y-92175000D02*
X170553750Y-90705000D01*
%TO.C,C10*%
X146092500Y-88463252D02*
X146092500Y-87040748D01*
X147912500Y-88463252D02*
X147912500Y-87040748D01*
%TO.C,F12*%
X129123221Y-75944000D02*
X129448779Y-75944000D01*
X129123221Y-76964000D02*
X129448779Y-76964000D01*
%TO.C,F9*%
X170305000Y-69052221D02*
X170305000Y-69377779D01*
X171325000Y-69052221D02*
X171325000Y-69377779D01*
%TO.C,F2*%
X128776000Y-69052221D02*
X128776000Y-69377779D01*
X129796000Y-69052221D02*
X129796000Y-69377779D01*
%TO.C,J1*%
X122940000Y-55090000D02*
X122940000Y-66810000D01*
X122940000Y-66810000D02*
X124360000Y-66810000D01*
X124360000Y-62310000D02*
X128000000Y-62310000D01*
X124360000Y-66810000D02*
X124360000Y-62310000D01*
X125250000Y-55700000D02*
X125250000Y-61200000D01*
X125250000Y-61200000D02*
X125750000Y-61200000D01*
X125750000Y-55700000D02*
X125250000Y-55700000D01*
X125750000Y-61200000D02*
X125750000Y-55700000D01*
X127750000Y-55700000D02*
X127750000Y-61200000D01*
X127750000Y-61200000D02*
X128250000Y-61200000D01*
X128000000Y-55090000D02*
X122940000Y-55090000D01*
X128000000Y-55090000D02*
X133060000Y-55090000D01*
X128250000Y-55700000D02*
X127750000Y-55700000D01*
X128250000Y-61200000D02*
X128250000Y-55700000D01*
X130200000Y-66500000D02*
X130500000Y-65900000D01*
X130250000Y-55700000D02*
X130250000Y-61200000D01*
X130250000Y-61200000D02*
X130750000Y-61200000D01*
X130500000Y-65900000D02*
X130800000Y-66500000D01*
X130750000Y-55700000D02*
X130250000Y-55700000D01*
X130750000Y-61200000D02*
X130750000Y-55700000D01*
X130800000Y-66500000D02*
X130200000Y-66500000D01*
X131640000Y-62310000D02*
X128000000Y-62310000D01*
X131640000Y-66810000D02*
X131640000Y-62310000D01*
X133060000Y-55090000D02*
X133060000Y-66810000D01*
X133060000Y-66810000D02*
X131640000Y-66810000D01*
D14*
%TO.C,U1*%
X158690000Y-86427367D02*
X158690000Y-86038633D01*
D13*
%TO.C,F3*%
X139698000Y-69052221D02*
X139698000Y-69377779D01*
X140718000Y-69052221D02*
X140718000Y-69377779D01*
D14*
%TO.C,D4*%
X125831600Y-88811100D02*
X125831600Y-89242161D01*
X125831600Y-93383839D02*
X125831600Y-93814900D01*
X125831600Y-93814900D02*
X132232400Y-93814900D01*
X132232400Y-88811100D02*
X125831600Y-88811100D01*
X132232400Y-89100660D02*
X132232400Y-88811100D01*
X132232400Y-93814900D02*
X132232400Y-93525340D01*
D13*
%TO.C,F10*%
X167765000Y-69052221D02*
X167765000Y-69377779D01*
X168785000Y-69052221D02*
X168785000Y-69377779D01*
%TO.C,C8*%
X138987920Y-77336000D02*
X139269080Y-77336000D01*
X138987920Y-78356000D02*
X139269080Y-78356000D01*
%TO.C,F7*%
X161796000Y-69052221D02*
X161796000Y-69377779D01*
X162816000Y-69052221D02*
X162816000Y-69377779D01*
%TO.C,F1*%
X130935000Y-69052221D02*
X130935000Y-69377779D01*
X131955000Y-69052221D02*
X131955000Y-69377779D01*
%TO.C,J4*%
X155940000Y-55090000D02*
X155940000Y-66810000D01*
X155940000Y-66810000D02*
X157360000Y-66810000D01*
X157360000Y-62310000D02*
X161000000Y-62310000D01*
X157360000Y-66810000D02*
X157360000Y-62310000D01*
X158250000Y-55700000D02*
X158250000Y-61200000D01*
X158250000Y-61200000D02*
X158750000Y-61200000D01*
X158750000Y-55700000D02*
X158250000Y-55700000D01*
X158750000Y-61200000D02*
X158750000Y-55700000D01*
X160750000Y-55700000D02*
X160750000Y-61200000D01*
X160750000Y-61200000D02*
X161250000Y-61200000D01*
X161000000Y-55090000D02*
X155940000Y-55090000D01*
X161000000Y-55090000D02*
X166060000Y-55090000D01*
X161250000Y-55700000D02*
X160750000Y-55700000D01*
X161250000Y-61200000D02*
X161250000Y-55700000D01*
X163200000Y-66500000D02*
X163500000Y-65900000D01*
X163250000Y-55700000D02*
X163250000Y-61200000D01*
X163250000Y-61200000D02*
X163750000Y-61200000D01*
X163500000Y-65900000D02*
X163800000Y-66500000D01*
X163750000Y-55700000D02*
X163250000Y-55700000D01*
X163750000Y-61200000D02*
X163750000Y-55700000D01*
X163800000Y-66500000D02*
X163200000Y-66500000D01*
X164640000Y-62310000D02*
X161000000Y-62310000D01*
X164640000Y-66810000D02*
X164640000Y-62310000D01*
X166060000Y-55090000D02*
X166060000Y-66810000D01*
X166060000Y-66810000D02*
X164640000Y-66810000D01*
%TO.C,C2*%
X158437748Y-79735000D02*
X159860252Y-79735000D01*
X158437748Y-81555000D02*
X159860252Y-81555000D01*
%TO.C,C4*%
X153969000Y-87876748D02*
X153969000Y-88399252D01*
X155439000Y-87876748D02*
X155439000Y-88399252D01*
%TO.C,C5*%
X139495920Y-82289000D02*
X139777080Y-82289000D01*
X139495920Y-83309000D02*
X139777080Y-83309000D01*
%TO.C,C7*%
X143044500Y-80843252D02*
X143044500Y-79420748D01*
X144864500Y-80843252D02*
X144864500Y-79420748D01*
%TO.C,F8*%
X159256000Y-69052221D02*
X159256000Y-69377779D01*
X160276000Y-69052221D02*
X160276000Y-69377779D01*
%TO.C,J11*%
X115390000Y-80680000D02*
X115390000Y-82320000D01*
X115390000Y-82320000D02*
X116890000Y-82320000D01*
X115390000Y-84640000D02*
X115390000Y-86280000D01*
X115390000Y-86280000D02*
X116890000Y-86280000D01*
X116890000Y-80490000D02*
X123090000Y-80490000D01*
X116890000Y-80680000D02*
X115390000Y-80680000D01*
X116890000Y-84640000D02*
X115390000Y-84640000D01*
X116890000Y-86470000D02*
X116890000Y-80490000D01*
X123090000Y-79440000D02*
X126510000Y-79440000D01*
X123090000Y-80490000D02*
X123090000Y-79440000D01*
X123090000Y-86470000D02*
X116890000Y-86470000D01*
X123090000Y-87520000D02*
X123090000Y-86470000D01*
X126510000Y-79440000D02*
X126510000Y-87520000D01*
X126510000Y-87520000D02*
X123090000Y-87520000D01*
X132010000Y-79890000D02*
X130400000Y-79890000D01*
X132010000Y-81500000D02*
X132010000Y-79890000D01*
%TO.C,F5*%
X150747000Y-69052221D02*
X150747000Y-69377779D01*
X151767000Y-69052221D02*
X151767000Y-69377779D01*
%TO.C,J2*%
X133940000Y-55090000D02*
X133940000Y-66810000D01*
X133940000Y-66810000D02*
X135360000Y-66810000D01*
X135360000Y-62310000D02*
X139000000Y-62310000D01*
X135360000Y-66810000D02*
X135360000Y-62310000D01*
X136250000Y-55700000D02*
X136250000Y-61200000D01*
X136250000Y-61200000D02*
X136750000Y-61200000D01*
X136750000Y-55700000D02*
X136250000Y-55700000D01*
X136750000Y-61200000D02*
X136750000Y-55700000D01*
X138750000Y-55700000D02*
X138750000Y-61200000D01*
X138750000Y-61200000D02*
X139250000Y-61200000D01*
X139000000Y-55090000D02*
X133940000Y-55090000D01*
X139000000Y-55090000D02*
X144060000Y-55090000D01*
X139250000Y-55700000D02*
X138750000Y-55700000D01*
X139250000Y-61200000D02*
X139250000Y-55700000D01*
X141200000Y-66500000D02*
X141500000Y-65900000D01*
X141250000Y-55700000D02*
X141250000Y-61200000D01*
X141250000Y-61200000D02*
X141750000Y-61200000D01*
X141500000Y-65900000D02*
X141800000Y-66500000D01*
X141750000Y-55700000D02*
X141250000Y-55700000D01*
X141750000Y-61200000D02*
X141750000Y-55700000D01*
X141800000Y-66500000D02*
X141200000Y-66500000D01*
X142640000Y-62310000D02*
X139000000Y-62310000D01*
X142640000Y-66810000D02*
X142640000Y-62310000D01*
X144060000Y-55090000D02*
X144060000Y-66810000D01*
X144060000Y-66810000D02*
X142640000Y-66810000D01*
%TO.C,F14*%
X170850779Y-73404000D02*
X170525221Y-73404000D01*
X170850779Y-74424000D02*
X170525221Y-74424000D01*
%TO.C,F6*%
X148207000Y-69052221D02*
X148207000Y-69377779D01*
X149227000Y-69052221D02*
X149227000Y-69377779D01*
%TO.C,J5*%
X166940000Y-55090000D02*
X166940000Y-66810000D01*
X166940000Y-66810000D02*
X168360000Y-66810000D01*
X168360000Y-62310000D02*
X172000000Y-62310000D01*
X168360000Y-66810000D02*
X168360000Y-62310000D01*
X169250000Y-55700000D02*
X169250000Y-61200000D01*
X169250000Y-61200000D02*
X169750000Y-61200000D01*
X169750000Y-55700000D02*
X169250000Y-55700000D01*
X169750000Y-61200000D02*
X169750000Y-55700000D01*
X171750000Y-55700000D02*
X171750000Y-61200000D01*
X171750000Y-61200000D02*
X172250000Y-61200000D01*
X172000000Y-55090000D02*
X166940000Y-55090000D01*
X172000000Y-55090000D02*
X177060000Y-55090000D01*
X172250000Y-55700000D02*
X171750000Y-55700000D01*
X172250000Y-61200000D02*
X172250000Y-55700000D01*
X174200000Y-66500000D02*
X174500000Y-65900000D01*
X174250000Y-55700000D02*
X174250000Y-61200000D01*
X174250000Y-61200000D02*
X174750000Y-61200000D01*
X174500000Y-65900000D02*
X174800000Y-66500000D01*
X174750000Y-55700000D02*
X174250000Y-55700000D01*
X174750000Y-61200000D02*
X174750000Y-55700000D01*
X174800000Y-66500000D02*
X174200000Y-66500000D01*
X175640000Y-62310000D02*
X172000000Y-62310000D01*
X175640000Y-66810000D02*
X175640000Y-62310000D01*
X177060000Y-55090000D02*
X177060000Y-66810000D01*
X177060000Y-66810000D02*
X175640000Y-66810000D01*
%TO.C,L2*%
X136099500Y-83934000D02*
X142919500Y-83934000D01*
X136099500Y-87244000D02*
X136099500Y-83934000D01*
X142919500Y-90554000D02*
X139509500Y-90554000D01*
X142919500Y-90554000D02*
X142919500Y-83934000D01*
%TO.C,C1*%
X158437748Y-88625000D02*
X159860252Y-88625000D01*
X158437748Y-90445000D02*
X159860252Y-90445000D01*
%TO.C,C12*%
X141412500Y-80018580D02*
X141412500Y-79737420D01*
X142432500Y-80018580D02*
X142432500Y-79737420D01*
%TO.C,J6*%
X115090000Y-67940000D02*
X126810000Y-67940000D01*
X115090000Y-73000000D02*
X115090000Y-67940000D01*
X115090000Y-73000000D02*
X115090000Y-78060000D01*
X115090000Y-78060000D02*
X126810000Y-78060000D01*
X115700000Y-70250000D02*
X115700000Y-70750000D01*
X115700000Y-70750000D02*
X121200000Y-70750000D01*
X115700000Y-72750000D02*
X115700000Y-73250000D01*
X115700000Y-73250000D02*
X121200000Y-73250000D01*
X115700000Y-75250000D02*
X115700000Y-75750000D01*
X115700000Y-75750000D02*
X121200000Y-75750000D01*
X121200000Y-70250000D02*
X115700000Y-70250000D01*
X121200000Y-70750000D02*
X121200000Y-70250000D01*
X121200000Y-72750000D02*
X115700000Y-72750000D01*
X121200000Y-73250000D02*
X121200000Y-72750000D01*
X121200000Y-75250000D02*
X115700000Y-75250000D01*
X121200000Y-75750000D02*
X121200000Y-75250000D01*
X122310000Y-69360000D02*
X122310000Y-73000000D01*
X122310000Y-76640000D02*
X122310000Y-73000000D01*
X125900000Y-70500000D02*
X126500000Y-70200000D01*
X126500000Y-70200000D02*
X126500000Y-70800000D01*
X126500000Y-70800000D02*
X125900000Y-70500000D01*
X126810000Y-67940000D02*
X126810000Y-69360000D01*
X126810000Y-69360000D02*
X122310000Y-69360000D01*
X126810000Y-76640000D02*
X122310000Y-76640000D01*
X126810000Y-78060000D02*
X126810000Y-76640000D01*
%TO.C,R5*%
X136256500Y-76724742D02*
X136256500Y-77199258D01*
X137301500Y-76724742D02*
X137301500Y-77199258D01*
%TO.C,R4*%
X174640008Y-92695500D02*
X174165492Y-92695500D01*
X174640008Y-93740500D02*
X174165492Y-93740500D01*
%TO.C,J10*%
X167990000Y-85460000D02*
X167990000Y-87070000D01*
X167990000Y-87070000D02*
X169600000Y-87070000D01*
X173490000Y-79440000D02*
X176910000Y-79440000D01*
X173490000Y-87520000D02*
X173490000Y-79440000D01*
X176910000Y-79440000D02*
X176910000Y-80490000D01*
X176910000Y-80490000D02*
X183110000Y-80490000D01*
X176910000Y-86470000D02*
X176910000Y-87520000D01*
X176910000Y-87520000D02*
X173490000Y-87520000D01*
X183110000Y-80490000D02*
X183110000Y-86470000D01*
X183110000Y-82320000D02*
X184610000Y-82320000D01*
X183110000Y-86280000D02*
X184610000Y-86280000D01*
X183110000Y-86470000D02*
X176910000Y-86470000D01*
X184610000Y-80680000D02*
X183110000Y-80680000D01*
X184610000Y-82320000D02*
X184610000Y-80680000D01*
X184610000Y-84640000D02*
X183110000Y-84640000D01*
X184610000Y-86280000D02*
X184610000Y-84640000D01*
%TO.C,D1*%
X150603000Y-84613000D02*
X150603000Y-83253000D01*
X151403000Y-83253000D02*
X150603000Y-83253000D01*
X151403000Y-84613000D02*
X151403000Y-83253000D01*
%TO.C,F4*%
X137158000Y-69052221D02*
X137158000Y-69377779D01*
X138178000Y-69052221D02*
X138178000Y-69377779D01*
%TO.C,C6*%
X143552500Y-88463252D02*
X143552500Y-87040748D01*
X145372500Y-88463252D02*
X145372500Y-87040748D01*
%TO.C,D5*%
X168268750Y-90397000D02*
X170553750Y-90397000D01*
X170553750Y-88927000D02*
X168268750Y-88927000D01*
X170553750Y-90397000D02*
X170553750Y-88927000D01*
%TO.C,R2*%
X139365758Y-75710500D02*
X138891242Y-75710500D01*
X139365758Y-76755500D02*
X138891242Y-76755500D01*
%TO.C,D2*%
X159157000Y-75419000D02*
X160517000Y-75419000D01*
X159157000Y-76219000D02*
X160517000Y-76219000D01*
X160517000Y-76219000D02*
X160517000Y-75419000D01*
%TO.C,R7*%
X174165492Y-90917500D02*
X174640008Y-90917500D01*
X174165492Y-91962500D02*
X174640008Y-91962500D01*
%TO.C,D3*%
X168268750Y-93953000D02*
X170553750Y-93953000D01*
X170553750Y-92483000D02*
X168268750Y-92483000D01*
X170553750Y-93953000D02*
X170553750Y-92483000D01*
%TO.C,F11*%
X129123221Y-73404000D02*
X129448779Y-73404000D01*
X129123221Y-74424000D02*
X129448779Y-74424000D01*
D10*
%TO.C,U2*%
X140144500Y-81910000D02*
X139636500Y-81910000D01*
X139890500Y-81656000D01*
X140144500Y-81910000D01*
G36*
X140144500Y-81910000D02*
G01*
X139636500Y-81910000D01*
X139890500Y-81656000D01*
X140144500Y-81910000D01*
G37*
D13*
%TO.C,R3*%
X134605500Y-77199258D02*
X134605500Y-76724742D01*
X135650500Y-77199258D02*
X135650500Y-76724742D01*
%TO.C,J3*%
X144940000Y-55090000D02*
X144940000Y-66810000D01*
X144940000Y-66810000D02*
X146360000Y-66810000D01*
X146360000Y-62310000D02*
X150000000Y-62310000D01*
X146360000Y-66810000D02*
X146360000Y-62310000D01*
X147250000Y-55700000D02*
X147250000Y-61200000D01*
X147250000Y-61200000D02*
X147750000Y-61200000D01*
X147750000Y-55700000D02*
X147250000Y-55700000D01*
X147750000Y-61200000D02*
X147750000Y-55700000D01*
X149750000Y-55700000D02*
X149750000Y-61200000D01*
X149750000Y-61200000D02*
X150250000Y-61200000D01*
X150000000Y-55090000D02*
X144940000Y-55090000D01*
X150000000Y-55090000D02*
X155060000Y-55090000D01*
X150250000Y-55700000D02*
X149750000Y-55700000D01*
X150250000Y-61200000D02*
X150250000Y-55700000D01*
X152200000Y-66500000D02*
X152500000Y-65900000D01*
X152250000Y-55700000D02*
X152250000Y-61200000D01*
X152250000Y-61200000D02*
X152750000Y-61200000D01*
X152500000Y-65900000D02*
X152800000Y-66500000D01*
X152750000Y-55700000D02*
X152250000Y-55700000D01*
X152750000Y-61200000D02*
X152750000Y-55700000D01*
X152800000Y-66500000D02*
X152200000Y-66500000D01*
X153640000Y-62310000D02*
X150000000Y-62310000D01*
X153640000Y-66810000D02*
X153640000Y-62310000D01*
X155060000Y-55090000D02*
X155060000Y-66810000D01*
X155060000Y-66810000D02*
X153640000Y-66810000D01*
%TO.C,C11*%
X148124500Y-80843252D02*
X148124500Y-79420748D01*
X149944500Y-80843252D02*
X149944500Y-79420748D01*
%TO.C,C3*%
X158437748Y-77195000D02*
X159860252Y-77195000D01*
X158437748Y-79015000D02*
X159860252Y-79015000D01*
%TO.C,F13*%
X170850779Y-75944000D02*
X170525221Y-75944000D01*
X170850779Y-76964000D02*
X170525221Y-76964000D01*
%TO.C,C9*%
X145584500Y-80843252D02*
X145584500Y-79420748D01*
X147404500Y-80843252D02*
X147404500Y-79420748D01*
%TO.C,J7*%
X173190000Y-67940000D02*
X173190000Y-69360000D01*
X173190000Y-69360000D02*
X177690000Y-69360000D01*
X173190000Y-76640000D02*
X177690000Y-76640000D01*
X173190000Y-78060000D02*
X173190000Y-76640000D01*
X173500000Y-75200000D02*
X174100000Y-75500000D01*
X173500000Y-75800000D02*
X173500000Y-75200000D01*
X174100000Y-75500000D02*
X173500000Y-75800000D01*
X177690000Y-69360000D02*
X177690000Y-73000000D01*
X177690000Y-76640000D02*
X177690000Y-73000000D01*
X178800000Y-70250000D02*
X178800000Y-70750000D01*
X178800000Y-70750000D02*
X184300000Y-70750000D01*
X178800000Y-72750000D02*
X178800000Y-73250000D01*
X178800000Y-73250000D02*
X184300000Y-73250000D01*
X178800000Y-75250000D02*
X178800000Y-75750000D01*
X178800000Y-75750000D02*
X184300000Y-75750000D01*
X184300000Y-70250000D02*
X178800000Y-70250000D01*
X184300000Y-70750000D02*
X184300000Y-70250000D01*
X184300000Y-72750000D02*
X178800000Y-72750000D01*
X184300000Y-73250000D02*
X184300000Y-72750000D01*
X184300000Y-75250000D02*
X178800000Y-75250000D01*
X184300000Y-75750000D02*
X184300000Y-75250000D01*
X184910000Y-67940000D02*
X173190000Y-67940000D01*
X184910000Y-73000000D02*
X184910000Y-67940000D01*
X184910000Y-73000000D02*
X184910000Y-78060000D01*
X184910000Y-78060000D02*
X173190000Y-78060000D01*
%TO.C,R1*%
X153927500Y-85073258D02*
X153927500Y-84598742D01*
X154972500Y-85073258D02*
X154972500Y-84598742D01*
%TO.C,R6*%
X174165492Y-89139500D02*
X174640008Y-89139500D01*
X174165492Y-90184500D02*
X174640008Y-90184500D01*
%TD*%
M02*
