M48
; DRILL file {KiCad 9.0.4} date 2026-01-13T12:21:20-0800
; FORMAT={-:-/ absolute / inch / decimal}
; #@! TF.CreationDate,2026-01-13T12:21:20-08:00
; #@! TF.GenerationSoftware,Kicad,Pcbnew,9.0.4
; #@! TF.FileFunction,Plated,1,2,PTH
FMAT,2
INCH
; #@! TA.AperFunction,Plated,PTH,ViaDrill
T1C0.0118
; #@! TA.AperFunction,Plated,PTH,ComponentDrill
T2C0.0374
; #@! TA.AperFunction,Plated,PTH,ComponentDrill
T3C0.0669
; #@! TA.AperFunction,Plated,PTH,ComponentDrill
T4C0.1181
%
G90
G05
T1
X5.09Y-2.79
X5.121Y-2.976
X5.125Y-2.756
X5.155Y-3.01
X5.32Y-3.025
X5.379Y-2.756
X5.3975Y-3.26
X5.465Y-2.756
X5.5575Y-3.0448
X5.5575Y-3.0748
X5.5975Y-3.0448
X5.5975Y-3.0748
X5.6675Y-3.0448
X5.6675Y-3.3479
X5.7075Y-3.3479
X5.7175Y-3.0448
X5.7375Y-3.5198
X5.7675Y-3.0448
X5.7675Y-3.3479
X5.8075Y-3.3479
X5.814Y-2.756
X5.8175Y-3.0448
X5.8675Y-3.0448
X5.9Y-2.756
X5.9175Y-3.0448
X5.945Y-3.355
X6.0907Y-3.545
X6.1507Y-3.495
X6.1676Y-3.2872
X6.1907Y-2.985
X6.1907Y-3.015
X6.1926Y-3.335
X6.1926Y-3.365
X6.2257Y-2.985
X6.2257Y-3.015
X6.249Y-2.756
X6.2857Y-3.525
X6.2873Y-3.35
X6.3323Y-3.35
X6.335Y-2.756
X6.3407Y-2.985
X6.3607Y-3.525
X6.3723Y-3.35
X6.3757Y-3.06
X6.3757Y-3.095
X6.3757Y-3.155
X6.3757Y-3.19
X6.515Y-2.975
X6.584Y-2.756
X6.67Y-2.756
X6.689Y-2.885
X6.689Y-2.951
X6.8712Y-3.53
X6.8712Y-3.6
X6.8712Y-3.67
T2
X4.8976Y-2.7756
X4.8976Y-2.874
X4.8976Y-2.9724
X4.9409Y-2.5354
X5.0394Y-2.5354
X5.1378Y-2.5354
X5.374Y-2.5354
X5.4724Y-2.5354
X5.5709Y-2.5354
X5.8071Y-2.5354
X5.9055Y-2.5354
X6.0039Y-2.5354
X6.2402Y-2.5354
X6.3386Y-2.5354
X6.437Y-2.5354
X6.6732Y-2.5354
X6.7717Y-2.5354
X6.8701Y-2.5354
X6.9134Y-2.7756
X6.9134Y-2.874
X6.9134Y-2.9724
T3
X5.1339Y-3.2087
X5.1339Y-3.3646
X6.6772Y-3.2087
X6.6772Y-3.3646
T4
X4.6654Y-2.3031
X4.6654Y-3.6024
X7.1457Y-2.3031
X7.1457Y-3.6024
M30
